G04*
G04 #@! TF.GenerationSoftware,Altium Limited,Altium Designer,23.7.1 (13)*
G04*
G04 Layer_Color=32896*
%FSLAX25Y25*%
%MOIN*%
G70*
G04*
G04 #@! TF.SameCoordinates,3671DF12-B1F1-4326-BA21-4D3E62DEF6AE*
G04*
G04*
G04 #@! TF.FilePolarity,Positive*
G04*
G01*
G75*
%ADD16C,0.00787*%
%ADD17C,0.01000*%
%ADD159C,0.01200*%
G36*
X563743Y329831D02*
X563912D01*
Y329788D01*
X564039D01*
Y329746D01*
X564124D01*
Y329704D01*
X564166D01*
Y329661D01*
X564251D01*
Y329619D01*
X564293D01*
Y329577D01*
X564335D01*
Y329534D01*
X564377D01*
Y329492D01*
X564420D01*
Y329408D01*
X564462D01*
Y329365D01*
X564504D01*
Y329280D01*
X564547D01*
Y329153D01*
X564589D01*
Y328984D01*
X564632D01*
Y328688D01*
X564589D01*
Y328603D01*
X564547D01*
Y328519D01*
X564504D01*
Y328476D01*
X564462D01*
Y328434D01*
X564420D01*
Y328392D01*
X564377D01*
Y328349D01*
X564293D01*
Y328307D01*
X564251D01*
Y328265D01*
X564166D01*
Y328222D01*
X564124D01*
Y328180D01*
X564039D01*
Y328138D01*
X563954D01*
Y328095D01*
X563870D01*
Y328053D01*
X563743D01*
Y328011D01*
X563658D01*
Y327968D01*
X563531D01*
Y327926D01*
X563404D01*
Y327884D01*
X563277D01*
Y327841D01*
X563108D01*
Y327799D01*
X562938D01*
Y327757D01*
X562769D01*
Y327714D01*
X562515D01*
Y327672D01*
X562261D01*
Y327630D01*
X561923D01*
Y327588D01*
X561373D01*
Y327545D01*
X560568D01*
Y327588D01*
X560230D01*
Y327630D01*
X560103D01*
Y327672D01*
X560018D01*
Y327714D01*
X559976D01*
Y327757D01*
X559933D01*
Y327884D01*
X559891D01*
Y328011D01*
X559849D01*
Y328138D01*
X559891D01*
Y328222D01*
X559933D01*
Y328307D01*
X559976D01*
Y328392D01*
X560018D01*
Y328434D01*
X560060D01*
Y328476D01*
X560103D01*
Y328519D01*
X560145D01*
Y328603D01*
X560187D01*
Y328646D01*
X560230D01*
Y328688D01*
X560272D01*
Y328730D01*
X560314D01*
Y328773D01*
X560357D01*
Y328815D01*
X560441D01*
Y328857D01*
X560484D01*
Y328900D01*
X560526D01*
Y328942D01*
X560568D01*
Y328984D01*
X560653D01*
Y329027D01*
X560695D01*
Y329069D01*
X560738D01*
Y329111D01*
X560822D01*
Y329153D01*
X560907D01*
Y329196D01*
X560949D01*
Y329238D01*
X561034D01*
Y329280D01*
X561119D01*
Y329323D01*
X561203D01*
Y329365D01*
X561288D01*
Y329408D01*
X561373D01*
Y329450D01*
X561499D01*
Y329492D01*
X561584D01*
Y329534D01*
X561711D01*
Y329577D01*
X561838D01*
Y329619D01*
X561965D01*
Y329661D01*
X562092D01*
Y329704D01*
X562261D01*
Y329746D01*
X562431D01*
Y329788D01*
X562642D01*
Y329831D01*
X562896D01*
Y329873D01*
X563743D01*
Y329831D01*
D02*
G37*
G36*
X576779Y336899D02*
X576948D01*
Y336857D01*
X577075D01*
Y336814D01*
X577160D01*
Y336772D01*
X577244D01*
Y336730D01*
X577329D01*
Y336687D01*
X577371D01*
Y336645D01*
X577456D01*
Y336603D01*
X577498D01*
Y336560D01*
X577583D01*
Y336518D01*
X577625D01*
Y336476D01*
X577668D01*
Y336433D01*
X577710D01*
Y336391D01*
X577752D01*
Y336306D01*
X577795D01*
Y336264D01*
X577837D01*
Y336222D01*
X577879D01*
Y336137D01*
X577922D01*
Y336095D01*
X577964D01*
Y336010D01*
X578006D01*
Y335926D01*
X578049D01*
Y335841D01*
X578091D01*
Y335714D01*
X578133D01*
Y335545D01*
X578175D01*
Y324921D01*
X578133D01*
Y324963D01*
X578006D01*
Y325006D01*
X577879D01*
Y325048D01*
X577795D01*
Y325090D01*
X577710D01*
Y325133D01*
X577625D01*
Y325175D01*
X577541D01*
Y325217D01*
X577456D01*
Y325260D01*
X577371D01*
Y325302D01*
X577287D01*
Y325344D01*
X577244D01*
Y325387D01*
X577160D01*
Y325429D01*
X577075D01*
Y325471D01*
X577033D01*
Y325514D01*
X576948D01*
Y325556D01*
X576906D01*
Y325598D01*
X576821D01*
Y325641D01*
X576779D01*
Y325683D01*
X576694D01*
Y325725D01*
X576652D01*
Y325767D01*
X576567D01*
Y325810D01*
X576525D01*
Y325852D01*
X576440D01*
Y325894D01*
X576398D01*
Y325937D01*
X576356D01*
Y325979D01*
X576271D01*
Y326021D01*
X576229D01*
Y326064D01*
X576186D01*
Y326106D01*
X576144D01*
Y326148D01*
X576059D01*
Y326191D01*
X576017D01*
Y326233D01*
X575975D01*
Y326275D01*
X575890D01*
Y326318D01*
X575848D01*
Y326360D01*
X575805D01*
Y326402D01*
X575763D01*
Y326445D01*
X575721D01*
Y326487D01*
X575636D01*
Y326529D01*
X575594D01*
Y326572D01*
X575551D01*
Y326614D01*
X575509D01*
Y326656D01*
X575467D01*
Y326699D01*
X575424D01*
Y326741D01*
X575340D01*
Y326783D01*
X575297D01*
Y326826D01*
X575255D01*
Y326868D01*
X575213D01*
Y326910D01*
X575170D01*
Y326953D01*
X575128D01*
Y326995D01*
X575086D01*
Y327037D01*
X575043D01*
Y327080D01*
X574959D01*
Y327122D01*
X574917D01*
Y327164D01*
X574874D01*
Y327206D01*
X574832D01*
Y327249D01*
X574789D01*
Y327291D01*
X574747D01*
Y327333D01*
X574705D01*
Y327376D01*
X574662D01*
Y327418D01*
X574620D01*
Y327461D01*
X574578D01*
Y327503D01*
X574536D01*
Y327545D01*
X574493D01*
Y327588D01*
X574451D01*
Y327630D01*
X574409D01*
Y327672D01*
X574324D01*
Y327714D01*
X574282D01*
Y327757D01*
X574239D01*
Y327799D01*
X574197D01*
Y327841D01*
X574155D01*
Y327884D01*
X574112D01*
Y327926D01*
X574070D01*
Y327968D01*
X574028D01*
Y328011D01*
X573985D01*
Y328053D01*
X573943D01*
Y328095D01*
X573901D01*
Y328138D01*
X573858D01*
Y328180D01*
X573816D01*
Y328222D01*
X573774D01*
Y328265D01*
X573731D01*
Y328307D01*
X573689D01*
Y328349D01*
X573647D01*
Y328392D01*
X573604D01*
Y328434D01*
X573562D01*
Y328476D01*
X573520D01*
Y328519D01*
X573477D01*
Y328561D01*
X573435D01*
Y328646D01*
X573393D01*
Y328688D01*
X573350D01*
Y328730D01*
X573308D01*
Y328773D01*
X573266D01*
Y328815D01*
X573223D01*
Y328857D01*
X573181D01*
Y328900D01*
X573139D01*
Y328942D01*
X573097D01*
Y328984D01*
X573054D01*
Y329027D01*
X573012D01*
Y329069D01*
X572969D01*
Y329111D01*
X572927D01*
Y329153D01*
X572885D01*
Y329196D01*
X572843D01*
Y329238D01*
X572800D01*
Y329280D01*
X572758D01*
Y329365D01*
X572716D01*
Y329408D01*
X572673D01*
Y329450D01*
X572631D01*
Y329492D01*
X572589D01*
Y329534D01*
X572546D01*
Y329577D01*
X572504D01*
Y329619D01*
X572462D01*
Y329661D01*
X572419D01*
Y329704D01*
X572377D01*
Y329746D01*
X572335D01*
Y329788D01*
X572292D01*
Y329873D01*
X572250D01*
Y329915D01*
X572208D01*
Y329958D01*
X572165D01*
Y330000D01*
X572123D01*
Y330042D01*
X572081D01*
Y330085D01*
X572038D01*
Y330127D01*
X571996D01*
Y330212D01*
X571954D01*
Y330254D01*
X571911D01*
Y330296D01*
X571869D01*
Y330339D01*
X571827D01*
Y330381D01*
X571784D01*
Y330423D01*
X571742D01*
Y330466D01*
X571700D01*
Y330550D01*
X571657D01*
Y330592D01*
X571615D01*
Y330635D01*
X571573D01*
Y330677D01*
X571530D01*
Y330847D01*
X571488D01*
Y331566D01*
X571446D01*
Y332074D01*
X571404D01*
Y332413D01*
X571361D01*
Y332666D01*
X571319D01*
Y332836D01*
X571277D01*
Y332963D01*
X571234D01*
Y333090D01*
X571192D01*
Y333217D01*
X571149D01*
Y333301D01*
X571107D01*
Y333386D01*
X571065D01*
Y333428D01*
X571023D01*
Y333513D01*
X570980D01*
Y333555D01*
X570938D01*
Y333640D01*
X570896D01*
Y333682D01*
X570853D01*
Y333725D01*
X570811D01*
Y333767D01*
X570769D01*
Y333809D01*
X570726D01*
Y333852D01*
X570642D01*
Y333894D01*
X570599D01*
Y333936D01*
X570557D01*
Y333979D01*
X570472D01*
Y334021D01*
X570388D01*
Y334063D01*
X570345D01*
Y334105D01*
X570218D01*
Y334148D01*
X570134D01*
Y334190D01*
X570007D01*
Y334232D01*
X569880D01*
Y334275D01*
X569668D01*
Y334317D01*
X569330D01*
Y334275D01*
X569076D01*
Y334232D01*
X568949D01*
Y334190D01*
X568822D01*
Y334148D01*
X568695D01*
Y334105D01*
X568610D01*
Y334063D01*
X568525D01*
Y334021D01*
X568441D01*
Y333979D01*
X568356D01*
Y333936D01*
X568271D01*
Y333894D01*
X568229D01*
Y333852D01*
X568145D01*
Y333809D01*
X568102D01*
Y333767D01*
X568017D01*
Y333725D01*
X567975D01*
Y333682D01*
X567891D01*
Y333640D01*
X567848D01*
Y333598D01*
X567806D01*
Y333555D01*
X567764D01*
Y333513D01*
X567679D01*
Y333471D01*
X567637D01*
Y333428D01*
X567594D01*
Y333386D01*
X567552D01*
Y333344D01*
X567510D01*
Y333301D01*
X567467D01*
Y333259D01*
X567425D01*
Y333217D01*
X567256D01*
Y333259D01*
X567129D01*
Y333301D01*
X567002D01*
Y333344D01*
X566875D01*
Y333386D01*
X566705D01*
Y333428D01*
X566536D01*
Y333471D01*
X566367D01*
Y333513D01*
X566113D01*
Y333555D01*
X565563D01*
Y333682D01*
X565520D01*
Y333936D01*
X565478D01*
Y334105D01*
X565436D01*
Y334232D01*
X565393D01*
Y334317D01*
X565351D01*
Y334402D01*
X565309D01*
Y334444D01*
X565266D01*
Y334487D01*
X565224D01*
Y334529D01*
X565182D01*
Y334571D01*
X565139D01*
Y334613D01*
X565097D01*
Y334656D01*
X565012D01*
Y334698D01*
X564928D01*
Y334740D01*
X564801D01*
Y334783D01*
X564589D01*
Y334825D01*
X564081D01*
Y334783D01*
X563912D01*
Y334740D01*
X563785D01*
Y334698D01*
X563658D01*
Y334656D01*
X563616D01*
Y334613D01*
X563531D01*
Y334571D01*
X563489D01*
Y334529D01*
X563446D01*
Y334487D01*
X563404D01*
Y334444D01*
X563362D01*
Y334360D01*
X563319D01*
Y334317D01*
X563277D01*
Y334232D01*
X563235D01*
Y334105D01*
X563192D01*
Y333979D01*
X563150D01*
Y333640D01*
X563108D01*
Y333513D01*
X563150D01*
Y333259D01*
X562684D01*
Y333217D01*
X562388D01*
Y333174D01*
X562134D01*
Y333132D01*
X561923D01*
Y333090D01*
X561711D01*
Y333047D01*
X561542D01*
Y333005D01*
X561330D01*
Y332963D01*
X561161D01*
Y332920D01*
X561034D01*
Y332878D01*
X560865D01*
Y332836D01*
X560695D01*
Y332793D01*
X560568D01*
Y332751D01*
X560399D01*
Y332709D01*
X560272D01*
Y332666D01*
X560103D01*
Y332624D01*
X559976D01*
Y332582D01*
X559849D01*
Y332540D01*
X559722D01*
Y332497D01*
X559595D01*
Y332455D01*
X559468D01*
Y332413D01*
X559341D01*
Y332370D01*
X559214D01*
Y332328D01*
X559087D01*
Y332286D01*
X558960D01*
Y332243D01*
X558833D01*
Y332201D01*
X558748D01*
Y332159D01*
X558621D01*
Y332116D01*
X558494D01*
Y332074D01*
X558367D01*
Y332032D01*
X558283D01*
Y331989D01*
X558156D01*
Y331947D01*
X558029D01*
Y331905D01*
X557944D01*
Y331862D01*
X557817D01*
Y331820D01*
X557690D01*
Y331778D01*
X557606D01*
Y331735D01*
X557479D01*
Y331693D01*
X557394D01*
Y331651D01*
X557267D01*
Y331608D01*
X557182D01*
Y331566D01*
X557055D01*
Y331524D01*
X556971D01*
Y331481D01*
X556844D01*
Y331439D01*
X556759D01*
Y331397D01*
X556632D01*
Y331354D01*
X556547D01*
Y331312D01*
X556463D01*
Y331270D01*
X556336D01*
Y331227D01*
X556251D01*
Y331185D01*
X556124D01*
Y331143D01*
X556039D01*
Y331101D01*
X555955D01*
Y331058D01*
X555828D01*
Y331016D01*
X555743D01*
Y330974D01*
X555659D01*
Y330931D01*
X555574D01*
Y330889D01*
X555447D01*
Y330847D01*
X555362D01*
Y330804D01*
X555278D01*
Y330762D01*
X555151D01*
Y330719D01*
X555066D01*
Y330677D01*
X554981D01*
Y330635D01*
X554897D01*
Y330592D01*
X554812D01*
Y330550D01*
X554685D01*
Y330508D01*
X554600D01*
Y330466D01*
X554516D01*
Y330423D01*
X554431D01*
Y330381D01*
X554347D01*
Y330339D01*
X554219D01*
Y330296D01*
X554135D01*
Y330254D01*
X554050D01*
Y330212D01*
X553966D01*
Y330169D01*
X553881D01*
Y330127D01*
X553796D01*
Y330085D01*
X553712D01*
Y330042D01*
X553627D01*
Y330000D01*
X553500D01*
Y329958D01*
X553415D01*
Y329915D01*
X553331D01*
Y329873D01*
X553246D01*
Y329831D01*
X553161D01*
Y329788D01*
X553077D01*
Y329746D01*
X552992D01*
Y329704D01*
X552907D01*
Y329661D01*
X552823D01*
Y329619D01*
X552738D01*
Y329577D01*
X552654D01*
Y329534D01*
X552569D01*
Y329492D01*
X552484D01*
Y329450D01*
X552399D01*
Y329408D01*
X552315D01*
Y329365D01*
X552230D01*
Y329323D01*
X552188D01*
Y329280D01*
X552103D01*
Y329238D01*
X552061D01*
Y329196D01*
X551976D01*
Y329153D01*
X551934D01*
Y329111D01*
X551849D01*
Y329069D01*
X551807D01*
Y329027D01*
X551722D01*
Y328984D01*
X551680D01*
Y328942D01*
X551595D01*
Y328900D01*
X551553D01*
Y328857D01*
X551468D01*
Y328815D01*
X551426D01*
Y328773D01*
X551341D01*
Y328730D01*
X551299D01*
Y328688D01*
X551257D01*
Y328646D01*
X551172D01*
Y328603D01*
X551130D01*
Y328561D01*
X551045D01*
Y328519D01*
X551003D01*
Y328476D01*
X550960D01*
Y328434D01*
X550876D01*
Y328392D01*
X550834D01*
Y328349D01*
X550791D01*
Y328307D01*
X550706D01*
Y328265D01*
X550664D01*
Y328222D01*
X550622D01*
Y328180D01*
X550580D01*
Y328138D01*
X550495D01*
Y328095D01*
X550453D01*
Y328053D01*
X550410D01*
Y328011D01*
X550368D01*
Y327968D01*
X550283D01*
Y327926D01*
X550241D01*
Y327884D01*
X550199D01*
Y327841D01*
X550156D01*
Y327799D01*
X550114D01*
Y327757D01*
X550029D01*
Y327714D01*
X549987D01*
Y327672D01*
X549945D01*
Y327630D01*
X549902D01*
Y327588D01*
X549860D01*
Y327545D01*
X549818D01*
Y327503D01*
X549733D01*
Y327461D01*
X549691D01*
Y327418D01*
X549648D01*
Y327376D01*
X549606D01*
Y327333D01*
X549564D01*
Y327291D01*
X549521D01*
Y327249D01*
X549479D01*
Y327206D01*
X549437D01*
Y327164D01*
X549395D01*
Y327122D01*
X549352D01*
Y327080D01*
X549310D01*
Y327037D01*
X549267D01*
Y326995D01*
X549225D01*
Y326953D01*
X549183D01*
Y326910D01*
X549141D01*
Y326868D01*
X549098D01*
Y326826D01*
X549056D01*
Y326783D01*
X549014D01*
Y326741D01*
X548971D01*
Y326699D01*
X548929D01*
Y326656D01*
X548887D01*
Y326614D01*
X548844D01*
Y326572D01*
X548802D01*
Y326529D01*
X548760D01*
Y326445D01*
X548717D01*
Y326402D01*
X548675D01*
Y326360D01*
X548633D01*
Y326318D01*
X548590D01*
Y326275D01*
X548548D01*
Y326191D01*
X548506D01*
Y326148D01*
X548463D01*
Y326106D01*
X548421D01*
Y326064D01*
X548379D01*
Y325979D01*
X548336D01*
Y325937D01*
X548294D01*
Y325894D01*
X548252D01*
Y325810D01*
X548209D01*
Y325767D01*
X548167D01*
Y325683D01*
X548125D01*
Y325641D01*
X548082D01*
Y325556D01*
X548040D01*
Y325471D01*
X547998D01*
Y325344D01*
X547955D01*
Y325217D01*
X547913D01*
Y325090D01*
X547871D01*
Y324963D01*
X547828D01*
Y324709D01*
X547786D01*
Y322847D01*
X547828D01*
Y322043D01*
X547871D01*
Y321620D01*
X547913D01*
Y321323D01*
X547955D01*
Y321069D01*
X547998D01*
Y320815D01*
X548040D01*
Y320646D01*
X548082D01*
Y320434D01*
X548125D01*
Y320265D01*
X548167D01*
Y320096D01*
X548209D01*
Y319969D01*
X548252D01*
Y319800D01*
X548294D01*
Y319673D01*
X548336D01*
Y319546D01*
X548379D01*
Y319419D01*
X548421D01*
Y319292D01*
X548463D01*
Y319165D01*
X548506D01*
Y319038D01*
X548548D01*
Y318953D01*
X548590D01*
Y318826D01*
X548633D01*
Y318741D01*
X548675D01*
Y318657D01*
X548717D01*
Y318530D01*
X548760D01*
Y318445D01*
X548802D01*
Y318361D01*
X548844D01*
Y318276D01*
X548887D01*
Y318191D01*
X548929D01*
Y318107D01*
X548971D01*
Y318022D01*
X549014D01*
Y317937D01*
X549056D01*
Y317853D01*
X549098D01*
Y317810D01*
X549141D01*
Y317726D01*
X549183D01*
Y317641D01*
X549225D01*
Y317599D01*
X549267D01*
Y317514D01*
X549310D01*
Y317472D01*
X549352D01*
Y317429D01*
X549395D01*
Y317345D01*
X549437D01*
Y317302D01*
X549479D01*
Y317260D01*
X549521D01*
Y317218D01*
X549564D01*
Y317176D01*
X549648D01*
Y317133D01*
X549691D01*
Y317091D01*
X549775D01*
Y317049D01*
X549860D01*
Y317006D01*
X549987D01*
Y316964D01*
X550622D01*
Y317006D01*
X550876D01*
Y316964D01*
X550960D01*
Y316922D01*
X551003D01*
Y316837D01*
X551045D01*
Y316752D01*
X551088D01*
Y316668D01*
X551130D01*
Y316583D01*
X551172D01*
Y316541D01*
X551215D01*
Y316456D01*
X551257D01*
Y316414D01*
X551299D01*
Y316371D01*
X551341D01*
Y316287D01*
X551384D01*
Y316244D01*
X551426D01*
Y316202D01*
X551468D01*
Y316160D01*
X551511D01*
Y316117D01*
X551595D01*
Y316075D01*
X551638D01*
Y316033D01*
X551680D01*
Y315990D01*
X551765D01*
Y315948D01*
X551807D01*
Y315906D01*
X551892D01*
Y315863D01*
X551976D01*
Y315821D01*
X552061D01*
Y315779D01*
X552188D01*
Y315737D01*
X552315D01*
Y315694D01*
X552484D01*
Y315652D01*
X552696D01*
Y315610D01*
X553034D01*
Y315567D01*
X553542D01*
Y315525D01*
X554008D01*
Y315482D01*
X554516D01*
Y315440D01*
X554939D01*
Y315398D01*
X555362D01*
Y315355D01*
X555743D01*
Y315313D01*
X556082D01*
Y315271D01*
X556378D01*
Y315229D01*
X556632D01*
Y315186D01*
X556844D01*
Y315144D01*
X556971D01*
Y315102D01*
X557098D01*
Y315059D01*
X557225D01*
Y315017D01*
X557309D01*
Y314975D01*
X557394D01*
Y314932D01*
X557436D01*
Y314890D01*
X557479D01*
Y314848D01*
X557521D01*
Y314805D01*
X557563D01*
Y314721D01*
X557606D01*
Y314636D01*
X557648D01*
Y314509D01*
X557690D01*
Y314424D01*
X557732D01*
Y314297D01*
X557775D01*
Y314170D01*
X557817D01*
Y314043D01*
X557860D01*
Y313874D01*
X557902D01*
Y313747D01*
X557944D01*
Y313620D01*
X557986D01*
Y313493D01*
X558029D01*
Y313366D01*
X558071D01*
Y313239D01*
X558113D01*
Y313112D01*
X558156D01*
Y312985D01*
X558198D01*
Y312858D01*
X558240D01*
Y312731D01*
X558283D01*
Y312562D01*
X558325D01*
Y312435D01*
X558367D01*
Y312308D01*
X558410D01*
Y312181D01*
X558452D01*
Y312054D01*
X558494D01*
Y311927D01*
X558537D01*
Y311800D01*
X558579D01*
Y311673D01*
X558621D01*
Y311546D01*
X558664D01*
Y311419D01*
X558706D01*
Y311292D01*
X558748D01*
Y311165D01*
X558791D01*
Y311038D01*
X558833D01*
Y310954D01*
X558875D01*
Y310827D01*
X558918D01*
Y310700D01*
X558960D01*
Y310573D01*
X559002D01*
Y310446D01*
X559045D01*
Y310319D01*
X559087D01*
Y310192D01*
X559129D01*
Y310065D01*
X559172D01*
Y309980D01*
X559214D01*
Y309853D01*
X559256D01*
Y309726D01*
X559299D01*
Y309599D01*
X559341D01*
Y309515D01*
X559383D01*
Y309388D01*
X559425D01*
Y309261D01*
X559468D01*
Y309134D01*
X559510D01*
Y309049D01*
X559552D01*
Y308922D01*
X559595D01*
Y308838D01*
X559637D01*
Y308711D01*
X559680D01*
Y308583D01*
X559722D01*
Y308499D01*
X559764D01*
Y308372D01*
X559806D01*
Y308287D01*
X559849D01*
Y308160D01*
X559891D01*
Y308076D01*
X559933D01*
Y307949D01*
X559976D01*
Y307864D01*
X560018D01*
Y307737D01*
X560060D01*
Y307652D01*
X560103D01*
Y307525D01*
X560145D01*
Y307441D01*
X560187D01*
Y307356D01*
X560230D01*
Y307229D01*
X560272D01*
Y307144D01*
X560314D01*
Y307060D01*
X560357D01*
Y306933D01*
X560399D01*
Y306848D01*
X560441D01*
Y306764D01*
X560484D01*
Y306679D01*
X560526D01*
Y306552D01*
X560568D01*
Y306467D01*
X560611D01*
Y306383D01*
X560653D01*
Y306298D01*
X560695D01*
Y306213D01*
X560738D01*
Y306129D01*
X560780D01*
Y306044D01*
X560822D01*
Y305959D01*
X560865D01*
Y305875D01*
X560907D01*
Y305790D01*
X560949D01*
Y305705D01*
X560991D01*
Y305621D01*
X561034D01*
Y305536D01*
X561076D01*
Y305451D01*
X561119D01*
Y305367D01*
X561161D01*
Y305282D01*
X561203D01*
Y305240D01*
X561245D01*
Y305155D01*
X561288D01*
Y305070D01*
X561330D01*
Y304986D01*
X561373D01*
Y304944D01*
X561415D01*
Y304859D01*
X561457D01*
Y304774D01*
X561499D01*
Y304732D01*
X561542D01*
Y304647D01*
X561584D01*
Y304605D01*
X561626D01*
Y304520D01*
X561669D01*
Y304478D01*
X561711D01*
Y304436D01*
X561753D01*
Y304351D01*
X561796D01*
Y304309D01*
X561838D01*
Y304266D01*
X561880D01*
Y304182D01*
X561923D01*
Y304139D01*
X561965D01*
Y304097D01*
X562007D01*
Y304055D01*
X562050D01*
Y304012D01*
X562092D01*
Y303970D01*
X562134D01*
Y303928D01*
X562177D01*
Y303885D01*
X562219D01*
Y303843D01*
X562261D01*
Y303801D01*
X562304D01*
Y303759D01*
X562346D01*
Y303716D01*
X562431D01*
Y303674D01*
X546305D01*
Y303716D01*
X546135D01*
Y303759D01*
X546008D01*
Y303801D01*
X545924D01*
Y303843D01*
X545839D01*
Y303885D01*
X545754D01*
Y303928D01*
X545712D01*
Y303970D01*
X545627D01*
Y304012D01*
X545585D01*
Y304055D01*
X545543D01*
Y304097D01*
X545458D01*
Y304139D01*
X545416D01*
Y304182D01*
X545374D01*
Y304224D01*
X545331D01*
Y304266D01*
X545289D01*
Y304351D01*
X545247D01*
Y304393D01*
X545204D01*
Y304478D01*
X545162D01*
Y304520D01*
X545120D01*
Y304605D01*
X545077D01*
Y304690D01*
X545035D01*
Y304774D01*
X544993D01*
Y304901D01*
X544950D01*
Y305070D01*
X544908D01*
Y335545D01*
X544950D01*
Y335714D01*
X544993D01*
Y335841D01*
X545035D01*
Y335926D01*
X545077D01*
Y336010D01*
X545120D01*
Y336095D01*
X545162D01*
Y336179D01*
X545204D01*
Y336222D01*
X545247D01*
Y336264D01*
X545289D01*
Y336349D01*
X545331D01*
Y336391D01*
X545374D01*
Y336433D01*
X545416D01*
Y336476D01*
X545458D01*
Y336518D01*
X545501D01*
Y336560D01*
X545585D01*
Y336603D01*
X545627D01*
Y336645D01*
X545670D01*
Y336687D01*
X545754D01*
Y336730D01*
X545839D01*
Y336772D01*
X545924D01*
Y336814D01*
X546008D01*
Y336857D01*
X546135D01*
Y336899D01*
X546305D01*
Y336941D01*
X576779D01*
Y336899D01*
D02*
G37*
G36*
X550326Y324709D02*
X550537D01*
Y324667D01*
X550622D01*
Y324625D01*
X550664D01*
Y324582D01*
X550706D01*
Y324540D01*
X550749D01*
Y324498D01*
X550791D01*
Y324455D01*
X550834D01*
Y324371D01*
X550876D01*
Y324244D01*
X550918D01*
Y323948D01*
X550876D01*
Y323820D01*
X550834D01*
Y323736D01*
X550791D01*
Y323694D01*
X550749D01*
Y323651D01*
X550706D01*
Y323609D01*
X550664D01*
Y323567D01*
X550580D01*
Y323524D01*
X550495D01*
Y323482D01*
X550072D01*
Y323524D01*
X549987D01*
Y323567D01*
X549902D01*
Y323609D01*
X549860D01*
Y323651D01*
X549818D01*
Y323694D01*
X549775D01*
Y323736D01*
X549733D01*
Y323820D01*
X549691D01*
Y323948D01*
X549648D01*
Y324244D01*
X549691D01*
Y324371D01*
X549733D01*
Y324455D01*
X549775D01*
Y324498D01*
X549818D01*
Y324540D01*
X549860D01*
Y324582D01*
X549902D01*
Y324625D01*
X549945D01*
Y324667D01*
X550029D01*
Y324709D01*
X550241D01*
Y324752D01*
X550326D01*
Y324709D01*
D02*
G37*
G36*
X556357Y287923D02*
X556389D01*
Y287891D01*
X556421D01*
Y287796D01*
X556452D01*
Y287732D01*
X556484D01*
Y287669D01*
X556516D01*
Y287605D01*
X556547D01*
Y287510D01*
X556579D01*
Y287447D01*
X556611D01*
Y287351D01*
X556643D01*
Y287193D01*
X556674D01*
Y286971D01*
X556706D01*
Y286780D01*
X556738D01*
Y286558D01*
X556770D01*
Y286400D01*
X556801D01*
Y286209D01*
X556833D01*
Y286051D01*
X556865D01*
Y285924D01*
X556896D01*
Y285765D01*
X556865D01*
Y285702D01*
X556801D01*
Y285670D01*
X556452D01*
Y285702D01*
X555596D01*
Y285670D01*
X555564D01*
Y285448D01*
X555596D01*
Y285321D01*
X555627D01*
Y285162D01*
X555659D01*
Y285004D01*
X555691D01*
Y284845D01*
X555723D01*
Y284655D01*
X555754D01*
Y284433D01*
X555786D01*
Y284210D01*
X555818D01*
Y283957D01*
X555849D01*
Y283671D01*
X555881D01*
Y283576D01*
X555913D01*
Y283512D01*
X555945D01*
Y283385D01*
X555976D01*
Y283227D01*
X556008D01*
Y283036D01*
X556040D01*
Y282846D01*
X556072D01*
Y282656D01*
X556103D01*
Y282497D01*
X556135D01*
Y282307D01*
X556167D01*
Y282116D01*
X556198D01*
Y281926D01*
X556230D01*
Y281736D01*
X556262D01*
Y281545D01*
X556294D01*
Y281355D01*
X556325D01*
Y281165D01*
X556357D01*
Y280974D01*
X556389D01*
Y280816D01*
X556421D01*
Y280689D01*
X556452D01*
Y280562D01*
X556484D01*
Y280403D01*
X556516D01*
Y280244D01*
X556547D01*
Y280054D01*
X556579D01*
Y279864D01*
X556611D01*
Y279705D01*
X556643D01*
Y279515D01*
X556674D01*
Y279324D01*
X556706D01*
Y279134D01*
X556738D01*
Y278975D01*
X556770D01*
Y278785D01*
X556801D01*
Y278595D01*
X556833D01*
Y278436D01*
X556865D01*
Y278246D01*
X556896D01*
Y278055D01*
X556928D01*
Y277897D01*
X556960D01*
Y277706D01*
X556992D01*
Y277548D01*
X557023D01*
Y277357D01*
X557055D01*
Y277199D01*
X557087D01*
Y277008D01*
X557119D01*
Y276850D01*
X557150D01*
Y276659D01*
X557182D01*
Y276501D01*
X557214D01*
Y276310D01*
X557245D01*
Y276152D01*
X557277D01*
Y275961D01*
X557309D01*
Y275803D01*
X557341D01*
Y275644D01*
X557372D01*
Y275454D01*
X557404D01*
Y275295D01*
X557436D01*
Y275136D01*
X557468D01*
Y274946D01*
X557499D01*
Y274787D01*
X557531D01*
Y274629D01*
X557563D01*
Y274438D01*
X557594D01*
Y274311D01*
X557626D01*
Y274280D01*
X558134D01*
Y274248D01*
X558863D01*
Y274216D01*
X558895D01*
Y274153D01*
X558927D01*
Y274089D01*
X558959D01*
Y274026D01*
X558990D01*
Y273931D01*
X559022D01*
Y273867D01*
X559054D01*
Y273740D01*
X559086D01*
Y273645D01*
X559117D01*
Y273518D01*
X559149D01*
Y273391D01*
X559181D01*
Y273264D01*
X559212D01*
Y273106D01*
X559244D01*
Y272915D01*
X559276D01*
Y272693D01*
X559308D01*
Y272471D01*
X559340D01*
Y272217D01*
X559371D01*
Y271995D01*
X559340D01*
Y271964D01*
X557880D01*
Y271995D01*
X556357D01*
Y272027D01*
X556262D01*
Y272059D01*
X556230D01*
Y272090D01*
X556198D01*
Y272154D01*
X556167D01*
Y272249D01*
X556135D01*
Y272439D01*
X556103D01*
Y272598D01*
X556072D01*
Y272788D01*
X556040D01*
Y272947D01*
X556008D01*
Y273106D01*
X555976D01*
Y273296D01*
X555945D01*
Y273455D01*
X555913D01*
Y273645D01*
X555881D01*
Y273804D01*
X555849D01*
Y273994D01*
X555818D01*
Y274153D01*
X555786D01*
Y274343D01*
X555754D01*
Y274502D01*
X555723D01*
Y274692D01*
X555691D01*
Y274787D01*
Y274819D01*
Y274851D01*
X555659D01*
Y275041D01*
X555627D01*
Y275200D01*
X555596D01*
Y275390D01*
X555564D01*
Y275549D01*
X555532D01*
Y275739D01*
X555500D01*
Y275898D01*
X555469D01*
Y276088D01*
X555437D01*
Y276278D01*
X555405D01*
Y276437D01*
X555373D01*
Y276627D01*
X555342D01*
Y276818D01*
X555310D01*
Y276976D01*
X555278D01*
Y277167D01*
X555247D01*
Y277326D01*
X555215D01*
Y277516D01*
X555183D01*
Y277706D01*
X555151D01*
Y277865D01*
X555120D01*
Y278055D01*
X555088D01*
Y278246D01*
X555056D01*
Y278404D01*
X555024D01*
Y278595D01*
X554993D01*
Y278785D01*
X554961D01*
Y278975D01*
X554929D01*
Y279134D01*
X554897D01*
Y279324D01*
X554866D01*
Y279515D01*
X554834D01*
Y279673D01*
X554802D01*
Y279864D01*
X554771D01*
Y280054D01*
X554739D01*
Y280244D01*
X554707D01*
Y280403D01*
X554675D01*
Y280593D01*
X554644D01*
Y280784D01*
X554612D01*
Y280943D01*
X554580D01*
Y281133D01*
X554549D01*
Y281292D01*
X554517D01*
Y281482D01*
X554485D01*
Y281641D01*
X554453D01*
Y281831D01*
X554422D01*
Y281990D01*
X554390D01*
Y282180D01*
X554358D01*
Y282339D01*
X554326D01*
Y282497D01*
X554295D01*
Y282687D01*
X554263D01*
Y282846D01*
X554231D01*
Y283005D01*
X554200D01*
Y283163D01*
X554168D01*
Y283322D01*
X554136D01*
Y283481D01*
X554104D01*
Y283608D01*
X554073D01*
Y283639D01*
X553977D01*
Y283608D01*
X553946D01*
Y283417D01*
X553977D01*
Y282783D01*
X553946D01*
Y282529D01*
X553914D01*
Y282243D01*
X553882D01*
Y281958D01*
X553851D01*
Y281704D01*
X553819D01*
Y281418D01*
X553787D01*
Y281133D01*
X553755D01*
Y280879D01*
X553724D01*
Y280593D01*
X553692D01*
Y280308D01*
X553660D01*
Y280054D01*
X553628D01*
Y279768D01*
X553597D01*
Y279483D01*
X553565D01*
Y279197D01*
X553533D01*
Y278912D01*
X553502D01*
Y278626D01*
X553470D01*
Y278373D01*
X553438D01*
Y278087D01*
X553406D01*
Y277801D01*
X553375D01*
Y277516D01*
X553343D01*
Y277230D01*
X553311D01*
Y276945D01*
X553279D01*
Y276659D01*
X553248D01*
Y276374D01*
X553216D01*
Y276088D01*
X553184D01*
Y275803D01*
X553153D01*
Y275517D01*
X553121D01*
Y275232D01*
X553089D01*
Y274946D01*
X553057D01*
Y274660D01*
X553026D01*
Y274375D01*
X552994D01*
Y274089D01*
X552962D01*
Y273804D01*
X552930D01*
Y273518D01*
X552899D01*
Y273233D01*
X552867D01*
Y272947D01*
X552835D01*
Y272661D01*
X552804D01*
Y272376D01*
X552772D01*
Y272059D01*
X552740D01*
Y271773D01*
X552708D01*
Y271551D01*
X552677D01*
Y271519D01*
X552645D01*
Y271488D01*
X552581D01*
Y271456D01*
X552328D01*
Y271488D01*
X552296D01*
Y271551D01*
X552264D01*
Y271615D01*
X552232D01*
Y271646D01*
X552201D01*
Y271710D01*
X552169D01*
Y271773D01*
X552137D01*
Y271837D01*
X552106D01*
Y271900D01*
X552074D01*
Y271932D01*
X552042D01*
Y271995D01*
X552010D01*
Y272059D01*
X551979D01*
Y272122D01*
X551947D01*
Y272186D01*
X551915D01*
Y272249D01*
X551883D01*
Y272312D01*
X551852D01*
Y272376D01*
X551820D01*
Y272439D01*
X551788D01*
Y272503D01*
X551756D01*
Y272566D01*
X551725D01*
Y272630D01*
X551693D01*
Y272693D01*
X551661D01*
Y272757D01*
X551630D01*
Y272820D01*
X551598D01*
Y272915D01*
X551566D01*
Y272979D01*
X551534D01*
Y273042D01*
X551503D01*
Y273106D01*
X551471D01*
Y273169D01*
X551439D01*
Y273264D01*
X551407D01*
Y273328D01*
X551376D01*
Y273391D01*
X551344D01*
Y273486D01*
X551312D01*
Y273550D01*
X551281D01*
Y273645D01*
X551249D01*
Y273709D01*
X551217D01*
Y273772D01*
X551185D01*
Y273867D01*
X551154D01*
Y273931D01*
X551122D01*
Y273994D01*
X551090D01*
Y274058D01*
X551058D01*
Y274153D01*
X551027D01*
Y274216D01*
X550995D01*
Y274280D01*
X550963D01*
Y274343D01*
X550932D01*
Y274407D01*
X550900D01*
Y274470D01*
X550868D01*
Y274533D01*
X550836D01*
Y274597D01*
X550805D01*
Y274660D01*
X550773D01*
Y274724D01*
X550741D01*
Y274787D01*
X550709D01*
Y274851D01*
X550678D01*
Y274914D01*
X550646D01*
Y274978D01*
X550614D01*
Y275041D01*
X550583D01*
Y275105D01*
X550551D01*
Y275168D01*
X550519D01*
Y275232D01*
X550487D01*
Y275295D01*
X550456D01*
Y275358D01*
X550424D01*
Y275422D01*
X550392D01*
Y275485D01*
X550360D01*
Y275549D01*
X550329D01*
Y275612D01*
X550297D01*
Y275676D01*
X550265D01*
Y275739D01*
X550234D01*
Y275803D01*
X550202D01*
Y275866D01*
X550170D01*
Y275929D01*
X550138D01*
Y275993D01*
X550107D01*
Y276056D01*
X550075D01*
Y276120D01*
X550043D01*
Y276183D01*
X550011D01*
Y276247D01*
X549980D01*
Y276310D01*
X549948D01*
Y276374D01*
X549916D01*
Y276437D01*
X549885D01*
Y276532D01*
X549853D01*
Y276596D01*
X549821D01*
Y276659D01*
X549789D01*
Y276723D01*
X549758D01*
Y276786D01*
X549726D01*
Y276850D01*
X549694D01*
Y276945D01*
X549662D01*
Y277008D01*
X549631D01*
Y277072D01*
X549599D01*
Y277135D01*
X549567D01*
Y277199D01*
X549536D01*
Y277262D01*
X549504D01*
Y277357D01*
X549472D01*
Y277421D01*
X549440D01*
Y277484D01*
X549409D01*
Y277548D01*
X549377D01*
Y277611D01*
X549345D01*
Y277675D01*
X549313D01*
Y277770D01*
X549282D01*
Y277833D01*
X549250D01*
Y277897D01*
X549218D01*
Y277960D01*
X549187D01*
Y278024D01*
X549155D01*
Y278087D01*
X549123D01*
Y278150D01*
X549091D01*
Y278246D01*
X549060D01*
Y278309D01*
X549028D01*
Y278373D01*
X548996D01*
Y278436D01*
X548965D01*
Y278499D01*
X548933D01*
Y278563D01*
X548901D01*
Y278626D01*
X548869D01*
Y278721D01*
X548838D01*
Y278785D01*
X548806D01*
Y278848D01*
X548774D01*
Y278912D01*
X548742D01*
Y278975D01*
X548711D01*
Y279039D01*
X548679D01*
Y279102D01*
X548647D01*
Y279166D01*
X548615D01*
Y279261D01*
X548584D01*
Y279324D01*
X548552D01*
Y279388D01*
X548520D01*
Y279451D01*
X548489D01*
Y279515D01*
X548457D01*
Y279578D01*
X548425D01*
Y279642D01*
X548393D01*
Y279705D01*
X548362D01*
Y279768D01*
X548330D01*
Y279864D01*
X548298D01*
Y279927D01*
X548266D01*
Y279991D01*
X548235D01*
Y280054D01*
X548203D01*
Y280118D01*
X548171D01*
Y280181D01*
X548139D01*
Y280244D01*
X548108D01*
Y280308D01*
X548076D01*
Y280371D01*
X548044D01*
Y280435D01*
X548013D01*
Y280498D01*
X547981D01*
Y280593D01*
X547949D01*
Y280657D01*
X547917D01*
Y280720D01*
X547886D01*
Y280784D01*
X547854D01*
Y280847D01*
X547822D01*
Y280911D01*
X547790D01*
Y280974D01*
X547759D01*
Y281038D01*
X547727D01*
Y281101D01*
X547695D01*
Y281165D01*
X547664D01*
Y281228D01*
X547632D01*
Y281292D01*
X547600D01*
Y281355D01*
X547568D01*
Y281450D01*
X547537D01*
Y281514D01*
X547505D01*
Y281577D01*
X547473D01*
Y281641D01*
X547441D01*
Y281704D01*
X547410D01*
Y281767D01*
X547378D01*
Y281831D01*
X547346D01*
Y281894D01*
X547315D01*
Y281958D01*
X547283D01*
Y282021D01*
X547251D01*
Y282085D01*
X547219D01*
Y282148D01*
X547188D01*
Y282212D01*
X547156D01*
Y282275D01*
X547124D01*
Y282339D01*
X547092D01*
Y282402D01*
X547061D01*
Y282465D01*
X547029D01*
Y282529D01*
X546997D01*
Y282592D01*
X546966D01*
Y282656D01*
X546934D01*
Y282751D01*
X546902D01*
Y282814D01*
X546870D01*
Y282878D01*
X546839D01*
Y282941D01*
X546807D01*
Y283005D01*
X546775D01*
Y283068D01*
X546743D01*
Y283132D01*
X546712D01*
Y283195D01*
X546680D01*
Y283259D01*
X546648D01*
Y283290D01*
X546617D01*
Y283322D01*
X546585D01*
Y283354D01*
X546458D01*
Y283259D01*
X546490D01*
Y283163D01*
X546521D01*
Y283068D01*
X546553D01*
Y282941D01*
X546585D01*
Y282846D01*
X546617D01*
Y282719D01*
X546648D01*
Y282592D01*
X546680D01*
Y282434D01*
X546712D01*
Y282275D01*
X546743D01*
Y282116D01*
X546775D01*
Y281926D01*
X546807D01*
Y281767D01*
X546839D01*
Y281577D01*
X546870D01*
Y281418D01*
X546902D01*
Y281260D01*
X546934D01*
Y281069D01*
X546966D01*
Y280911D01*
X546997D01*
Y280720D01*
X547029D01*
Y280562D01*
X547061D01*
Y280371D01*
X547092D01*
Y280213D01*
X547124D01*
Y280054D01*
X547156D01*
Y279864D01*
X547188D01*
Y279705D01*
X547219D01*
Y279515D01*
X547251D01*
Y279356D01*
X547283D01*
Y279197D01*
X547315D01*
Y279007D01*
X547346D01*
Y278848D01*
X547378D01*
Y278658D01*
X547410D01*
Y278499D01*
X547441D01*
Y278309D01*
X547473D01*
Y278150D01*
X547505D01*
Y277992D01*
X547537D01*
Y277801D01*
X547568D01*
Y277643D01*
X547600D01*
Y277452D01*
X547632D01*
Y277294D01*
X547664D01*
Y277103D01*
X547695D01*
Y276945D01*
X547727D01*
Y276786D01*
X547759D01*
Y276596D01*
X547790D01*
Y276437D01*
X547822D01*
Y276247D01*
X547854D01*
Y276088D01*
X547886D01*
Y275929D01*
X547917D01*
Y275739D01*
X547949D01*
Y275581D01*
X547981D01*
Y275390D01*
X548013D01*
Y275232D01*
X548044D01*
Y275041D01*
X548076D01*
Y274883D01*
X548108D01*
Y274724D01*
X548139D01*
Y274533D01*
X548171D01*
Y274375D01*
X548203D01*
Y274184D01*
X548235D01*
Y274026D01*
X548266D01*
Y273835D01*
X548298D01*
Y273677D01*
X548330D01*
Y273518D01*
X548362D01*
Y273328D01*
X548393D01*
Y273169D01*
X548425D01*
Y272979D01*
X548457D01*
Y272820D01*
X548489D01*
Y272661D01*
X548520D01*
Y272503D01*
X548552D01*
Y272376D01*
X548584D01*
Y272249D01*
X548615D01*
Y272027D01*
X548584D01*
Y271964D01*
X548520D01*
Y271932D01*
X543952D01*
Y271964D01*
X543475D01*
Y271995D01*
X543444D01*
Y272027D01*
X543412D01*
Y272059D01*
X543380D01*
Y272122D01*
X543349D01*
Y272186D01*
X543317D01*
Y272249D01*
X543285D01*
Y272344D01*
X543253D01*
Y272503D01*
X543222D01*
Y272725D01*
X543095D01*
Y272693D01*
X543063D01*
Y272535D01*
X543031D01*
Y272471D01*
X543000D01*
Y272408D01*
X542968D01*
Y272376D01*
X542936D01*
Y272344D01*
X542904D01*
Y272312D01*
X542873D01*
Y272281D01*
X542841D01*
Y272249D01*
X542809D01*
Y272217D01*
X542746D01*
Y272186D01*
X542714D01*
Y272154D01*
X542651D01*
Y272122D01*
X542587D01*
Y272090D01*
X542524D01*
Y272059D01*
X542460D01*
Y272027D01*
X542365D01*
Y271995D01*
X542270D01*
Y271964D01*
X542143D01*
Y271932D01*
X541984D01*
Y271900D01*
X532625D01*
Y271932D01*
X532561D01*
Y271964D01*
X532498D01*
Y271995D01*
X532466D01*
Y272027D01*
X532434D01*
Y272059D01*
X532403D01*
Y272122D01*
X532371D01*
Y272154D01*
X532339D01*
Y272217D01*
X532307D01*
Y272281D01*
X532276D01*
Y272344D01*
X532244D01*
Y272439D01*
X532212D01*
Y272535D01*
X532180D01*
Y272598D01*
X532149D01*
Y272661D01*
X532117D01*
Y272725D01*
X532085D01*
Y272788D01*
X532054D01*
Y272852D01*
X532022D01*
Y272915D01*
X531990D01*
Y272947D01*
X531958D01*
Y273010D01*
X531927D01*
Y273074D01*
X531895D01*
Y273137D01*
X531863D01*
Y273169D01*
X531831D01*
Y273233D01*
X531800D01*
Y273296D01*
X531768D01*
Y273328D01*
X531736D01*
Y273391D01*
X531705D01*
Y273423D01*
X531673D01*
Y273486D01*
X531641D01*
Y273518D01*
X531609D01*
Y273550D01*
X531578D01*
Y273613D01*
X531546D01*
Y273645D01*
X531514D01*
Y273677D01*
X531482D01*
Y273740D01*
X531451D01*
Y273772D01*
X531419D01*
Y273804D01*
X531387D01*
Y273867D01*
X531355D01*
Y273899D01*
X531324D01*
Y273931D01*
X531292D01*
Y273994D01*
X531260D01*
Y274026D01*
X531229D01*
Y274058D01*
X531197D01*
Y274121D01*
X531165D01*
Y274153D01*
X531133D01*
Y274184D01*
X531102D01*
Y274248D01*
X531070D01*
Y274280D01*
X531038D01*
Y274311D01*
X531006D01*
Y274375D01*
X530975D01*
Y274407D01*
X530943D01*
Y274470D01*
X530911D01*
Y274502D01*
X530880D01*
Y274533D01*
X530848D01*
Y274597D01*
X530816D01*
Y274629D01*
X530784D01*
Y274692D01*
X530753D01*
Y274724D01*
X530721D01*
Y274756D01*
X530689D01*
Y274819D01*
X530657D01*
Y274851D01*
X530626D01*
Y274914D01*
X530594D01*
Y274946D01*
X530562D01*
Y274978D01*
X530531D01*
Y275041D01*
X530499D01*
Y275073D01*
X530467D01*
Y275136D01*
X530435D01*
Y275168D01*
X530404D01*
Y275232D01*
X530372D01*
Y275263D01*
X530340D01*
Y275327D01*
X530308D01*
Y275358D01*
X530277D01*
Y275422D01*
X530245D01*
Y275454D01*
X530213D01*
Y275485D01*
X530182D01*
Y275517D01*
X530086D01*
Y275485D01*
X530055D01*
Y275454D01*
X530023D01*
Y275358D01*
X529991D01*
Y275263D01*
X529959D01*
Y275200D01*
X529928D01*
Y275105D01*
X529896D01*
Y275009D01*
X529864D01*
Y274946D01*
X529833D01*
Y274851D01*
X529801D01*
Y274756D01*
X529769D01*
Y274660D01*
X529737D01*
Y274597D01*
X529706D01*
Y274502D01*
X529674D01*
Y274407D01*
X529642D01*
Y274311D01*
X529610D01*
Y274216D01*
X529579D01*
Y274121D01*
X529547D01*
Y274026D01*
X529515D01*
Y273962D01*
X529484D01*
Y273867D01*
X529452D01*
Y273772D01*
X529420D01*
Y273677D01*
X529388D01*
Y273582D01*
X529357D01*
Y273486D01*
X529325D01*
Y273391D01*
X529293D01*
Y273296D01*
X529261D01*
Y273201D01*
X529230D01*
Y273106D01*
X529198D01*
Y273010D01*
X529166D01*
Y272915D01*
X529135D01*
Y272788D01*
X529103D01*
Y272693D01*
X529071D01*
Y272598D01*
X529039D01*
Y272503D01*
X529008D01*
Y272344D01*
X528976D01*
Y272186D01*
X528944D01*
Y272090D01*
X528912D01*
Y272027D01*
X528881D01*
Y271995D01*
X528849D01*
Y271964D01*
X528817D01*
Y271932D01*
X522376D01*
Y271964D01*
X522345D01*
Y271995D01*
X522313D01*
Y272027D01*
X522281D01*
Y272090D01*
X522250D01*
Y272154D01*
X522218D01*
Y272186D01*
X522186D01*
Y272249D01*
X522154D01*
Y272312D01*
X522123D01*
Y272376D01*
X522091D01*
Y272439D01*
X522059D01*
Y272503D01*
X522027D01*
Y272535D01*
X521996D01*
Y272598D01*
X521964D01*
Y272661D01*
X521932D01*
Y272725D01*
X521901D01*
Y272757D01*
X521869D01*
Y272820D01*
X521837D01*
Y272884D01*
X521805D01*
Y272915D01*
X521774D01*
Y272979D01*
X521742D01*
Y273042D01*
X521710D01*
Y273074D01*
X521678D01*
Y273137D01*
X521647D01*
Y273201D01*
X521615D01*
Y273233D01*
X521583D01*
Y273296D01*
X521552D01*
Y273359D01*
X521520D01*
Y273391D01*
X521488D01*
Y273455D01*
X521456D01*
Y273486D01*
X521425D01*
Y273550D01*
X521393D01*
Y273582D01*
X521361D01*
Y273645D01*
X521329D01*
Y273677D01*
X521298D01*
Y273740D01*
X521266D01*
Y273772D01*
X521234D01*
Y273835D01*
X521203D01*
Y273899D01*
X521171D01*
Y273931D01*
X521139D01*
Y273994D01*
X521107D01*
Y274026D01*
X521076D01*
Y274058D01*
X521044D01*
Y274121D01*
X521012D01*
Y274153D01*
X520981D01*
Y274216D01*
X520949D01*
Y274248D01*
X520917D01*
Y274311D01*
X520885D01*
Y274343D01*
X520854D01*
Y274407D01*
X520822D01*
Y274438D01*
X520790D01*
Y274470D01*
X520758D01*
Y274533D01*
X520727D01*
Y274565D01*
X520695D01*
Y274597D01*
X520663D01*
Y274660D01*
X520632D01*
Y274692D01*
X520600D01*
Y274756D01*
X520568D01*
Y274787D01*
X520536D01*
Y274819D01*
X520505D01*
Y274883D01*
X520473D01*
Y274914D01*
X520441D01*
Y274946D01*
X520409D01*
Y274978D01*
X520378D01*
Y275041D01*
X520346D01*
Y275073D01*
X520314D01*
Y275105D01*
X520283D01*
Y275168D01*
X520251D01*
Y275200D01*
X520219D01*
Y275295D01*
X520187D01*
Y275390D01*
X520156D01*
Y275422D01*
X520124D01*
Y275454D01*
X520092D01*
Y275485D01*
X520029D01*
Y275517D01*
X519902D01*
Y275485D01*
X519870D01*
Y275422D01*
X519838D01*
Y275327D01*
X519807D01*
Y275232D01*
X519775D01*
Y275136D01*
X519743D01*
Y275041D01*
X519711D01*
Y274946D01*
X519680D01*
Y274851D01*
X519648D01*
Y274756D01*
X519616D01*
Y274660D01*
X519585D01*
Y274565D01*
X519553D01*
Y274470D01*
X519521D01*
Y274375D01*
X519489D01*
Y274280D01*
X519458D01*
Y274184D01*
X519426D01*
Y274089D01*
X519394D01*
Y273994D01*
X519362D01*
Y273899D01*
X519331D01*
Y273804D01*
X519299D01*
Y273709D01*
X519267D01*
Y273613D01*
X519236D01*
Y273518D01*
X519204D01*
Y273423D01*
X519172D01*
Y273328D01*
X519140D01*
Y273233D01*
X519109D01*
Y273137D01*
X519077D01*
Y273042D01*
X519045D01*
Y272947D01*
X519013D01*
Y272852D01*
X518982D01*
Y272757D01*
X518950D01*
Y272661D01*
X518918D01*
Y272566D01*
X518887D01*
Y272471D01*
X518855D01*
Y272376D01*
X518823D01*
Y272281D01*
X518791D01*
Y272186D01*
X518760D01*
Y272090D01*
X518728D01*
Y271995D01*
X518696D01*
Y271964D01*
X518633D01*
Y271932D01*
X504292D01*
Y271964D01*
X504197D01*
Y271995D01*
X504133D01*
Y272027D01*
X504101D01*
Y272059D01*
X504070D01*
Y272090D01*
X504038D01*
Y272154D01*
X504006D01*
Y272408D01*
X503974D01*
Y272757D01*
X503943D01*
Y273074D01*
X503911D01*
Y273106D01*
X503816D01*
Y272947D01*
X503784D01*
Y272820D01*
X503752D01*
Y272757D01*
X503721D01*
Y272661D01*
X503689D01*
Y272630D01*
X503657D01*
Y272566D01*
X503625D01*
Y272535D01*
X503594D01*
Y272471D01*
X503562D01*
Y272439D01*
X503530D01*
Y272408D01*
X503499D01*
Y272376D01*
X503467D01*
Y272344D01*
X503435D01*
Y272312D01*
X503403D01*
Y272281D01*
X503340D01*
Y272249D01*
X503308D01*
Y272217D01*
X503276D01*
Y272186D01*
X503213D01*
Y272154D01*
X503150D01*
Y272122D01*
X503086D01*
Y272090D01*
X503022D01*
Y272059D01*
X502927D01*
Y272027D01*
X502864D01*
Y271995D01*
X502737D01*
Y271964D01*
X502610D01*
Y271932D01*
X502388D01*
Y271900D01*
X501975D01*
Y271932D01*
X501626D01*
Y271964D01*
X499723D01*
Y271932D01*
X495059D01*
Y271964D01*
X495027D01*
Y271995D01*
X494995D01*
Y272027D01*
X494964D01*
Y272059D01*
X494932D01*
Y272090D01*
X494900D01*
Y272154D01*
X494869D01*
Y272186D01*
X494837D01*
Y272249D01*
X494805D01*
Y272471D01*
X494773D01*
Y272788D01*
X494742D01*
Y273010D01*
X494646D01*
Y272979D01*
X494615D01*
Y272725D01*
X494583D01*
Y272598D01*
X494551D01*
Y272535D01*
X494520D01*
Y272471D01*
X494488D01*
Y272439D01*
X494456D01*
Y272376D01*
X494424D01*
Y272344D01*
X494393D01*
Y272312D01*
X494361D01*
Y272281D01*
X494329D01*
Y272249D01*
X494297D01*
Y272217D01*
X494266D01*
Y272186D01*
X494234D01*
Y272154D01*
X494171D01*
Y272122D01*
X494139D01*
Y272090D01*
X494075D01*
Y272059D01*
X494012D01*
Y272027D01*
X493948D01*
Y271995D01*
X493885D01*
Y271964D01*
X493758D01*
Y271932D01*
X493409D01*
Y271900D01*
X492774D01*
Y271868D01*
X489697D01*
Y271900D01*
X489031D01*
Y271932D01*
X488713D01*
Y271964D01*
X488523D01*
Y271995D01*
X488396D01*
Y272027D01*
X488301D01*
Y272059D01*
X488206D01*
Y272090D01*
X488142D01*
Y272122D01*
X488047D01*
Y272154D01*
X488015D01*
Y272186D01*
X487952D01*
Y272217D01*
X487888D01*
Y272249D01*
X487857D01*
Y272281D01*
X487793D01*
Y272312D01*
X487761D01*
Y272344D01*
X487698D01*
Y272376D01*
X487666D01*
Y272408D01*
X487635D01*
Y272439D01*
X487603D01*
Y272471D01*
X487571D01*
Y272503D01*
X487539D01*
Y272535D01*
X487508D01*
Y272566D01*
X487476D01*
Y272598D01*
X487444D01*
Y272630D01*
X487413D01*
Y272661D01*
X487381D01*
Y272693D01*
X487349D01*
Y272725D01*
X487317D01*
Y272757D01*
X487286D01*
Y272820D01*
X487254D01*
Y272852D01*
X487222D01*
Y272884D01*
X487190D01*
Y272947D01*
X487159D01*
Y272979D01*
X487127D01*
Y273042D01*
X487095D01*
Y273074D01*
X487064D01*
Y273137D01*
X487032D01*
Y273201D01*
X487000D01*
Y273233D01*
X486968D01*
Y273296D01*
X486937D01*
Y273359D01*
X486905D01*
Y273423D01*
X486873D01*
Y273486D01*
X486841D01*
Y273550D01*
X486810D01*
Y273645D01*
X486778D01*
Y273709D01*
X486746D01*
Y273804D01*
X486715D01*
Y273899D01*
X486683D01*
Y273994D01*
X486651D01*
Y274121D01*
X486619D01*
Y274248D01*
X486587D01*
Y274375D01*
X486556D01*
Y274565D01*
X486524D01*
Y274724D01*
X486492D01*
Y274914D01*
X486461D01*
Y275105D01*
X486429D01*
Y275263D01*
X486397D01*
Y275454D01*
X486365D01*
Y275612D01*
X486334D01*
Y275803D01*
X486302D01*
Y275993D01*
X486270D01*
Y276152D01*
X486238D01*
Y276342D01*
X486207D01*
Y276501D01*
X486175D01*
Y276691D01*
X486143D01*
Y276881D01*
X486112D01*
Y277040D01*
X486080D01*
Y277230D01*
X486048D01*
Y277389D01*
X486016D01*
Y277579D01*
X485985D01*
Y277738D01*
X485953D01*
Y277928D01*
X485921D01*
Y278119D01*
X485889D01*
Y278277D01*
X485858D01*
Y278468D01*
X485826D01*
Y278626D01*
X485794D01*
Y278817D01*
X485763D01*
Y279007D01*
X485731D01*
Y279166D01*
X485699D01*
Y279356D01*
X485667D01*
Y279515D01*
X485636D01*
Y279705D01*
X485604D01*
Y279895D01*
X485572D01*
Y280054D01*
X485540D01*
Y280244D01*
X485509D01*
Y280403D01*
X485477D01*
Y280593D01*
X485445D01*
Y280752D01*
X485414D01*
Y280943D01*
X485382D01*
Y281133D01*
X485350D01*
Y281292D01*
X485318D01*
Y281482D01*
X485287D01*
Y281641D01*
X485255D01*
Y281831D01*
X485223D01*
Y282021D01*
X485191D01*
Y282180D01*
X485160D01*
Y282370D01*
X485128D01*
Y282529D01*
X485096D01*
Y282719D01*
X485065D01*
Y282910D01*
X485033D01*
Y283068D01*
X485001D01*
Y283259D01*
X484969D01*
Y283417D01*
X484938D01*
Y283608D01*
X484906D01*
Y283766D01*
X484874D01*
Y283957D01*
X484842D01*
Y284147D01*
X484811D01*
Y284306D01*
X484779D01*
Y284496D01*
X484747D01*
Y284655D01*
X484716D01*
Y284845D01*
X484684D01*
Y285035D01*
X484652D01*
Y285194D01*
X484620D01*
Y285384D01*
X484589D01*
Y285448D01*
X484557D01*
Y285480D01*
X484493D01*
Y285511D01*
X484398D01*
Y285543D01*
X484176D01*
Y285575D01*
X482304D01*
Y285543D01*
X481797D01*
Y285575D01*
X481733D01*
Y285607D01*
X481670D01*
Y285638D01*
X481638D01*
Y285702D01*
X481606D01*
Y285829D01*
X481574D01*
Y285987D01*
X481543D01*
Y286178D01*
X481511D01*
Y286336D01*
X481479D01*
Y286495D01*
X481448D01*
Y286685D01*
X481416D01*
Y286844D01*
X481384D01*
Y287034D01*
X481353D01*
Y287193D01*
X481321D01*
Y287351D01*
X481289D01*
Y287542D01*
X481257D01*
Y287701D01*
X481225D01*
Y287732D01*
X481257D01*
Y287796D01*
X483447D01*
Y287764D01*
X485826D01*
Y287732D01*
X485858D01*
Y287605D01*
X485889D01*
Y287542D01*
X485921D01*
Y287510D01*
X485953D01*
Y287478D01*
X485985D01*
Y287447D01*
X486016D01*
Y287351D01*
X486048D01*
Y287161D01*
X486080D01*
Y287002D01*
X486112D01*
Y286812D01*
X486143D01*
Y286653D01*
X486175D01*
Y286463D01*
X486207D01*
Y286273D01*
X486238D01*
Y286114D01*
X486270D01*
Y285924D01*
X486302D01*
Y285765D01*
X486334D01*
Y285575D01*
X486365D01*
Y285416D01*
X486397D01*
Y285226D01*
X486429D01*
Y285067D01*
X486461D01*
Y284877D01*
X486492D01*
Y284718D01*
X486524D01*
Y284528D01*
X486556D01*
Y284337D01*
X486587D01*
Y284179D01*
X486619D01*
Y283988D01*
X486651D01*
Y283830D01*
X486683D01*
Y283639D01*
X486715D01*
Y283481D01*
X486746D01*
Y283290D01*
X486778D01*
Y283132D01*
X486810D01*
Y282941D01*
X486841D01*
Y282783D01*
X486873D01*
Y282592D01*
X486905D01*
Y282402D01*
X486937D01*
Y282243D01*
X486968D01*
Y282053D01*
X487000D01*
Y281894D01*
X487032D01*
Y281704D01*
X487064D01*
Y281545D01*
X487095D01*
Y281355D01*
X487127D01*
Y281196D01*
X487159D01*
Y281006D01*
X487190D01*
Y280847D01*
X487222D01*
Y280657D01*
X487254D01*
Y280498D01*
X487286D01*
Y280308D01*
X487317D01*
Y280149D01*
X487349D01*
Y279959D01*
X487381D01*
Y279800D01*
X487413D01*
Y279610D01*
X487444D01*
Y279451D01*
X487476D01*
Y279261D01*
X487508D01*
Y279102D01*
X487539D01*
Y278912D01*
X487571D01*
Y278753D01*
X487603D01*
Y278563D01*
X487635D01*
Y278404D01*
X487666D01*
Y278214D01*
X487698D01*
Y278055D01*
X487730D01*
Y277865D01*
X487761D01*
Y277706D01*
X487793D01*
Y277516D01*
X487825D01*
Y277357D01*
X487857D01*
Y277167D01*
X487888D01*
Y277008D01*
X487920D01*
Y276818D01*
X487952D01*
Y276659D01*
X487984D01*
Y276469D01*
X488015D01*
Y276310D01*
X488047D01*
Y276120D01*
X488079D01*
Y275961D01*
X488110D01*
Y275771D01*
X488142D01*
Y275612D01*
X488174D01*
Y275422D01*
X488206D01*
Y275263D01*
X488237D01*
Y275073D01*
X488269D01*
Y274914D01*
X488301D01*
Y274787D01*
X488333D01*
Y274692D01*
X488364D01*
Y274629D01*
X488396D01*
Y274597D01*
X488428D01*
Y274533D01*
X488459D01*
Y274502D01*
X488491D01*
Y274470D01*
X488523D01*
Y274438D01*
X488555D01*
Y274407D01*
X488586D01*
Y274375D01*
X488618D01*
Y274343D01*
X488682D01*
Y274311D01*
X488745D01*
Y274280D01*
X488808D01*
Y274248D01*
X488904D01*
Y274216D01*
X488999D01*
Y274184D01*
X489189D01*
Y274153D01*
X492394D01*
Y274184D01*
X492521D01*
Y274216D01*
X492584D01*
Y274248D01*
X492616D01*
Y274280D01*
X492679D01*
Y274311D01*
X492711D01*
Y274375D01*
X492743D01*
Y274407D01*
X492774D01*
Y274470D01*
X492806D01*
Y274597D01*
X492838D01*
Y275041D01*
X492806D01*
Y275200D01*
X492774D01*
Y275390D01*
X492743D01*
Y275581D01*
X492711D01*
Y275739D01*
X492679D01*
Y275929D01*
X492648D01*
Y276088D01*
X492616D01*
Y276278D01*
X492584D01*
Y276469D01*
X492552D01*
Y276627D01*
X492521D01*
Y276818D01*
X492489D01*
Y277008D01*
X492457D01*
Y277167D01*
X492425D01*
Y277357D01*
X492394D01*
Y277548D01*
X492362D01*
Y277706D01*
X492330D01*
Y277897D01*
X492299D01*
Y278055D01*
X492267D01*
Y278246D01*
X492235D01*
Y278436D01*
X492203D01*
Y278595D01*
X492172D01*
Y278785D01*
X492140D01*
Y278944D01*
X492108D01*
Y279134D01*
X492076D01*
Y279324D01*
X492045D01*
Y279483D01*
X492013D01*
Y279673D01*
X491981D01*
Y279832D01*
X491950D01*
Y280022D01*
X491918D01*
Y280213D01*
X491886D01*
Y280371D01*
X491854D01*
Y280562D01*
X491823D01*
Y280720D01*
X491791D01*
Y280911D01*
X491759D01*
Y281069D01*
X491727D01*
Y281260D01*
X491696D01*
Y281450D01*
X491664D01*
Y281609D01*
X491632D01*
Y281799D01*
X491601D01*
Y281958D01*
X491569D01*
Y282148D01*
X491537D01*
Y282307D01*
X491505D01*
Y282497D01*
X491474D01*
Y282656D01*
X491442D01*
Y282846D01*
X491410D01*
Y283036D01*
X491378D01*
Y283195D01*
X491347D01*
Y283385D01*
X491315D01*
Y283544D01*
X491283D01*
Y283734D01*
X491252D01*
Y283893D01*
X491220D01*
Y284084D01*
X491188D01*
Y284242D01*
X491156D01*
Y284433D01*
X491125D01*
Y284591D01*
X491093D01*
Y284782D01*
X491061D01*
Y284972D01*
X491029D01*
Y285131D01*
X490998D01*
Y285321D01*
X490966D01*
Y285480D01*
X490934D01*
Y285670D01*
X490903D01*
Y285829D01*
X490871D01*
Y286019D01*
X490839D01*
Y286178D01*
X490807D01*
Y286368D01*
X490776D01*
Y286527D01*
X490744D01*
Y286717D01*
X490712D01*
Y286876D01*
X490680D01*
Y287066D01*
X490649D01*
Y287225D01*
X490617D01*
Y287415D01*
X490585D01*
Y287574D01*
X490554D01*
Y287764D01*
X490522D01*
Y287859D01*
X490554D01*
Y287891D01*
X499596D01*
Y287859D01*
X499913D01*
Y287827D01*
X500104D01*
Y287796D01*
X500231D01*
Y287764D01*
X500326D01*
Y287732D01*
X500421D01*
Y287701D01*
X500484D01*
Y287669D01*
X500580D01*
Y287637D01*
X500611D01*
Y287605D01*
X500675D01*
Y287574D01*
X500738D01*
Y287542D01*
X500770D01*
Y287510D01*
X500833D01*
Y287478D01*
X500865D01*
Y287447D01*
X500897D01*
Y287415D01*
X500928D01*
Y287383D01*
X500960D01*
Y287351D01*
X500992D01*
Y287320D01*
X501024D01*
Y287288D01*
X501055D01*
Y287256D01*
X501087D01*
Y287225D01*
X501119D01*
Y287193D01*
X501151D01*
Y287161D01*
X501182D01*
Y287098D01*
X501214D01*
Y287066D01*
X501246D01*
Y287034D01*
X501277D01*
Y286971D01*
X501309D01*
Y286939D01*
X501341D01*
Y286876D01*
X501373D01*
Y286812D01*
X501404D01*
Y286780D01*
X501436D01*
Y286717D01*
X501468D01*
Y286653D01*
X501500D01*
Y286590D01*
X501531D01*
Y286527D01*
X501563D01*
Y286463D01*
X501595D01*
Y286400D01*
X501626D01*
Y286336D01*
X501658D01*
Y286241D01*
X501690D01*
Y286178D01*
X501722D01*
Y286082D01*
X501753D01*
Y285987D01*
X501785D01*
Y285892D01*
X501817D01*
Y285797D01*
X501849D01*
Y285702D01*
X501880D01*
Y285575D01*
X501912D01*
Y285448D01*
X501944D01*
Y285321D01*
X501975D01*
Y285162D01*
X502007D01*
Y285004D01*
X502039D01*
Y284877D01*
X502071D01*
Y284686D01*
X502103D01*
Y284496D01*
X502134D01*
Y284306D01*
X502166D01*
Y284115D01*
X502198D01*
Y283957D01*
X502229D01*
Y283766D01*
X502261D01*
Y283576D01*
X502324D01*
Y283195D01*
X502356D01*
Y283005D01*
X502388D01*
Y282846D01*
X502420D01*
Y282719D01*
X502452D01*
Y282592D01*
X502483D01*
Y282402D01*
X502515D01*
Y282243D01*
X502547D01*
Y282053D01*
X502578D01*
Y281863D01*
X502610D01*
Y281704D01*
X502642D01*
Y281514D01*
X502673D01*
Y281355D01*
X502705D01*
Y281165D01*
X502737D01*
Y280974D01*
X502769D01*
Y280816D01*
X502801D01*
Y280625D01*
X502832D01*
Y280435D01*
X502864D01*
Y280276D01*
X502896D01*
Y280086D01*
X502927D01*
Y279927D01*
X502959D01*
Y279737D01*
X502991D01*
Y279578D01*
X503022D01*
Y279388D01*
X503054D01*
Y279229D01*
X503086D01*
Y279039D01*
X503118D01*
Y278880D01*
X503150D01*
Y278690D01*
X503181D01*
Y278531D01*
X503213D01*
Y278341D01*
X503245D01*
Y278182D01*
X503276D01*
Y278024D01*
X503308D01*
Y277833D01*
X503340D01*
Y277675D01*
X503372D01*
Y277516D01*
X503403D01*
Y277326D01*
X503435D01*
Y277167D01*
X503467D01*
Y276976D01*
X503499D01*
Y276818D01*
X503530D01*
Y276659D01*
X503562D01*
Y276469D01*
X503594D01*
Y276310D01*
X503625D01*
Y276152D01*
X503657D01*
Y275961D01*
X503689D01*
Y275803D01*
X503721D01*
Y275644D01*
X503752D01*
Y275454D01*
X503784D01*
Y275295D01*
X503816D01*
Y275136D01*
X503848D01*
Y274978D01*
X503879D01*
Y274787D01*
X503911D01*
Y274629D01*
X503943D01*
Y274470D01*
X503974D01*
Y274311D01*
X504006D01*
Y274216D01*
X510986D01*
Y274407D01*
X510955D01*
Y274565D01*
X510923D01*
Y274756D01*
X510891D01*
Y274946D01*
X510859D01*
Y275105D01*
X510828D01*
Y275295D01*
X510796D01*
Y275485D01*
X510764D01*
Y275644D01*
X510732D01*
Y275834D01*
X510701D01*
Y276025D01*
X510669D01*
Y276183D01*
X510637D01*
Y276374D01*
X510605D01*
Y276564D01*
X510574D01*
Y276723D01*
X510542D01*
Y276913D01*
X510510D01*
Y277072D01*
X510479D01*
Y277262D01*
X510447D01*
Y277452D01*
X510415D01*
Y277611D01*
X510383D01*
Y277801D01*
X510352D01*
Y277992D01*
X510320D01*
Y278150D01*
X510288D01*
Y278341D01*
X510256D01*
Y278531D01*
X510225D01*
Y278690D01*
X510193D01*
Y278880D01*
X510161D01*
Y278944D01*
X510130D01*
Y278975D01*
X508416D01*
Y278944D01*
X506005D01*
Y278975D01*
X505973D01*
Y279007D01*
X505941D01*
Y279039D01*
X505910D01*
Y279070D01*
X505878D01*
Y279134D01*
X505846D01*
Y279166D01*
X505815D01*
Y279229D01*
X505783D01*
Y279324D01*
X505751D01*
Y279419D01*
X505719D01*
Y279515D01*
X505688D01*
Y279610D01*
X505656D01*
Y279737D01*
X505624D01*
Y279895D01*
X505592D01*
Y280054D01*
X505561D01*
Y280244D01*
X505529D01*
Y280467D01*
X505497D01*
Y280689D01*
X505466D01*
Y280911D01*
X505434D01*
Y281133D01*
X505402D01*
Y281228D01*
X505434D01*
Y281260D01*
X509749D01*
Y281292D01*
X509781D01*
Y281323D01*
X509749D01*
Y281514D01*
X509717D01*
Y281672D01*
X509685D01*
Y281831D01*
X509654D01*
Y282021D01*
X509622D01*
Y282180D01*
X509590D01*
Y282339D01*
X509558D01*
Y282497D01*
X509527D01*
Y282687D01*
X509495D01*
Y282846D01*
X509463D01*
Y283005D01*
X509432D01*
Y283163D01*
X509400D01*
Y283354D01*
X509368D01*
Y283512D01*
X509336D01*
Y283671D01*
X509305D01*
Y283861D01*
X509273D01*
Y284020D01*
X509241D01*
Y284179D01*
X509209D01*
Y284337D01*
X509178D01*
Y284528D01*
X509146D01*
Y284686D01*
X509114D01*
Y284845D01*
X509083D01*
Y285035D01*
X509051D01*
Y285194D01*
X509019D01*
Y285353D01*
X508987D01*
Y285511D01*
X508956D01*
Y285607D01*
X504704D01*
Y285575D01*
X504641D01*
Y285353D01*
X504672D01*
Y285162D01*
X504704D01*
Y284972D01*
X504736D01*
Y284813D01*
X504768D01*
Y284623D01*
X504799D01*
Y284433D01*
X504831D01*
Y284274D01*
X504863D01*
Y284084D01*
X504894D01*
Y283893D01*
X504926D01*
Y283734D01*
X504958D01*
Y283544D01*
X504990D01*
Y283322D01*
X504958D01*
Y283290D01*
X504894D01*
Y283259D01*
X504768D01*
Y283290D01*
X503467D01*
Y283322D01*
X503403D01*
Y283354D01*
X503372D01*
Y283385D01*
X503340D01*
Y283417D01*
X503308D01*
Y283449D01*
X503276D01*
Y283512D01*
X503245D01*
Y283671D01*
X503213D01*
Y283830D01*
X503181D01*
Y284020D01*
X503150D01*
Y284179D01*
X503118D01*
Y284369D01*
X503086D01*
Y284528D01*
X503054D01*
Y284718D01*
X503022D01*
Y284877D01*
X502991D01*
Y285067D01*
X502959D01*
Y285258D01*
X502927D01*
Y285416D01*
X502896D01*
Y285607D01*
X502864D01*
Y285765D01*
X502832D01*
Y285956D01*
X502801D01*
Y286114D01*
X502769D01*
Y286304D01*
X502737D01*
Y286463D01*
X502705D01*
Y286653D01*
X502673D01*
Y286812D01*
X502642D01*
Y287002D01*
X502610D01*
Y287161D01*
X502578D01*
Y287351D01*
X502547D01*
Y287542D01*
X502515D01*
Y287701D01*
X502483D01*
Y287891D01*
X511399D01*
Y287859D01*
X511430D01*
Y287827D01*
X511462D01*
Y287701D01*
X511494D01*
Y287605D01*
X511526D01*
Y287510D01*
X511557D01*
Y287415D01*
X511589D01*
Y287320D01*
X511621D01*
Y287193D01*
X511653D01*
Y287034D01*
X511684D01*
Y286876D01*
X511716D01*
Y286717D01*
X511748D01*
Y286558D01*
X511779D01*
Y286368D01*
X511811D01*
Y286209D01*
X511843D01*
Y286051D01*
X511875D01*
Y285892D01*
X511906D01*
Y285733D01*
X511875D01*
Y285670D01*
X511843D01*
Y285638D01*
X510859D01*
Y285607D01*
X510828D01*
Y285575D01*
X510796D01*
Y285543D01*
X510828D01*
Y285353D01*
X510859D01*
Y285194D01*
X510891D01*
Y285004D01*
X510923D01*
Y284845D01*
X510955D01*
Y284655D01*
X510986D01*
Y284496D01*
X511018D01*
Y284306D01*
X511050D01*
Y284147D01*
X511081D01*
Y283957D01*
X511113D01*
Y283798D01*
X511145D01*
Y283608D01*
X511177D01*
Y283449D01*
X511208D01*
Y283259D01*
X511240D01*
Y283100D01*
X511272D01*
Y282910D01*
X511304D01*
Y282751D01*
X511335D01*
Y282561D01*
X511367D01*
Y282402D01*
X511399D01*
Y282212D01*
X511430D01*
Y282053D01*
X511462D01*
Y281863D01*
X511494D01*
Y281704D01*
X511526D01*
Y281514D01*
X511557D01*
Y281355D01*
X511589D01*
Y281165D01*
X511621D01*
Y281006D01*
X511653D01*
Y280816D01*
X511684D01*
Y280657D01*
X511716D01*
Y280467D01*
X511748D01*
Y280308D01*
X511779D01*
Y280118D01*
X511811D01*
Y279959D01*
X511843D01*
Y279768D01*
X511875D01*
Y279610D01*
X511906D01*
Y279419D01*
X511938D01*
Y279261D01*
X511970D01*
Y279070D01*
X512002D01*
Y278912D01*
X512033D01*
Y278721D01*
X512065D01*
Y278563D01*
X512097D01*
Y278373D01*
X512128D01*
Y278214D01*
X512160D01*
Y278024D01*
X512192D01*
Y277865D01*
X512224D01*
Y277675D01*
X512255D01*
Y277516D01*
X512287D01*
Y277326D01*
X512319D01*
Y277167D01*
X512351D01*
Y276976D01*
X512382D01*
Y276786D01*
X512414D01*
Y276627D01*
X512446D01*
Y276437D01*
X512477D01*
Y276278D01*
X512509D01*
Y276088D01*
X512541D01*
Y275929D01*
X512573D01*
Y275739D01*
X512604D01*
Y275581D01*
X512636D01*
Y275390D01*
X512668D01*
Y275232D01*
X512700D01*
Y275041D01*
X512731D01*
Y274883D01*
X512763D01*
Y274692D01*
X512795D01*
Y274533D01*
X512826D01*
Y274343D01*
X512858D01*
Y274248D01*
X512890D01*
Y274216D01*
X517268D01*
Y274248D01*
X517300D01*
Y274311D01*
X517332D01*
Y274375D01*
X517364D01*
Y274470D01*
X517395D01*
Y274565D01*
X517427D01*
Y274660D01*
X517459D01*
Y274756D01*
X517490D01*
Y274819D01*
X517522D01*
Y274914D01*
X517554D01*
Y275009D01*
X517586D01*
Y275105D01*
X517617D01*
Y275200D01*
X517649D01*
Y275295D01*
X517681D01*
Y275358D01*
X517712D01*
Y275454D01*
X517744D01*
Y275549D01*
X517776D01*
Y275644D01*
X517808D01*
Y275739D01*
X517839D01*
Y275803D01*
X517871D01*
Y275898D01*
X517903D01*
Y275993D01*
X517935D01*
Y276088D01*
X517966D01*
Y276183D01*
X517998D01*
Y276247D01*
X518030D01*
Y276342D01*
X518061D01*
Y276437D01*
X518093D01*
Y276532D01*
X518125D01*
Y276627D01*
X518157D01*
Y276691D01*
X518188D01*
Y276786D01*
X518220D01*
Y276881D01*
X518252D01*
Y276976D01*
X518284D01*
Y277072D01*
X518315D01*
Y277135D01*
X518347D01*
Y277230D01*
X518379D01*
Y277326D01*
X518410D01*
Y277421D01*
X518442D01*
Y277516D01*
X518474D01*
Y277579D01*
X518506D01*
Y277738D01*
X518410D01*
Y277770D01*
X518379D01*
Y277801D01*
X518347D01*
Y277865D01*
X518315D01*
Y277897D01*
X518284D01*
Y277960D01*
X518252D01*
Y277992D01*
X518220D01*
Y278055D01*
X518188D01*
Y278087D01*
X518157D01*
Y278119D01*
X518125D01*
Y278182D01*
X518093D01*
Y278214D01*
X518061D01*
Y278277D01*
X518030D01*
Y278309D01*
X517998D01*
Y278373D01*
X517966D01*
Y278404D01*
X517935D01*
Y278436D01*
X517903D01*
Y278499D01*
X517871D01*
Y278531D01*
X517839D01*
Y278595D01*
X517808D01*
Y278626D01*
X517776D01*
Y278690D01*
X517744D01*
Y278721D01*
X517712D01*
Y278753D01*
X517681D01*
Y278817D01*
X517649D01*
Y278848D01*
X517617D01*
Y278912D01*
X517586D01*
Y278944D01*
X517554D01*
Y279007D01*
X517522D01*
Y279039D01*
X517490D01*
Y279070D01*
X517459D01*
Y279134D01*
X517427D01*
Y279166D01*
X517395D01*
Y279229D01*
X517364D01*
Y279261D01*
X517332D01*
Y279324D01*
X517300D01*
Y279356D01*
X517268D01*
Y279388D01*
X517237D01*
Y279451D01*
X517205D01*
Y279483D01*
X517173D01*
Y279546D01*
X517141D01*
Y279578D01*
X517110D01*
Y279642D01*
X517078D01*
Y279673D01*
X517046D01*
Y279705D01*
X517015D01*
Y279768D01*
X516983D01*
Y279800D01*
X516951D01*
Y279864D01*
X516919D01*
Y279895D01*
X516888D01*
Y279959D01*
X516856D01*
Y279991D01*
X516824D01*
Y280022D01*
X516792D01*
Y280086D01*
X516761D01*
Y280118D01*
X516729D01*
Y280181D01*
X516697D01*
Y280213D01*
X516666D01*
Y280276D01*
X516634D01*
Y280308D01*
X516602D01*
Y280340D01*
X516570D01*
Y280403D01*
X516539D01*
Y280435D01*
X516507D01*
Y280467D01*
X516475D01*
Y280498D01*
X516443D01*
Y280530D01*
X516412D01*
Y280562D01*
X515079D01*
Y280593D01*
X515016D01*
Y280625D01*
X514952D01*
Y280657D01*
X514921D01*
Y280720D01*
X514889D01*
Y280816D01*
X514857D01*
Y281006D01*
X514825D01*
Y281165D01*
X514794D01*
Y281355D01*
X514762D01*
Y281545D01*
X514730D01*
Y281704D01*
X514698D01*
Y281894D01*
X514667D01*
Y282085D01*
X514635D01*
Y282243D01*
X514603D01*
Y282434D01*
X514572D01*
Y282592D01*
X514540D01*
Y282814D01*
X514572D01*
Y282846D01*
X515555D01*
Y282814D01*
X516697D01*
Y282783D01*
X516729D01*
Y282751D01*
X516761D01*
Y282719D01*
X516792D01*
Y282687D01*
X516824D01*
Y282624D01*
X516856D01*
Y282592D01*
X516888D01*
Y282561D01*
X516919D01*
Y282497D01*
X516951D01*
Y282465D01*
X516983D01*
Y282434D01*
X517015D01*
Y282370D01*
X517046D01*
Y282339D01*
X517078D01*
Y282275D01*
X517110D01*
Y282243D01*
X517141D01*
Y282212D01*
X517173D01*
Y282148D01*
X517205D01*
Y282116D01*
X517237D01*
Y282085D01*
X517268D01*
Y282021D01*
X517300D01*
Y281990D01*
X517332D01*
Y281926D01*
X517364D01*
Y281894D01*
X517395D01*
Y281863D01*
X517427D01*
Y281799D01*
X517459D01*
Y281767D01*
X517490D01*
Y281736D01*
X517522D01*
Y281672D01*
X517554D01*
Y281641D01*
X517586D01*
Y281577D01*
X517617D01*
Y281545D01*
X517649D01*
Y281514D01*
X517681D01*
Y281450D01*
X517712D01*
Y281418D01*
X517744D01*
Y281387D01*
X517776D01*
Y281323D01*
X517808D01*
Y281292D01*
X517839D01*
Y281260D01*
X517871D01*
Y281196D01*
X517903D01*
Y281165D01*
X517935D01*
Y281101D01*
X517966D01*
Y281069D01*
X517998D01*
Y281038D01*
X518030D01*
Y280974D01*
X518061D01*
Y280943D01*
X518093D01*
Y280911D01*
X518125D01*
Y280847D01*
X518157D01*
Y280816D01*
X518188D01*
Y280752D01*
X518220D01*
Y280720D01*
X518252D01*
Y280689D01*
X518284D01*
Y280625D01*
X518315D01*
Y280593D01*
X518347D01*
Y280562D01*
X518379D01*
Y280498D01*
X518410D01*
Y280467D01*
X518442D01*
Y280403D01*
X518474D01*
Y280371D01*
X518506D01*
Y280340D01*
X518538D01*
Y280276D01*
X518569D01*
Y280244D01*
X518601D01*
Y280213D01*
X518633D01*
Y280149D01*
X518664D01*
Y280118D01*
X518696D01*
Y280086D01*
X518728D01*
Y280022D01*
X518760D01*
Y279991D01*
X518791D01*
Y279927D01*
X518823D01*
Y279895D01*
X518855D01*
Y279864D01*
X518887D01*
Y279800D01*
X518918D01*
Y279768D01*
X518950D01*
Y279737D01*
X518982D01*
Y279673D01*
X519013D01*
Y279642D01*
X519045D01*
Y279578D01*
X519077D01*
Y279546D01*
X519109D01*
Y279515D01*
X519172D01*
Y279578D01*
X519204D01*
Y279673D01*
X519236D01*
Y279768D01*
X519267D01*
Y279895D01*
X519299D01*
Y279991D01*
X519331D01*
Y280086D01*
X519362D01*
Y280181D01*
X519394D01*
Y280276D01*
X519426D01*
Y280371D01*
X519458D01*
Y280467D01*
X519489D01*
Y280562D01*
X519521D01*
Y280657D01*
X519553D01*
Y280752D01*
X519585D01*
Y280847D01*
X519616D01*
Y280943D01*
X519648D01*
Y281069D01*
X519680D01*
Y281165D01*
X519711D01*
Y281260D01*
X519743D01*
Y281355D01*
X519775D01*
Y281450D01*
X519807D01*
Y281545D01*
X519838D01*
Y281641D01*
X519870D01*
Y281736D01*
X519902D01*
Y281831D01*
X519934D01*
Y281926D01*
X519965D01*
Y282021D01*
X519997D01*
Y282116D01*
X520029D01*
Y282243D01*
X520060D01*
Y282339D01*
X520092D01*
Y282434D01*
X520124D01*
Y282529D01*
X520156D01*
Y282624D01*
X520187D01*
Y282719D01*
X520219D01*
Y282814D01*
X520251D01*
Y282846D01*
X526850D01*
Y282814D01*
X526882D01*
Y282783D01*
X526914D01*
Y282719D01*
X526945D01*
Y282687D01*
X526977D01*
Y282624D01*
X527009D01*
Y282592D01*
X527040D01*
Y282561D01*
X527072D01*
Y282497D01*
X527104D01*
Y282465D01*
X527136D01*
Y282434D01*
X527167D01*
Y282370D01*
X527199D01*
Y282339D01*
X527231D01*
Y282275D01*
X527263D01*
Y282243D01*
X527294D01*
Y282212D01*
X527326D01*
Y282148D01*
X527358D01*
Y282116D01*
X527389D01*
Y282085D01*
X527421D01*
Y282021D01*
X527453D01*
Y281990D01*
X527485D01*
Y281926D01*
X527516D01*
Y281894D01*
X527548D01*
Y281863D01*
X527580D01*
Y281799D01*
X527612D01*
Y281767D01*
X527643D01*
Y281736D01*
X527675D01*
Y281672D01*
X527707D01*
Y281641D01*
X527739D01*
Y281609D01*
X527770D01*
Y281545D01*
X527802D01*
Y281514D01*
X527834D01*
Y281450D01*
X527865D01*
Y281418D01*
X527897D01*
Y281387D01*
X527929D01*
Y281323D01*
X527961D01*
Y281292D01*
X527992D01*
Y281260D01*
X528024D01*
Y281196D01*
X528056D01*
Y281165D01*
X528088D01*
Y281101D01*
X528119D01*
Y281069D01*
X528151D01*
Y281038D01*
X528183D01*
Y280974D01*
X528215D01*
Y280943D01*
X528246D01*
Y280911D01*
X528278D01*
Y280847D01*
X528310D01*
Y280816D01*
X528341D01*
Y280752D01*
X528373D01*
Y280720D01*
X528405D01*
Y280689D01*
X528437D01*
Y280625D01*
X528468D01*
Y280593D01*
X528500D01*
Y280562D01*
X528532D01*
Y280498D01*
X528563D01*
Y280467D01*
X528595D01*
Y280435D01*
X528627D01*
Y280371D01*
X528659D01*
Y280340D01*
X528690D01*
Y280276D01*
X528722D01*
Y280244D01*
X528754D01*
Y280213D01*
X528786D01*
Y280149D01*
X528817D01*
Y280118D01*
X528849D01*
Y280086D01*
X528881D01*
Y280022D01*
X528912D01*
Y279991D01*
X528944D01*
Y279927D01*
X528976D01*
Y279895D01*
X529008D01*
Y279864D01*
X529039D01*
Y279800D01*
X529071D01*
Y279768D01*
X529103D01*
Y279737D01*
X529135D01*
Y279673D01*
X529166D01*
Y279642D01*
X529198D01*
Y279578D01*
X529230D01*
Y279546D01*
X529261D01*
Y279515D01*
X529293D01*
Y279546D01*
X529325D01*
Y279610D01*
X529357D01*
Y279705D01*
X529388D01*
Y279800D01*
X529420D01*
Y279927D01*
X529452D01*
Y280022D01*
X529484D01*
Y280118D01*
X529515D01*
Y280213D01*
X529547D01*
Y280308D01*
X529579D01*
Y280403D01*
X529610D01*
Y280498D01*
X529642D01*
Y280593D01*
X529674D01*
Y280720D01*
X529706D01*
Y280816D01*
X529737D01*
Y280911D01*
X529769D01*
Y281006D01*
X529801D01*
Y281101D01*
X529833D01*
Y281196D01*
X529864D01*
Y281292D01*
X529896D01*
Y281387D01*
X529928D01*
Y281514D01*
X529959D01*
Y281609D01*
X529991D01*
Y281704D01*
X530023D01*
Y281799D01*
X530055D01*
Y281894D01*
X530086D01*
Y281990D01*
X530118D01*
Y282085D01*
X530150D01*
Y282180D01*
X530182D01*
Y282307D01*
X530213D01*
Y282402D01*
X530245D01*
Y282497D01*
X530277D01*
Y282592D01*
X530308D01*
Y282687D01*
X530340D01*
Y282783D01*
X530372D01*
Y282846D01*
X530404D01*
Y282878D01*
X530435D01*
Y282910D01*
X532529D01*
Y282719D01*
X532561D01*
Y282624D01*
X532593D01*
Y282592D01*
X532625D01*
Y282561D01*
X532656D01*
Y282529D01*
X532688D01*
Y282434D01*
X532720D01*
Y282243D01*
X532752D01*
Y282085D01*
X532783D01*
Y281894D01*
X532815D01*
Y281704D01*
X532847D01*
Y281514D01*
X532878D01*
Y281355D01*
X532910D01*
Y281165D01*
X532942D01*
Y280974D01*
X532974D01*
Y280784D01*
X533005D01*
Y280498D01*
X532974D01*
Y280467D01*
X532910D01*
Y280435D01*
X532466D01*
Y280467D01*
X531800D01*
Y280435D01*
X531768D01*
Y280371D01*
X531736D01*
Y280276D01*
X531705D01*
Y280181D01*
X531673D01*
Y280086D01*
X531641D01*
Y279991D01*
X531609D01*
Y279895D01*
X531578D01*
Y279800D01*
X531546D01*
Y279705D01*
X531514D01*
Y279610D01*
X531482D01*
Y279515D01*
X531451D01*
Y279419D01*
X531419D01*
Y279324D01*
X531387D01*
Y279229D01*
X531355D01*
Y279134D01*
X531324D01*
Y279070D01*
X531292D01*
Y278975D01*
X531260D01*
Y278880D01*
X531229D01*
Y278785D01*
X531197D01*
Y278690D01*
X531165D01*
Y278595D01*
X531133D01*
Y278499D01*
X531102D01*
Y278404D01*
X531070D01*
Y278309D01*
X531038D01*
Y278214D01*
X531006D01*
Y278119D01*
X530975D01*
Y278024D01*
X530943D01*
Y277928D01*
X530911D01*
Y277833D01*
X530880D01*
Y277738D01*
X530848D01*
Y277643D01*
X530816D01*
Y277548D01*
X530784D01*
Y277389D01*
X530816D01*
Y277326D01*
X530848D01*
Y277294D01*
X530880D01*
Y277262D01*
X530911D01*
Y277199D01*
X530943D01*
Y277167D01*
X530975D01*
Y277135D01*
X531006D01*
Y277072D01*
X531038D01*
Y277040D01*
X531070D01*
Y276976D01*
X531102D01*
Y276945D01*
X531133D01*
Y276913D01*
X531165D01*
Y276850D01*
X531197D01*
Y276818D01*
X531229D01*
Y276786D01*
X531260D01*
Y276723D01*
X531292D01*
Y276691D01*
X531324D01*
Y276627D01*
X531355D01*
Y276596D01*
X531387D01*
Y276564D01*
X531419D01*
Y276501D01*
X531451D01*
Y276469D01*
X531482D01*
Y276405D01*
X531514D01*
Y276374D01*
X531546D01*
Y276342D01*
X531578D01*
Y276278D01*
X531609D01*
Y276247D01*
X531641D01*
Y276215D01*
X531673D01*
Y276152D01*
X531705D01*
Y276120D01*
X531736D01*
Y276056D01*
X531768D01*
Y276025D01*
X531800D01*
Y275993D01*
X531831D01*
Y275929D01*
X531863D01*
Y275898D01*
X531895D01*
Y275866D01*
X531927D01*
Y275803D01*
X531958D01*
Y275771D01*
X531990D01*
Y275707D01*
X532022D01*
Y275676D01*
X532054D01*
Y275644D01*
X532085D01*
Y275581D01*
X532117D01*
Y275549D01*
X532149D01*
Y275517D01*
X532180D01*
Y275454D01*
X532212D01*
Y275422D01*
X532244D01*
Y275358D01*
X532276D01*
Y275327D01*
X532307D01*
Y275295D01*
X532339D01*
Y275232D01*
X532371D01*
Y275200D01*
X532403D01*
Y275136D01*
X532434D01*
Y275105D01*
X532466D01*
Y275073D01*
X532498D01*
Y275009D01*
X532529D01*
Y274978D01*
X532561D01*
Y274946D01*
X532593D01*
Y274883D01*
X532625D01*
Y274851D01*
X532656D01*
Y274787D01*
X532688D01*
Y274756D01*
X532720D01*
Y274724D01*
X532752D01*
Y274660D01*
X532783D01*
Y274629D01*
X532815D01*
Y274597D01*
X532847D01*
Y274533D01*
X532878D01*
Y274502D01*
X532910D01*
Y274438D01*
X532942D01*
Y274407D01*
X532974D01*
Y274375D01*
X533005D01*
Y274311D01*
X533037D01*
Y274280D01*
X533069D01*
Y274216D01*
X533101D01*
Y274184D01*
X533164D01*
Y274153D01*
X536432D01*
Y274375D01*
X536400D01*
Y274533D01*
X536369D01*
Y274724D01*
X536337D01*
Y274883D01*
X536305D01*
Y275073D01*
X536273D01*
Y275232D01*
X536242D01*
Y275422D01*
X536210D01*
Y275581D01*
X536178D01*
Y275771D01*
X536146D01*
Y275961D01*
X536115D01*
Y276120D01*
X536083D01*
Y276310D01*
X536051D01*
Y276469D01*
X536020D01*
Y276659D01*
X535988D01*
Y276850D01*
X535956D01*
Y277008D01*
X535924D01*
Y277199D01*
X535893D01*
Y277389D01*
X535861D01*
Y277548D01*
X535829D01*
Y277738D01*
X535797D01*
Y277928D01*
X535766D01*
Y278087D01*
X535734D01*
Y278277D01*
X535702D01*
Y278468D01*
X535671D01*
Y278626D01*
X535639D01*
Y278817D01*
X535607D01*
Y279007D01*
X535575D01*
Y279197D01*
X535544D01*
Y279356D01*
X535512D01*
Y279546D01*
X535480D01*
Y279737D01*
X535448D01*
Y279927D01*
X535417D01*
Y280086D01*
X535385D01*
Y280276D01*
X535353D01*
Y280530D01*
X535322D01*
Y281292D01*
X535353D01*
Y281450D01*
X535385D01*
Y281577D01*
X535417D01*
Y281672D01*
X535448D01*
Y281767D01*
X535480D01*
Y281831D01*
X535512D01*
Y281894D01*
X535544D01*
Y281958D01*
X535575D01*
Y281990D01*
X535607D01*
Y282053D01*
X535639D01*
Y282085D01*
X535671D01*
Y282116D01*
X535702D01*
Y282148D01*
X535734D01*
Y282180D01*
X535766D01*
Y282212D01*
X535797D01*
Y282243D01*
X535829D01*
Y282275D01*
X535861D01*
Y282307D01*
X535924D01*
Y282339D01*
X535956D01*
Y282370D01*
X536020D01*
Y282402D01*
X536051D01*
Y282434D01*
X536115D01*
Y282465D01*
X536178D01*
Y282497D01*
X536273D01*
Y282529D01*
X536369D01*
Y282561D01*
X536464D01*
Y282592D01*
X536559D01*
Y282624D01*
X536718D01*
Y282656D01*
X536908D01*
Y282687D01*
X537257D01*
Y282719D01*
X538462D01*
Y282687D01*
X539605D01*
Y282656D01*
X539827D01*
Y282624D01*
X539986D01*
Y282592D01*
X540112D01*
Y282561D01*
X540208D01*
Y282529D01*
X540303D01*
Y282497D01*
X540366D01*
Y282465D01*
X540461D01*
Y282434D01*
X540525D01*
Y282402D01*
X540557D01*
Y282370D01*
X540620D01*
Y282339D01*
X540684D01*
Y282307D01*
X540715D01*
Y282275D01*
X540747D01*
Y282243D01*
X540810D01*
Y282212D01*
X540842D01*
Y282180D01*
X540874D01*
Y282148D01*
X540906D01*
Y282116D01*
X540937D01*
Y282085D01*
X540969D01*
Y282053D01*
X541001D01*
Y281990D01*
X541033D01*
Y281958D01*
X541064D01*
Y281926D01*
X541096D01*
Y281863D01*
X541128D01*
Y281831D01*
X541159D01*
Y281767D01*
X541191D01*
Y281704D01*
X541223D01*
Y281672D01*
X541255D01*
Y281577D01*
X541286D01*
Y281514D01*
X541318D01*
Y281450D01*
X541350D01*
Y281355D01*
X541382D01*
Y281260D01*
X541413D01*
Y281133D01*
X541445D01*
Y281038D01*
X541477D01*
Y280974D01*
X541508D01*
Y280943D01*
X541540D01*
Y280911D01*
X541572D01*
Y280879D01*
X541604D01*
Y280816D01*
X541635D01*
Y280689D01*
X541667D01*
Y280562D01*
X541699D01*
Y280403D01*
X541730D01*
Y280244D01*
X541762D01*
Y280118D01*
X541794D01*
Y279959D01*
X541826D01*
Y279800D01*
X541857D01*
Y279673D01*
X541889D01*
Y279515D01*
X541921D01*
Y279356D01*
X541953D01*
Y279229D01*
X541984D01*
Y279070D01*
X542016D01*
Y278912D01*
X542048D01*
Y278690D01*
X542016D01*
Y278658D01*
X541572D01*
Y278626D01*
X540969D01*
Y278658D01*
X540715D01*
Y278690D01*
X540588D01*
Y278721D01*
X540493D01*
Y278753D01*
X540430D01*
Y278785D01*
X540366D01*
Y278817D01*
X540335D01*
Y278848D01*
X540303D01*
Y278880D01*
X540271D01*
Y278944D01*
X540239D01*
Y279102D01*
X540208D01*
Y279261D01*
X540176D01*
Y279451D01*
X540144D01*
Y279578D01*
X540112D01*
Y279737D01*
X540081D01*
Y279864D01*
X540049D01*
Y279991D01*
X540017D01*
Y280086D01*
X539986D01*
Y280181D01*
X539954D01*
Y280244D01*
X539922D01*
Y280308D01*
X539890D01*
Y280340D01*
X539859D01*
Y280371D01*
X539795D01*
Y280403D01*
X537320D01*
Y280371D01*
X537257D01*
Y280340D01*
X537193D01*
Y280276D01*
X537162D01*
Y280213D01*
X537130D01*
Y280022D01*
X537162D01*
Y279832D01*
X537193D01*
Y279642D01*
X537225D01*
Y279451D01*
X537257D01*
Y279261D01*
X537289D01*
Y279102D01*
X537320D01*
Y278912D01*
X537352D01*
Y278721D01*
X537384D01*
Y278531D01*
X537416D01*
Y278404D01*
X537447D01*
Y278373D01*
X537479D01*
Y278341D01*
X538367D01*
Y278373D01*
X540112D01*
Y278341D01*
X540493D01*
Y278309D01*
X540747D01*
Y278277D01*
X540906D01*
Y278246D01*
X541033D01*
Y278214D01*
X541159D01*
Y278182D01*
X541255D01*
Y278150D01*
X541350D01*
Y278119D01*
X541413D01*
Y278087D01*
X541477D01*
Y278055D01*
X541540D01*
Y278024D01*
X541604D01*
Y277992D01*
X541635D01*
Y277960D01*
X541699D01*
Y277928D01*
X541730D01*
Y277897D01*
X541794D01*
Y277865D01*
X541826D01*
Y277833D01*
X541857D01*
Y277801D01*
X541921D01*
Y277770D01*
X541953D01*
Y277738D01*
X541984D01*
Y277706D01*
X542016D01*
Y277675D01*
X542048D01*
Y277643D01*
X542079D01*
Y277579D01*
X542111D01*
Y277548D01*
X542143D01*
Y277516D01*
X542175D01*
Y277484D01*
X542206D01*
Y277421D01*
X542238D01*
Y277389D01*
X542270D01*
Y277326D01*
X542302D01*
Y277294D01*
X542333D01*
Y277230D01*
X542365D01*
Y277167D01*
X542397D01*
Y277103D01*
X542428D01*
Y277040D01*
X542460D01*
Y276976D01*
X542492D01*
Y276881D01*
X542524D01*
Y276818D01*
X542555D01*
Y276723D01*
X542587D01*
Y276596D01*
X542619D01*
Y276501D01*
X542651D01*
Y276374D01*
X542682D01*
Y276215D01*
X542714D01*
Y276088D01*
X542746D01*
Y275961D01*
X542777D01*
Y275803D01*
X542809D01*
Y275644D01*
X542841D01*
Y275485D01*
X542873D01*
Y275327D01*
X542904D01*
Y275168D01*
X542936D01*
Y275009D01*
X542968D01*
Y274851D01*
X543000D01*
Y274660D01*
X543031D01*
Y274502D01*
X543063D01*
Y274343D01*
X543095D01*
Y274248D01*
X546268D01*
Y274280D01*
X546299D01*
Y274470D01*
X546268D01*
Y274660D01*
X546236D01*
Y274819D01*
X546204D01*
Y275009D01*
X546172D01*
Y275200D01*
X546141D01*
Y275358D01*
X546109D01*
Y275549D01*
X546077D01*
Y275707D01*
X546045D01*
Y275898D01*
X546014D01*
Y276088D01*
X545982D01*
Y276247D01*
X545950D01*
Y276437D01*
X545919D01*
Y276596D01*
X545887D01*
Y276786D01*
X545855D01*
Y276976D01*
X545823D01*
Y277135D01*
X545792D01*
Y277326D01*
X545760D01*
Y277484D01*
X545728D01*
Y277675D01*
X545696D01*
Y277865D01*
X545665D01*
Y278024D01*
X545633D01*
Y278214D01*
X545601D01*
Y278404D01*
X545570D01*
Y278563D01*
X545538D01*
Y278753D01*
X545506D01*
Y278912D01*
X545474D01*
Y279102D01*
X545443D01*
Y279293D01*
X545411D01*
Y279451D01*
X545379D01*
Y279642D01*
X545347D01*
Y279800D01*
X545316D01*
Y279991D01*
X545284D01*
Y280181D01*
X545252D01*
Y280340D01*
X545221D01*
Y280530D01*
X545189D01*
Y280689D01*
X545157D01*
Y280879D01*
X545125D01*
Y281069D01*
X545094D01*
Y281228D01*
X545062D01*
Y281418D01*
X545030D01*
Y281609D01*
X544999D01*
Y281767D01*
X544967D01*
Y281958D01*
X544935D01*
Y282116D01*
X544903D01*
Y282307D01*
X544872D01*
Y282497D01*
X544840D01*
Y282656D01*
X544808D01*
Y282846D01*
X544776D01*
Y283005D01*
X544745D01*
Y283195D01*
X544713D01*
Y283385D01*
X544681D01*
Y283544D01*
X544650D01*
Y283734D01*
X544618D01*
Y283893D01*
X544586D01*
Y284084D01*
X544554D01*
Y284274D01*
X544522D01*
Y284433D01*
X544491D01*
Y284623D01*
X544459D01*
Y284813D01*
X544427D01*
Y284972D01*
X544396D01*
Y285162D01*
X544364D01*
Y285321D01*
X544332D01*
Y285448D01*
X544301D01*
Y285511D01*
X544269D01*
Y285543D01*
X544237D01*
Y285575D01*
X544205D01*
Y285607D01*
X544142D01*
Y285638D01*
X544078D01*
Y285670D01*
X543031D01*
Y285702D01*
X543000D01*
Y285733D01*
X542968D01*
Y285765D01*
X542936D01*
Y285829D01*
X542904D01*
Y285860D01*
X542873D01*
Y285924D01*
X542841D01*
Y285956D01*
X542809D01*
Y286051D01*
X542777D01*
Y286209D01*
X542746D01*
Y286431D01*
X542714D01*
Y286653D01*
X542682D01*
Y286844D01*
X542651D01*
Y287034D01*
X542619D01*
Y287193D01*
X542587D01*
Y287351D01*
X542555D01*
Y287478D01*
X542524D01*
Y287637D01*
X542492D01*
Y287764D01*
X542460D01*
Y287923D01*
X542492D01*
Y287954D01*
X545823D01*
Y287923D01*
X545855D01*
Y287891D01*
X545887D01*
Y287827D01*
X545919D01*
Y287764D01*
X545950D01*
Y287701D01*
X545982D01*
Y287637D01*
X546014D01*
Y287574D01*
X546045D01*
Y287510D01*
X546077D01*
Y287478D01*
X546109D01*
Y287415D01*
X546141D01*
Y287351D01*
X546172D01*
Y287288D01*
X546204D01*
Y287225D01*
X546236D01*
Y287161D01*
X546268D01*
Y287098D01*
X546299D01*
Y287034D01*
X546331D01*
Y287002D01*
X546363D01*
Y286939D01*
X546394D01*
Y286876D01*
X546426D01*
Y286812D01*
X546458D01*
Y286749D01*
X546490D01*
Y286685D01*
X546521D01*
Y286622D01*
X546553D01*
Y286558D01*
X546585D01*
Y286495D01*
X546617D01*
Y286431D01*
X546648D01*
Y286368D01*
X546680D01*
Y286304D01*
X546712D01*
Y286273D01*
X546743D01*
Y286209D01*
X546775D01*
Y286146D01*
X546807D01*
Y286082D01*
X546839D01*
Y286019D01*
X546870D01*
Y285956D01*
X546902D01*
Y285892D01*
X546934D01*
Y285829D01*
X546966D01*
Y285765D01*
X546997D01*
Y285702D01*
X547029D01*
Y285638D01*
X547061D01*
Y285575D01*
X547092D01*
Y285511D01*
X547124D01*
Y285480D01*
X547156D01*
Y285416D01*
X547188D01*
Y285384D01*
X547219D01*
Y285353D01*
X547251D01*
Y285289D01*
X547283D01*
Y285258D01*
X547315D01*
Y285226D01*
X547346D01*
Y285162D01*
X547378D01*
Y285131D01*
X547410D01*
Y285067D01*
X547441D01*
Y285004D01*
X547473D01*
Y284940D01*
X547505D01*
Y284877D01*
X547537D01*
Y284782D01*
X547568D01*
Y284686D01*
X547600D01*
Y284623D01*
X547632D01*
Y284528D01*
X547664D01*
Y284433D01*
X547695D01*
Y284369D01*
X547727D01*
Y284306D01*
X547759D01*
Y284242D01*
X547790D01*
Y284179D01*
X547822D01*
Y284115D01*
X547854D01*
Y284052D01*
X547886D01*
Y283988D01*
X547917D01*
Y283925D01*
X547949D01*
Y283861D01*
X547981D01*
Y283830D01*
X548013D01*
Y283766D01*
X548044D01*
Y283703D01*
X548076D01*
Y283639D01*
X548108D01*
Y283576D01*
X548139D01*
Y283512D01*
X548171D01*
Y283449D01*
X548203D01*
Y283385D01*
X548235D01*
Y283322D01*
X548266D01*
Y283259D01*
X548298D01*
Y283195D01*
X548330D01*
Y283132D01*
X548362D01*
Y283068D01*
X548393D01*
Y283005D01*
X548425D01*
Y282941D01*
X548457D01*
Y282878D01*
X548489D01*
Y282846D01*
X548520D01*
Y282783D01*
X548552D01*
Y282719D01*
X548584D01*
Y282656D01*
X548615D01*
Y282592D01*
X548647D01*
Y282529D01*
X548679D01*
Y282465D01*
X548711D01*
Y282402D01*
X548742D01*
Y282339D01*
X548774D01*
Y282275D01*
X548806D01*
Y282212D01*
X548838D01*
Y282148D01*
X548869D01*
Y282116D01*
X548901D01*
Y282053D01*
X548933D01*
Y281990D01*
X548965D01*
Y281926D01*
X548996D01*
Y281863D01*
X549028D01*
Y281799D01*
X549060D01*
Y281736D01*
X549091D01*
Y281672D01*
X549123D01*
Y281609D01*
X549155D01*
Y281545D01*
X549187D01*
Y281514D01*
X549218D01*
Y281450D01*
X549250D01*
Y281387D01*
X549282D01*
Y281323D01*
X549313D01*
Y281260D01*
X549345D01*
Y281196D01*
X549377D01*
Y281133D01*
X549409D01*
Y281069D01*
X549440D01*
Y281006D01*
X549472D01*
Y280974D01*
X549504D01*
Y280911D01*
X549536D01*
Y280847D01*
X549567D01*
Y280784D01*
X549599D01*
Y280720D01*
X549631D01*
Y280657D01*
X549662D01*
Y280593D01*
X549694D01*
Y280530D01*
X549726D01*
Y280498D01*
X549758D01*
Y280435D01*
X549789D01*
Y280371D01*
X549821D01*
Y280308D01*
X549853D01*
Y280244D01*
X549885D01*
Y280181D01*
X549916D01*
Y280118D01*
X549948D01*
Y280086D01*
X549980D01*
Y280022D01*
X550011D01*
Y279959D01*
X550043D01*
Y279895D01*
X550075D01*
Y279832D01*
X550107D01*
Y279768D01*
X550138D01*
Y279705D01*
X550170D01*
Y279673D01*
X550202D01*
Y279610D01*
X550234D01*
Y279546D01*
X550265D01*
Y279483D01*
X550297D01*
Y279419D01*
X550329D01*
Y279356D01*
X550360D01*
Y279293D01*
X550392D01*
Y279261D01*
X550424D01*
Y279197D01*
X550456D01*
Y279134D01*
X550487D01*
Y279070D01*
X550519D01*
Y279007D01*
X550551D01*
Y278944D01*
X550583D01*
Y278880D01*
X550614D01*
Y278817D01*
X550646D01*
Y278785D01*
X550678D01*
Y278721D01*
X550709D01*
Y278658D01*
X550741D01*
Y278595D01*
X550773D01*
Y278531D01*
X550805D01*
Y278468D01*
X550836D01*
Y278404D01*
X550868D01*
Y278341D01*
X550900D01*
Y278277D01*
X550932D01*
Y278214D01*
X550963D01*
Y278150D01*
X550995D01*
Y278055D01*
X551027D01*
Y277992D01*
X551058D01*
Y277928D01*
X551090D01*
Y277865D01*
X551122D01*
Y277801D01*
X551154D01*
Y277738D01*
X551185D01*
Y277675D01*
X551217D01*
Y277579D01*
X551249D01*
Y277516D01*
X551281D01*
Y277484D01*
X551376D01*
Y277611D01*
X551407D01*
Y277801D01*
X551439D01*
Y278024D01*
X551471D01*
Y278214D01*
X551503D01*
Y278404D01*
X551534D01*
Y278595D01*
X551566D01*
Y278817D01*
X551598D01*
Y279007D01*
X551630D01*
Y279197D01*
X551661D01*
Y279419D01*
X551693D01*
Y279610D01*
X551725D01*
Y279800D01*
X551756D01*
Y280022D01*
X551788D01*
Y280213D01*
X551820D01*
Y280403D01*
X551852D01*
Y280593D01*
X551883D01*
Y280816D01*
X551915D01*
Y281006D01*
X551947D01*
Y281196D01*
X551979D01*
Y281418D01*
X552010D01*
Y281609D01*
X552042D01*
Y281799D01*
X552074D01*
Y282021D01*
X552106D01*
Y282212D01*
X552137D01*
Y282402D01*
X552169D01*
Y282624D01*
X552201D01*
Y282814D01*
X552232D01*
Y283005D01*
X552264D01*
Y283195D01*
X552296D01*
Y283417D01*
X552328D01*
Y283608D01*
X552359D01*
Y283798D01*
X552391D01*
Y284020D01*
X552423D01*
Y284210D01*
X552455D01*
Y284401D01*
X552486D01*
Y284623D01*
X552518D01*
Y284813D01*
X552550D01*
Y285004D01*
X552581D01*
Y285226D01*
X552613D01*
Y285416D01*
X552645D01*
Y285607D01*
X552677D01*
Y285797D01*
X552708D01*
Y286019D01*
X552740D01*
Y286209D01*
X552772D01*
Y286400D01*
X552804D01*
Y286622D01*
X552835D01*
Y286812D01*
X552867D01*
Y287002D01*
X552899D01*
Y287225D01*
X552930D01*
Y287415D01*
X552962D01*
Y287605D01*
X552994D01*
Y287827D01*
X553026D01*
Y287923D01*
X553057D01*
Y287954D01*
X556357D01*
Y287923D01*
D02*
G37*
G36*
X180969Y125563D02*
X181125D01*
Y125484D01*
X181281D01*
Y125406D01*
X181438D01*
Y125328D01*
X181516D01*
Y125250D01*
X181594D01*
Y125172D01*
X181672D01*
Y125094D01*
X181750D01*
Y124937D01*
X181828D01*
Y124781D01*
X181906D01*
Y124703D01*
X181984D01*
Y124547D01*
X182062D01*
Y124391D01*
X182141D01*
Y124234D01*
X182219D01*
Y124078D01*
X182297D01*
Y123922D01*
X182375D01*
Y123766D01*
X182453D01*
Y123609D01*
X182531D01*
Y123453D01*
X182609D01*
Y123297D01*
X182687D01*
Y123141D01*
X182766D01*
Y122984D01*
X182844D01*
Y122906D01*
X182922D01*
Y122750D01*
X183000D01*
Y122594D01*
X183078D01*
Y122438D01*
X183156D01*
Y122281D01*
X183234D01*
Y122125D01*
X183312D01*
Y121969D01*
X183391D01*
Y121812D01*
X183469D01*
Y121656D01*
X183547D01*
Y121500D01*
X183625D01*
Y121344D01*
X183703D01*
Y121266D01*
X183781D01*
Y121109D01*
X183859D01*
Y120953D01*
X183938D01*
Y120797D01*
X184016D01*
Y120641D01*
X184094D01*
Y120484D01*
X184172D01*
Y120328D01*
X184250D01*
Y120172D01*
X184328D01*
Y120016D01*
X184406D01*
Y119859D01*
X184484D01*
Y119703D01*
X184563D01*
Y119625D01*
X184641D01*
Y119469D01*
X184719D01*
Y119313D01*
X184797D01*
Y119156D01*
X184875D01*
Y119000D01*
X184953D01*
Y118844D01*
X185031D01*
Y118687D01*
X185109D01*
Y118531D01*
X185187D01*
Y118375D01*
X185266D01*
Y118219D01*
X185344D01*
Y118062D01*
X185422D01*
Y117984D01*
X185500D01*
Y117828D01*
X185578D01*
Y117672D01*
X185656D01*
Y117516D01*
X185734D01*
Y117359D01*
X185812D01*
Y117203D01*
X185891D01*
Y117047D01*
X185969D01*
Y116891D01*
X186047D01*
Y116734D01*
X186125D01*
Y116578D01*
X186203D01*
Y116422D01*
X186281D01*
Y116266D01*
X186359D01*
Y116188D01*
X186437D01*
Y116031D01*
X186516D01*
Y115875D01*
X186594D01*
Y115719D01*
X186672D01*
Y115562D01*
X186750D01*
Y115406D01*
X186828D01*
Y115250D01*
X186906D01*
Y115094D01*
X186984D01*
Y114937D01*
X187063D01*
Y114781D01*
X187141D01*
Y114625D01*
X187219D01*
Y114547D01*
X187297D01*
Y114391D01*
X187375D01*
Y114234D01*
X187453D01*
Y114078D01*
X187531D01*
Y113922D01*
X187609D01*
Y113766D01*
X187688D01*
Y113609D01*
X187766D01*
Y113453D01*
X187844D01*
Y113297D01*
X187922D01*
Y113141D01*
X188000D01*
Y112984D01*
X188078D01*
Y112906D01*
X188156D01*
Y112750D01*
X188234D01*
Y112594D01*
X188312D01*
Y112437D01*
X188391D01*
Y112281D01*
X188469D01*
Y112125D01*
X188547D01*
Y111969D01*
X188625D01*
Y111812D01*
X188703D01*
Y111656D01*
X188781D01*
Y111500D01*
X188859D01*
Y111344D01*
X188937D01*
Y111266D01*
X189016D01*
Y111109D01*
X189094D01*
Y110953D01*
X189172D01*
Y110797D01*
X189250D01*
Y110641D01*
X189328D01*
Y110484D01*
X189406D01*
Y110328D01*
X189484D01*
Y110172D01*
X189562D01*
Y110016D01*
X189641D01*
Y109859D01*
X189719D01*
Y109703D01*
X189797D01*
Y109547D01*
X189875D01*
Y109469D01*
X189953D01*
Y109312D01*
X190031D01*
Y109156D01*
X190109D01*
Y109000D01*
X190188D01*
Y108844D01*
X190266D01*
Y108687D01*
X190344D01*
Y108531D01*
X190422D01*
Y108375D01*
X190500D01*
Y108219D01*
X190578D01*
Y108063D01*
X190656D01*
Y107906D01*
X190734D01*
Y107828D01*
X190813D01*
Y107672D01*
X190891D01*
Y107516D01*
X190969D01*
Y107359D01*
X191047D01*
Y107203D01*
X191125D01*
Y107047D01*
X191203D01*
Y106891D01*
X191281D01*
Y106734D01*
X191359D01*
Y106578D01*
X191437D01*
Y106422D01*
X191516D01*
Y106266D01*
X191594D01*
Y106187D01*
X191672D01*
Y106031D01*
X191750D01*
Y105875D01*
X191828D01*
Y105719D01*
X191906D01*
Y105562D01*
X191984D01*
Y105406D01*
X192062D01*
Y105250D01*
X192141D01*
Y105094D01*
X192219D01*
Y104938D01*
X192297D01*
Y104781D01*
X192375D01*
Y104625D01*
X192453D01*
Y104469D01*
X192531D01*
Y104391D01*
X192609D01*
Y104234D01*
X192687D01*
Y104078D01*
X192766D01*
Y103922D01*
X192844D01*
Y103766D01*
X192922D01*
Y103609D01*
X193000D01*
Y103453D01*
X193078D01*
Y103297D01*
X193156D01*
Y103141D01*
X193234D01*
Y102984D01*
X193313D01*
Y102828D01*
X193391D01*
Y102750D01*
X193469D01*
Y102594D01*
X193547D01*
Y102437D01*
X193625D01*
Y102281D01*
X193703D01*
Y102125D01*
X193781D01*
Y101969D01*
X193859D01*
Y101813D01*
X193938D01*
Y101656D01*
X194016D01*
Y101500D01*
X194094D01*
Y101344D01*
X194172D01*
Y101188D01*
X194250D01*
Y101109D01*
X194328D01*
Y100953D01*
X194406D01*
Y100797D01*
X194484D01*
Y100641D01*
X194562D01*
Y100484D01*
X194641D01*
Y100328D01*
X194719D01*
Y100172D01*
X194797D01*
Y100016D01*
X194875D01*
Y99859D01*
X194953D01*
Y99703D01*
X195031D01*
Y99547D01*
X195109D01*
Y99469D01*
X195187D01*
Y99313D01*
X195266D01*
Y99156D01*
X195344D01*
Y99000D01*
X195422D01*
Y98844D01*
X195500D01*
Y98687D01*
X195578D01*
Y98531D01*
X195656D01*
Y98375D01*
X195734D01*
Y98219D01*
X195812D01*
Y98062D01*
X195891D01*
Y97906D01*
X195969D01*
Y97750D01*
X196047D01*
Y97672D01*
X196125D01*
Y97516D01*
X196203D01*
Y97359D01*
X196281D01*
Y97203D01*
X196359D01*
Y97047D01*
X196438D01*
Y96891D01*
X196516D01*
Y96734D01*
X196594D01*
Y96578D01*
X196672D01*
Y96422D01*
X196750D01*
Y96266D01*
X196828D01*
Y96109D01*
X196906D01*
Y96031D01*
X196984D01*
Y95875D01*
X197063D01*
Y95719D01*
X197141D01*
Y95562D01*
X197219D01*
Y95406D01*
X197297D01*
Y95250D01*
X197375D01*
Y95094D01*
X197453D01*
Y94937D01*
X197531D01*
Y94781D01*
X197609D01*
Y94625D01*
X197687D01*
Y94469D01*
X197766D01*
Y94391D01*
X197844D01*
Y94234D01*
X197922D01*
Y94078D01*
X198000D01*
Y93922D01*
X198078D01*
Y93766D01*
X198156D01*
Y93609D01*
X198234D01*
Y93453D01*
X198312D01*
Y93297D01*
X198391D01*
Y93141D01*
X198469D01*
Y92984D01*
X198547D01*
Y92828D01*
X198625D01*
Y92750D01*
X198703D01*
Y92594D01*
X198781D01*
Y92437D01*
X198859D01*
Y92281D01*
X198937D01*
Y92125D01*
X199016D01*
Y91969D01*
X199094D01*
Y91812D01*
X199172D01*
Y91656D01*
X199250D01*
Y91500D01*
X199328D01*
Y91344D01*
X199406D01*
Y91188D01*
X199484D01*
Y91031D01*
X199563D01*
Y90953D01*
X199641D01*
Y90797D01*
X199719D01*
Y90641D01*
X199797D01*
Y90484D01*
X199875D01*
Y90328D01*
X199953D01*
Y90172D01*
X200031D01*
Y90016D01*
X200109D01*
Y89859D01*
X200187D01*
Y89703D01*
X200266D01*
Y89547D01*
X200344D01*
Y89391D01*
X200422D01*
Y89156D01*
X200500D01*
Y88531D01*
X200422D01*
Y88297D01*
X200344D01*
Y88141D01*
X200266D01*
Y87984D01*
X200187D01*
Y87906D01*
X200109D01*
Y87750D01*
X199953D01*
Y87672D01*
X199875D01*
Y87594D01*
X199797D01*
Y87516D01*
X199641D01*
Y87437D01*
X199406D01*
Y87359D01*
X161594D01*
Y87437D01*
X161359D01*
Y87516D01*
X161203D01*
Y87594D01*
X161125D01*
Y87672D01*
X161047D01*
Y87750D01*
X160891D01*
Y87906D01*
X160812D01*
Y87984D01*
X160734D01*
Y88141D01*
X160656D01*
Y88297D01*
X160578D01*
Y88531D01*
X160500D01*
Y89156D01*
X160578D01*
Y89391D01*
X160656D01*
Y89547D01*
X160734D01*
Y89703D01*
X160812D01*
Y89859D01*
X160891D01*
Y90016D01*
X160969D01*
Y90172D01*
X161047D01*
Y90328D01*
X161125D01*
Y90484D01*
X161203D01*
Y90641D01*
X161281D01*
Y90797D01*
X161359D01*
Y90953D01*
X161437D01*
Y91031D01*
X161516D01*
Y91188D01*
X161594D01*
Y91344D01*
X161672D01*
Y91500D01*
X161750D01*
Y91656D01*
X161828D01*
Y91812D01*
X161906D01*
Y91969D01*
X161984D01*
Y92125D01*
X162063D01*
Y92281D01*
X162141D01*
Y92437D01*
X162219D01*
Y92594D01*
X162297D01*
Y92750D01*
X162375D01*
Y92828D01*
X162453D01*
Y92984D01*
X162531D01*
Y93141D01*
X162609D01*
Y93297D01*
X162688D01*
Y93453D01*
X162766D01*
Y93609D01*
X162844D01*
Y93766D01*
X162922D01*
Y93922D01*
X163000D01*
Y94078D01*
X163078D01*
Y94234D01*
X163156D01*
Y94391D01*
X163234D01*
Y94469D01*
X163312D01*
Y94625D01*
X163391D01*
Y94781D01*
X163469D01*
Y94937D01*
X163547D01*
Y95094D01*
X163625D01*
Y95250D01*
X163703D01*
Y95406D01*
X163781D01*
Y95562D01*
X163859D01*
Y95719D01*
X163937D01*
Y95875D01*
X164016D01*
Y96031D01*
X164094D01*
Y96109D01*
X164172D01*
Y96266D01*
X164250D01*
Y96422D01*
X164328D01*
Y96578D01*
X164406D01*
Y96734D01*
X164484D01*
Y96891D01*
X164562D01*
Y97047D01*
X164641D01*
Y97203D01*
X164719D01*
Y97359D01*
X164797D01*
Y97516D01*
X164875D01*
Y97672D01*
X164953D01*
Y97750D01*
X165031D01*
Y97906D01*
X165109D01*
Y98062D01*
X165188D01*
Y98219D01*
X165266D01*
Y98375D01*
X165344D01*
Y98531D01*
X165422D01*
Y98687D01*
X165500D01*
Y98844D01*
X165578D01*
Y99000D01*
X165656D01*
Y99156D01*
X165734D01*
Y99313D01*
X165813D01*
Y99469D01*
X165891D01*
Y99547D01*
X165969D01*
Y99703D01*
X166047D01*
Y99859D01*
X166125D01*
Y100016D01*
X166203D01*
Y100172D01*
X166281D01*
Y100328D01*
X166359D01*
Y100484D01*
X166437D01*
Y100641D01*
X166516D01*
Y100797D01*
X166594D01*
Y100953D01*
X166672D01*
Y101109D01*
X166750D01*
Y101188D01*
X166828D01*
Y101344D01*
X166906D01*
Y101500D01*
X166984D01*
Y101656D01*
X167062D01*
Y101813D01*
X167141D01*
Y101969D01*
X167219D01*
Y102125D01*
X167297D01*
Y102281D01*
X167375D01*
Y102437D01*
X167453D01*
Y102594D01*
X167531D01*
Y102750D01*
X167609D01*
Y102828D01*
X167687D01*
Y102984D01*
X167766D01*
Y103141D01*
X167844D01*
Y103297D01*
X167922D01*
Y103453D01*
X168000D01*
Y103609D01*
X168078D01*
Y103766D01*
X168156D01*
Y103922D01*
X168234D01*
Y104078D01*
X168313D01*
Y104234D01*
X168391D01*
Y104391D01*
X168469D01*
Y104547D01*
X168547D01*
Y104625D01*
X168625D01*
Y104781D01*
X168703D01*
Y104938D01*
X168781D01*
Y105094D01*
X168859D01*
Y105250D01*
X168938D01*
Y105406D01*
X169016D01*
Y105562D01*
X169094D01*
Y105719D01*
X169172D01*
Y105875D01*
X169250D01*
Y106031D01*
X169328D01*
Y106187D01*
X169406D01*
Y106266D01*
X169484D01*
Y106422D01*
X169562D01*
Y106578D01*
X169641D01*
Y106734D01*
X169719D01*
Y106891D01*
X169797D01*
Y107047D01*
X169875D01*
Y107203D01*
X169953D01*
Y107359D01*
X170031D01*
Y107516D01*
X170109D01*
Y107672D01*
X170187D01*
Y107828D01*
X170266D01*
Y107906D01*
X170344D01*
Y108063D01*
X170422D01*
Y108219D01*
X170500D01*
Y108375D01*
X170578D01*
Y108531D01*
X170656D01*
Y108687D01*
X170734D01*
Y108844D01*
X170812D01*
Y109000D01*
X170891D01*
Y109156D01*
X170969D01*
Y109312D01*
X171047D01*
Y109469D01*
X171125D01*
Y109547D01*
X171203D01*
Y109703D01*
X171281D01*
Y109859D01*
X171359D01*
Y110016D01*
X171438D01*
Y110172D01*
X171516D01*
Y110328D01*
X171594D01*
Y110484D01*
X171672D01*
Y110641D01*
X171750D01*
Y110797D01*
X171828D01*
Y110953D01*
X171906D01*
Y111109D01*
X171984D01*
Y111266D01*
X172063D01*
Y111344D01*
X172141D01*
Y111500D01*
X172219D01*
Y111656D01*
X172297D01*
Y111812D01*
X172375D01*
Y111969D01*
X172453D01*
Y112125D01*
X172531D01*
Y112281D01*
X172609D01*
Y112437D01*
X172687D01*
Y112594D01*
X172766D01*
Y112750D01*
X172844D01*
Y112906D01*
X172922D01*
Y112984D01*
X173000D01*
Y113141D01*
X173078D01*
Y113297D01*
X173156D01*
Y113453D01*
X173234D01*
Y113609D01*
X173312D01*
Y113766D01*
X173391D01*
Y113922D01*
X173469D01*
Y114078D01*
X173547D01*
Y114234D01*
X173625D01*
Y114391D01*
X173703D01*
Y114547D01*
X173781D01*
Y114625D01*
X173859D01*
Y114781D01*
X173937D01*
Y114937D01*
X174016D01*
Y115094D01*
X174094D01*
Y115250D01*
X174172D01*
Y115406D01*
X174250D01*
Y115562D01*
X174328D01*
Y115719D01*
X174406D01*
Y115875D01*
X174484D01*
Y116031D01*
X174563D01*
Y116188D01*
X174641D01*
Y116266D01*
X174719D01*
Y116422D01*
X174797D01*
Y116578D01*
X174875D01*
Y116734D01*
X174953D01*
Y116891D01*
X175031D01*
Y117047D01*
X175109D01*
Y117203D01*
X175188D01*
Y117359D01*
X175266D01*
Y117516D01*
X175344D01*
Y117672D01*
X175422D01*
Y117828D01*
X175500D01*
Y117984D01*
X175578D01*
Y118062D01*
X175656D01*
Y118219D01*
X175734D01*
Y118375D01*
X175812D01*
Y118531D01*
X175891D01*
Y118687D01*
X175969D01*
Y118844D01*
X176047D01*
Y119000D01*
X176125D01*
Y119156D01*
X176203D01*
Y119313D01*
X176281D01*
Y119469D01*
X176359D01*
Y119625D01*
X176437D01*
Y119703D01*
X176516D01*
Y119859D01*
X176594D01*
Y120016D01*
X176672D01*
Y120172D01*
X176750D01*
Y120328D01*
X176828D01*
Y120484D01*
X176906D01*
Y120641D01*
X176984D01*
Y120797D01*
X177062D01*
Y120953D01*
X177141D01*
Y121109D01*
X177219D01*
Y121266D01*
X177297D01*
Y121344D01*
X177375D01*
Y121500D01*
X177453D01*
Y121656D01*
X177531D01*
Y121812D01*
X177609D01*
Y121969D01*
X177688D01*
Y122125D01*
X177766D01*
Y122281D01*
X177844D01*
Y122438D01*
X177922D01*
Y122594D01*
X178000D01*
Y122750D01*
X178078D01*
Y122906D01*
X178156D01*
Y122984D01*
X178234D01*
Y123141D01*
X178313D01*
Y123297D01*
X178391D01*
Y123453D01*
X178469D01*
Y123609D01*
X178547D01*
Y123766D01*
X178625D01*
Y123922D01*
X178703D01*
Y124078D01*
X178781D01*
Y124234D01*
X178859D01*
Y124391D01*
X178937D01*
Y124547D01*
X179016D01*
Y124703D01*
X179094D01*
Y124781D01*
X179172D01*
Y124937D01*
X179250D01*
Y125094D01*
X179328D01*
Y125172D01*
X179406D01*
Y125250D01*
X179484D01*
Y125328D01*
X179562D01*
Y125406D01*
X179719D01*
Y125484D01*
X179875D01*
Y125563D01*
X180031D01*
Y125641D01*
X180969D01*
Y125563D01*
D02*
G37*
%LPC*%
G36*
X499469Y285638D02*
X499247D01*
Y285607D01*
X496138D01*
Y285638D01*
X495789D01*
Y285607D01*
X495757D01*
Y285575D01*
X495725D01*
Y285321D01*
X495757D01*
Y285162D01*
X495789D01*
Y284972D01*
X495820D01*
Y284813D01*
X495852D01*
Y284623D01*
X495884D01*
Y284464D01*
X495916D01*
Y284274D01*
X495947D01*
Y284115D01*
X495979D01*
Y283925D01*
X496011D01*
Y283766D01*
X496042D01*
Y283576D01*
X496074D01*
Y283417D01*
X496106D01*
Y283259D01*
X496074D01*
Y283227D01*
X495662D01*
Y283259D01*
X494520D01*
Y283290D01*
X494456D01*
Y283322D01*
X494424D01*
Y283354D01*
X494393D01*
Y283385D01*
X494361D01*
Y283449D01*
X494329D01*
Y283576D01*
X494297D01*
Y283766D01*
X494266D01*
Y283957D01*
X494234D01*
Y284115D01*
X494202D01*
Y284306D01*
X494171D01*
Y284464D01*
X494139D01*
Y284655D01*
X494107D01*
Y284845D01*
X494075D01*
Y285004D01*
X494044D01*
Y285194D01*
X494012D01*
Y285353D01*
X493980D01*
Y285511D01*
X493948D01*
Y285543D01*
X493885D01*
Y285575D01*
X492870D01*
Y285543D01*
X492838D01*
Y285511D01*
X492806D01*
Y285480D01*
X492774D01*
Y285258D01*
X492806D01*
Y285099D01*
X492838D01*
Y284940D01*
X492870D01*
Y284782D01*
X492901D01*
Y284623D01*
X492933D01*
Y284528D01*
X492965D01*
Y284337D01*
X492997D01*
Y284147D01*
X493028D01*
Y283957D01*
X493060D01*
Y283798D01*
X493092D01*
Y283608D01*
X493123D01*
Y283417D01*
X493155D01*
Y283227D01*
X493187D01*
Y283036D01*
X493219D01*
Y282878D01*
X493250D01*
Y282687D01*
X493282D01*
Y282497D01*
X493314D01*
Y282339D01*
X493346D01*
Y282148D01*
X493377D01*
Y281958D01*
X493409D01*
Y281799D01*
X493441D01*
Y281609D01*
X493472D01*
Y281418D01*
X493504D01*
Y281260D01*
X493536D01*
Y281069D01*
X493568D01*
Y280879D01*
X493599D01*
Y280720D01*
X493631D01*
Y280530D01*
X493663D01*
Y280371D01*
X493695D01*
Y280181D01*
X493726D01*
Y280022D01*
X493758D01*
Y279832D01*
X493790D01*
Y279673D01*
X493821D01*
Y279483D01*
X493853D01*
Y279293D01*
X493885D01*
Y279134D01*
X493917D01*
Y278944D01*
X493948D01*
Y278785D01*
X493980D01*
Y278626D01*
X494012D01*
Y278436D01*
X494044D01*
Y278277D01*
X494075D01*
Y278119D01*
X494107D01*
Y277928D01*
X494139D01*
Y277770D01*
X494171D01*
Y277611D01*
X494202D01*
Y277421D01*
X494234D01*
Y277262D01*
X494266D01*
Y277072D01*
X494297D01*
Y276913D01*
X494329D01*
Y276723D01*
X494361D01*
Y276532D01*
X494393D01*
Y276374D01*
X494424D01*
Y276183D01*
X494456D01*
Y275993D01*
X494488D01*
Y275803D01*
X494520D01*
Y275612D01*
X494551D01*
Y275422D01*
X494583D01*
Y275200D01*
X494615D01*
Y275009D01*
X494646D01*
Y274787D01*
X494678D01*
Y274597D01*
X494710D01*
Y274375D01*
X494742D01*
Y274248D01*
X494773D01*
Y274216D01*
X501309D01*
Y274248D01*
X501500D01*
Y274280D01*
X501626D01*
Y274311D01*
X501690D01*
Y274343D01*
X501753D01*
Y274375D01*
X501785D01*
Y274407D01*
X501817D01*
Y274438D01*
X501849D01*
Y274470D01*
X501880D01*
Y274502D01*
X501912D01*
Y274533D01*
Y274565D01*
X501944D01*
Y274660D01*
X501975D01*
Y275168D01*
X501944D01*
Y275358D01*
X501912D01*
Y275517D01*
X501880D01*
Y275707D01*
X501849D01*
Y275898D01*
X501817D01*
Y276088D01*
X501785D01*
Y276247D01*
X501753D01*
Y276437D01*
X501722D01*
Y276627D01*
X501690D01*
Y276818D01*
X501658D01*
Y277008D01*
X501626D01*
Y277167D01*
X501595D01*
Y277357D01*
X501563D01*
Y277548D01*
X501531D01*
Y277738D01*
X501500D01*
Y277928D01*
X501468D01*
Y278087D01*
X501436D01*
Y278277D01*
X501404D01*
Y278468D01*
X501373D01*
Y278658D01*
X501341D01*
Y278848D01*
X501309D01*
Y279007D01*
X501277D01*
Y279197D01*
X501246D01*
Y279388D01*
X501214D01*
Y279578D01*
X501182D01*
Y279737D01*
X501151D01*
Y279927D01*
X501119D01*
Y280118D01*
X501087D01*
Y280308D01*
X501055D01*
Y280498D01*
X501024D01*
Y280657D01*
X500992D01*
Y280847D01*
X500960D01*
Y281006D01*
X500928D01*
Y281196D01*
X500897D01*
Y281387D01*
X500865D01*
Y281545D01*
X500833D01*
Y281736D01*
X500802D01*
Y281894D01*
X500770D01*
Y282053D01*
X500738D01*
Y282243D01*
X500706D01*
Y282402D01*
X500675D01*
Y282561D01*
X500643D01*
Y282751D01*
X500611D01*
Y282910D01*
X500580D01*
Y283068D01*
X500548D01*
Y283227D01*
X500516D01*
Y283385D01*
X500484D01*
Y283544D01*
X500453D01*
Y283703D01*
X500421D01*
Y283861D01*
X500389D01*
Y284020D01*
X500357D01*
Y284179D01*
X500326D01*
Y284306D01*
X500294D01*
Y284464D01*
X500262D01*
Y284623D01*
X500231D01*
Y284782D01*
X500199D01*
Y284940D01*
X500167D01*
Y285035D01*
X500135D01*
Y285131D01*
X500104D01*
Y285194D01*
X500072D01*
Y285258D01*
X500040D01*
Y285289D01*
X500008D01*
Y285353D01*
X499977D01*
Y285384D01*
X499945D01*
Y285416D01*
X499913D01*
Y285448D01*
X499882D01*
Y285480D01*
X499850D01*
Y285511D01*
X499786D01*
Y285543D01*
X499723D01*
Y285575D01*
X499659D01*
Y285607D01*
X499469D01*
Y285638D01*
D02*
G37*
G36*
X526311Y280657D02*
X521647D01*
Y280593D01*
X521615D01*
Y280498D01*
X521583D01*
Y280403D01*
X521552D01*
Y280308D01*
X521520D01*
Y280213D01*
X521488D01*
Y280149D01*
Y280118D01*
X521456D01*
Y280022D01*
X521425D01*
Y279927D01*
X521393D01*
Y279832D01*
X521361D01*
Y279737D01*
X521329D01*
Y279642D01*
X521298D01*
Y279515D01*
X521266D01*
Y279419D01*
X521234D01*
Y279324D01*
X521203D01*
Y279229D01*
X521171D01*
Y279134D01*
X521139D01*
Y279039D01*
X521107D01*
Y278944D01*
X521076D01*
Y278848D01*
X521044D01*
Y278753D01*
X521012D01*
Y278658D01*
X520981D01*
Y278563D01*
X520949D01*
Y278436D01*
X520917D01*
Y278341D01*
X520885D01*
Y278246D01*
X520854D01*
Y278150D01*
X520822D01*
Y278055D01*
X520790D01*
Y277960D01*
X520758D01*
Y277865D01*
X520727D01*
Y277770D01*
X520695D01*
Y277675D01*
X520663D01*
Y277579D01*
X520632D01*
Y277389D01*
X520663D01*
Y277357D01*
X520695D01*
Y277294D01*
X520727D01*
Y277262D01*
X520758D01*
Y277199D01*
X520790D01*
Y277167D01*
X520822D01*
Y277135D01*
X520854D01*
Y277072D01*
X520885D01*
Y277040D01*
X520917D01*
Y277008D01*
X520949D01*
Y276945D01*
X520981D01*
Y276913D01*
X521012D01*
Y276881D01*
X521044D01*
Y276818D01*
X521076D01*
Y276786D01*
X521107D01*
Y276723D01*
X521139D01*
Y276691D01*
X521171D01*
Y276659D01*
X521203D01*
Y276596D01*
X521234D01*
Y276564D01*
X521266D01*
Y276532D01*
X521298D01*
Y276469D01*
X521329D01*
Y276437D01*
X521361D01*
Y276374D01*
X521393D01*
Y276342D01*
X521425D01*
Y276310D01*
X521456D01*
Y276247D01*
X521488D01*
Y276215D01*
X521520D01*
Y276183D01*
X521552D01*
Y276120D01*
X521583D01*
Y276088D01*
X521615D01*
Y276025D01*
X521647D01*
Y275993D01*
X521678D01*
Y275961D01*
X521710D01*
Y275898D01*
X521742D01*
Y275866D01*
X521774D01*
Y275834D01*
X521805D01*
Y275771D01*
X521837D01*
Y275739D01*
X521869D01*
Y275676D01*
X521901D01*
Y275644D01*
X521932D01*
Y275612D01*
X521964D01*
Y275549D01*
X521996D01*
Y275517D01*
X522027D01*
Y275485D01*
X522059D01*
Y275422D01*
X522091D01*
Y275390D01*
X522123D01*
Y275327D01*
X522154D01*
Y275295D01*
X522186D01*
Y275263D01*
X522218D01*
Y275200D01*
X522250D01*
Y275168D01*
X522281D01*
Y275136D01*
X522313D01*
Y275073D01*
X522345D01*
Y275041D01*
X522376D01*
Y274978D01*
X522408D01*
Y274946D01*
X522440D01*
Y274914D01*
X522472D01*
Y274851D01*
X522503D01*
Y274819D01*
X522535D01*
Y274787D01*
X522567D01*
Y274724D01*
X522599D01*
Y274692D01*
X522630D01*
Y274629D01*
X522662D01*
Y274597D01*
X522694D01*
Y274565D01*
X522725D01*
Y274502D01*
X522757D01*
Y274470D01*
X522789D01*
Y274438D01*
X522821D01*
Y274375D01*
X522853D01*
Y274343D01*
X522884D01*
Y274280D01*
X522916D01*
Y274248D01*
X522948D01*
Y274216D01*
X527421D01*
Y274248D01*
X527453D01*
Y274311D01*
X527485D01*
Y274407D01*
X527516D01*
Y274533D01*
X527548D01*
Y274629D01*
X527580D01*
Y274724D01*
X527612D01*
Y274819D01*
X527643D01*
Y274914D01*
X527675D01*
Y275009D01*
X527707D01*
Y275105D01*
X527739D01*
Y275200D01*
X527770D01*
Y275295D01*
X527802D01*
Y275390D01*
X527834D01*
Y275485D01*
X527865D01*
Y275581D01*
X527897D01*
Y275676D01*
X527929D01*
Y275771D01*
X527961D01*
Y275898D01*
X527992D01*
Y275993D01*
X528024D01*
Y276088D01*
X528056D01*
Y276183D01*
X528088D01*
Y276278D01*
X528119D01*
Y276374D01*
X528151D01*
Y276469D01*
X528183D01*
Y276564D01*
X528215D01*
Y276659D01*
X528246D01*
Y276754D01*
X528278D01*
Y276850D01*
X528310D01*
Y276945D01*
X528341D01*
Y277040D01*
X528373D01*
Y277135D01*
X528405D01*
Y277262D01*
X528437D01*
Y277357D01*
X528468D01*
Y277452D01*
X528500D01*
Y277548D01*
X528532D01*
Y277643D01*
X528500D01*
Y277675D01*
X528468D01*
Y277738D01*
X528437D01*
Y277770D01*
X528405D01*
Y277801D01*
X528373D01*
Y277865D01*
X528341D01*
Y277897D01*
X528310D01*
Y277960D01*
X528278D01*
Y277992D01*
X528246D01*
Y278024D01*
X528215D01*
Y278087D01*
X528183D01*
Y278119D01*
X528151D01*
Y278150D01*
X528119D01*
Y278214D01*
X528088D01*
Y278246D01*
X528056D01*
Y278277D01*
X528024D01*
Y278341D01*
X527992D01*
Y278373D01*
X527961D01*
Y278404D01*
X527929D01*
Y278468D01*
X527897D01*
Y278499D01*
X527865D01*
Y278531D01*
X527834D01*
Y278595D01*
X527802D01*
Y278626D01*
X527770D01*
Y278690D01*
X527739D01*
Y278721D01*
X527707D01*
Y278753D01*
X527675D01*
Y278817D01*
X527643D01*
Y278848D01*
X527612D01*
Y278880D01*
X527580D01*
Y278944D01*
X527548D01*
Y278975D01*
X527516D01*
Y279007D01*
X527485D01*
Y279070D01*
X527453D01*
Y279102D01*
X527421D01*
Y279134D01*
X527389D01*
Y279197D01*
X527358D01*
Y279229D01*
X527326D01*
Y279261D01*
X527294D01*
Y279324D01*
X527263D01*
Y279356D01*
X527231D01*
Y279419D01*
X527199D01*
Y279451D01*
X527167D01*
Y279483D01*
X527136D01*
Y279546D01*
X527104D01*
Y279578D01*
X527072D01*
Y279610D01*
X527040D01*
Y279673D01*
X527009D01*
Y279705D01*
X526977D01*
Y279737D01*
X526945D01*
Y279800D01*
X526914D01*
Y279832D01*
X526882D01*
Y279864D01*
X526850D01*
Y279927D01*
X526818D01*
Y279959D01*
X526787D01*
Y279991D01*
X526755D01*
Y280054D01*
X526723D01*
Y280086D01*
X526691D01*
Y280149D01*
X526660D01*
Y280181D01*
X526628D01*
Y280213D01*
X526596D01*
Y280276D01*
X526565D01*
Y280308D01*
X526533D01*
Y280340D01*
X526501D01*
Y280403D01*
X526469D01*
Y280435D01*
X526438D01*
Y280467D01*
X526406D01*
Y280530D01*
X526374D01*
Y280562D01*
X526342D01*
Y280593D01*
X526311D01*
Y280657D01*
D02*
G37*
G36*
X537796Y276723D02*
X537669D01*
Y276691D01*
X537606D01*
Y276659D01*
X537574D01*
Y276532D01*
Y276501D01*
Y276405D01*
X537606D01*
Y276215D01*
X537638D01*
Y276056D01*
X537669D01*
Y275866D01*
X537701D01*
Y275707D01*
X537733D01*
Y275517D01*
X537765D01*
Y275358D01*
X537796D01*
Y275168D01*
X537828D01*
Y275009D01*
X537860D01*
Y274819D01*
X537891D01*
Y274660D01*
X537923D01*
Y274470D01*
X537955D01*
Y274311D01*
X537987D01*
Y274121D01*
X538018D01*
Y273962D01*
X538050D01*
Y273772D01*
X538082D01*
Y273709D01*
X538113D01*
Y273677D01*
X538145D01*
Y273645D01*
X538177D01*
Y273613D01*
X538240D01*
Y273582D01*
X540144D01*
Y273613D01*
X540810D01*
Y273645D01*
X540969D01*
Y273677D01*
X541064D01*
Y273709D01*
X541128D01*
Y273740D01*
X541191D01*
Y273772D01*
X541223D01*
Y273804D01*
X541286D01*
Y273835D01*
X541318D01*
Y273899D01*
X541350D01*
Y273931D01*
X541382D01*
Y273994D01*
X541413D01*
Y274089D01*
X541445D01*
Y274533D01*
X541413D01*
Y274724D01*
X541382D01*
Y274914D01*
X541350D01*
Y275105D01*
X541318D01*
Y275263D01*
X541286D01*
Y275422D01*
X541255D01*
Y275549D01*
X541223D01*
Y275707D01*
X541191D01*
Y275834D01*
X541159D01*
Y275993D01*
X541128D01*
Y276120D01*
X541096D01*
Y276215D01*
X541064D01*
Y276310D01*
X541033D01*
Y276342D01*
X541001D01*
Y276405D01*
X540969D01*
Y276437D01*
X540937D01*
Y276469D01*
X540906D01*
Y276501D01*
X540874D01*
Y276532D01*
X540810D01*
Y276564D01*
X540747D01*
Y276596D01*
X540684D01*
Y276627D01*
X539605D01*
Y276659D01*
X537860D01*
Y276691D01*
X537796D01*
Y276723D01*
D02*
G37*
G36*
X180578Y123766D02*
X180422D01*
Y123609D01*
X180344D01*
Y123453D01*
X180266D01*
Y123297D01*
X180187D01*
Y123141D01*
X180109D01*
Y122984D01*
X180031D01*
Y122828D01*
X179953D01*
Y122750D01*
X179875D01*
Y122594D01*
X179797D01*
Y122438D01*
X179719D01*
Y122281D01*
X179641D01*
Y122125D01*
X179562D01*
Y121969D01*
X179484D01*
Y121812D01*
X179406D01*
Y121656D01*
X179328D01*
Y121500D01*
X179250D01*
Y121344D01*
X179172D01*
Y121187D01*
X179094D01*
Y121031D01*
X179016D01*
Y120953D01*
X178937D01*
Y120797D01*
X178859D01*
Y120641D01*
X178781D01*
Y120484D01*
X178703D01*
Y120328D01*
X178625D01*
Y120172D01*
X178547D01*
Y120016D01*
X178469D01*
Y119859D01*
X178391D01*
Y119703D01*
X178313D01*
Y119547D01*
X178234D01*
Y119391D01*
X178156D01*
Y119313D01*
X178078D01*
Y119156D01*
X178000D01*
Y119000D01*
X177922D01*
Y118844D01*
X177844D01*
Y118687D01*
X177766D01*
Y118531D01*
X177688D01*
Y118375D01*
X177609D01*
Y118219D01*
X177531D01*
Y118062D01*
X177453D01*
Y117906D01*
X177375D01*
Y117750D01*
X177297D01*
Y117672D01*
X177219D01*
Y117516D01*
X177141D01*
Y117359D01*
X177062D01*
Y117203D01*
X176984D01*
Y117047D01*
X176906D01*
Y116891D01*
X176828D01*
Y116734D01*
X176750D01*
Y116578D01*
X176672D01*
Y116422D01*
X176594D01*
Y116266D01*
X176516D01*
Y116109D01*
X176437D01*
Y116031D01*
X176359D01*
Y115875D01*
X176281D01*
Y115719D01*
X176203D01*
Y115562D01*
X176125D01*
Y115406D01*
X176047D01*
Y115250D01*
X175969D01*
Y115094D01*
X175891D01*
Y114937D01*
X175812D01*
Y114781D01*
X175734D01*
Y114625D01*
X175656D01*
Y114469D01*
X175578D01*
Y114313D01*
X175500D01*
Y114234D01*
X175422D01*
Y114078D01*
X175344D01*
Y113922D01*
X175266D01*
Y113766D01*
X175188D01*
Y113609D01*
X175109D01*
Y113453D01*
X175031D01*
Y113297D01*
X174953D01*
Y113141D01*
X174875D01*
Y112984D01*
X174797D01*
Y112828D01*
X174719D01*
Y112672D01*
X174641D01*
Y112594D01*
X174563D01*
Y112437D01*
X174484D01*
Y112281D01*
X174406D01*
Y112125D01*
X174328D01*
Y111969D01*
X174250D01*
Y111812D01*
X174172D01*
Y111656D01*
X174094D01*
Y111500D01*
X174016D01*
Y111344D01*
X173937D01*
Y111188D01*
X173859D01*
Y111031D01*
X173781D01*
Y110953D01*
X173703D01*
Y110797D01*
X173625D01*
Y110641D01*
X173547D01*
Y110484D01*
X173469D01*
Y110328D01*
X173391D01*
Y110172D01*
X173312D01*
Y110016D01*
X173234D01*
Y109859D01*
X173156D01*
Y109703D01*
X173078D01*
Y109547D01*
X173000D01*
Y109391D01*
X172922D01*
Y109312D01*
X172844D01*
Y109156D01*
X172766D01*
Y109000D01*
X172687D01*
Y108844D01*
X172609D01*
Y108687D01*
X172531D01*
Y108531D01*
X172453D01*
Y108375D01*
X172375D01*
Y108219D01*
X172297D01*
Y108063D01*
X172219D01*
Y107906D01*
X172141D01*
Y107750D01*
X172063D01*
Y107594D01*
X171984D01*
Y107516D01*
X171906D01*
Y107359D01*
X171828D01*
Y107203D01*
X171750D01*
Y107047D01*
X171672D01*
Y106891D01*
X171594D01*
Y106734D01*
X171516D01*
Y106578D01*
X171438D01*
Y106422D01*
X171359D01*
Y106266D01*
X171281D01*
Y106109D01*
X171203D01*
Y105953D01*
X171125D01*
Y105875D01*
X171047D01*
Y105719D01*
X170969D01*
Y105562D01*
X170891D01*
Y105406D01*
X170812D01*
Y105250D01*
X170734D01*
Y105094D01*
X170656D01*
Y104938D01*
X170578D01*
Y104781D01*
X170500D01*
Y104625D01*
X170422D01*
Y104469D01*
X170344D01*
Y104313D01*
X170266D01*
Y104234D01*
X170187D01*
Y104078D01*
X170109D01*
Y103922D01*
X170031D01*
Y103766D01*
X169953D01*
Y103609D01*
X169875D01*
Y103453D01*
X169797D01*
Y103297D01*
X169719D01*
Y103141D01*
X169641D01*
Y102984D01*
X169562D01*
Y102828D01*
X169484D01*
Y102672D01*
X169406D01*
Y102516D01*
X169328D01*
Y102437D01*
X169250D01*
Y102281D01*
X169172D01*
Y102125D01*
X169094D01*
Y101969D01*
X169016D01*
Y101813D01*
X168938D01*
Y101656D01*
X168859D01*
Y101500D01*
X168781D01*
Y101344D01*
X168703D01*
Y101188D01*
X168625D01*
Y101031D01*
X168547D01*
Y100875D01*
X168469D01*
Y100797D01*
X168391D01*
Y100641D01*
X168313D01*
Y100484D01*
X168234D01*
Y100328D01*
X168156D01*
Y100172D01*
X168078D01*
Y100016D01*
X168000D01*
Y99859D01*
X167922D01*
Y99703D01*
X167844D01*
Y99547D01*
X167766D01*
Y99391D01*
X167687D01*
Y99234D01*
X167609D01*
Y99156D01*
X167531D01*
Y99000D01*
X167453D01*
Y98844D01*
X167375D01*
Y98687D01*
X167297D01*
Y98531D01*
X167219D01*
Y98375D01*
X167141D01*
Y98219D01*
X167062D01*
Y98062D01*
X166984D01*
Y97906D01*
X166906D01*
Y97750D01*
X166828D01*
Y97594D01*
X166750D01*
Y97516D01*
X166672D01*
Y97359D01*
X166594D01*
Y97203D01*
X166516D01*
Y97047D01*
X166437D01*
Y96891D01*
X166359D01*
Y96734D01*
X166281D01*
Y96578D01*
X166203D01*
Y96422D01*
X166125D01*
Y96266D01*
X166047D01*
Y96109D01*
X165969D01*
Y95953D01*
X165891D01*
Y95797D01*
X165813D01*
Y95719D01*
X165734D01*
Y95562D01*
X165656D01*
Y95406D01*
X165578D01*
Y95250D01*
X165500D01*
Y95094D01*
X165422D01*
Y94937D01*
X165344D01*
Y94781D01*
X165266D01*
Y94625D01*
X165188D01*
Y94469D01*
X165109D01*
Y94313D01*
X165031D01*
Y94156D01*
X164953D01*
Y94078D01*
X164875D01*
Y93922D01*
X164797D01*
Y93766D01*
X164719D01*
Y93609D01*
X164641D01*
Y93453D01*
X164562D01*
Y93297D01*
X164484D01*
Y93141D01*
X164406D01*
Y92984D01*
X164328D01*
Y92828D01*
X164250D01*
Y92672D01*
X164172D01*
Y92516D01*
X164094D01*
Y92437D01*
X164016D01*
Y92281D01*
X163937D01*
Y92125D01*
X163859D01*
Y91969D01*
X163781D01*
Y91812D01*
X163703D01*
Y91656D01*
X163625D01*
Y91500D01*
X163547D01*
Y91344D01*
X163469D01*
Y91188D01*
X163391D01*
Y91031D01*
X163312D01*
Y90875D01*
X163234D01*
Y90797D01*
X163156D01*
Y90641D01*
X163078D01*
Y90484D01*
X163000D01*
Y90328D01*
X162922D01*
Y90172D01*
X162844D01*
Y90016D01*
X162766D01*
Y89859D01*
X162688D01*
Y89703D01*
X162609D01*
Y89547D01*
X162531D01*
Y89391D01*
X162453D01*
Y89234D01*
X162375D01*
Y89078D01*
X162297D01*
Y89000D01*
X198703D01*
Y89078D01*
X198625D01*
Y89234D01*
X198547D01*
Y89391D01*
X198469D01*
Y89547D01*
X198391D01*
Y89703D01*
X198312D01*
Y89859D01*
X198234D01*
Y90016D01*
X198156D01*
Y90172D01*
X198078D01*
Y90328D01*
X198000D01*
Y90484D01*
X197922D01*
Y90641D01*
X197844D01*
Y90719D01*
X197766D01*
Y90875D01*
X197687D01*
Y91031D01*
X197609D01*
Y91188D01*
X197531D01*
Y91344D01*
X197453D01*
Y91500D01*
X197375D01*
Y91656D01*
X197297D01*
Y91812D01*
X197219D01*
Y91969D01*
X197141D01*
Y92125D01*
X197063D01*
Y92281D01*
X196984D01*
Y92437D01*
X196906D01*
Y92516D01*
X196828D01*
Y92672D01*
X196750D01*
Y92828D01*
X196672D01*
Y92984D01*
X196594D01*
Y93141D01*
X196516D01*
Y93297D01*
X196438D01*
Y93453D01*
X196359D01*
Y93609D01*
X196281D01*
Y93766D01*
X196203D01*
Y93922D01*
X196125D01*
Y94078D01*
X196047D01*
Y94156D01*
X195969D01*
Y94313D01*
X195891D01*
Y94469D01*
X195812D01*
Y94625D01*
X195734D01*
Y94781D01*
X195656D01*
Y94937D01*
X195578D01*
Y95094D01*
X195500D01*
Y95250D01*
X195422D01*
Y95406D01*
X195344D01*
Y95562D01*
X195266D01*
Y95719D01*
X195187D01*
Y95797D01*
X195109D01*
Y95953D01*
X195031D01*
Y96109D01*
X194953D01*
Y96266D01*
X194875D01*
Y96422D01*
X194797D01*
Y96578D01*
X194719D01*
Y96734D01*
X194641D01*
Y96891D01*
X194562D01*
Y97047D01*
X194484D01*
Y97203D01*
X194406D01*
Y97359D01*
X194328D01*
Y97438D01*
X194250D01*
Y97594D01*
X194172D01*
Y97750D01*
X194094D01*
Y97906D01*
X194016D01*
Y98062D01*
X193938D01*
Y98219D01*
X193859D01*
Y98375D01*
X193781D01*
Y98531D01*
X193703D01*
Y98687D01*
X193625D01*
Y98844D01*
X193547D01*
Y99000D01*
X193469D01*
Y99156D01*
X193391D01*
Y99234D01*
X193313D01*
Y99391D01*
X193234D01*
Y99547D01*
X193156D01*
Y99703D01*
X193078D01*
Y99859D01*
X193000D01*
Y100016D01*
X192922D01*
Y100172D01*
X192844D01*
Y100328D01*
X192766D01*
Y100484D01*
X192687D01*
Y100641D01*
X192609D01*
Y100797D01*
X192531D01*
Y100875D01*
X192453D01*
Y101031D01*
X192375D01*
Y101188D01*
X192297D01*
Y101344D01*
X192219D01*
Y101500D01*
X192141D01*
Y101656D01*
X192062D01*
Y101813D01*
X191984D01*
Y101969D01*
X191906D01*
Y102125D01*
X191828D01*
Y102281D01*
X191750D01*
Y102437D01*
X191672D01*
Y102516D01*
X191594D01*
Y102672D01*
X191516D01*
Y102828D01*
X191437D01*
Y102984D01*
X191359D01*
Y103141D01*
X191281D01*
Y103297D01*
X191203D01*
Y103453D01*
X191125D01*
Y103609D01*
X191047D01*
Y103766D01*
X190969D01*
Y103922D01*
X190891D01*
Y104078D01*
X190813D01*
Y104234D01*
X190734D01*
Y104313D01*
X190656D01*
Y104469D01*
X190578D01*
Y104625D01*
X190500D01*
Y104781D01*
X190422D01*
Y104938D01*
X190344D01*
Y105094D01*
X190266D01*
Y105250D01*
X190188D01*
Y105406D01*
X190109D01*
Y105562D01*
X190031D01*
Y105719D01*
X189953D01*
Y105875D01*
X189875D01*
Y105953D01*
X189797D01*
Y106109D01*
X189719D01*
Y106266D01*
X189641D01*
Y106422D01*
X189562D01*
Y106578D01*
X189484D01*
Y106734D01*
X189406D01*
Y106891D01*
X189328D01*
Y107047D01*
X189250D01*
Y107203D01*
X189172D01*
Y107359D01*
X189094D01*
Y107516D01*
X189016D01*
Y107594D01*
X188937D01*
Y107750D01*
X188859D01*
Y107906D01*
X188781D01*
Y108063D01*
X188703D01*
Y108219D01*
X188625D01*
Y108375D01*
X188547D01*
Y108531D01*
X188469D01*
Y108687D01*
X188391D01*
Y108844D01*
X188312D01*
Y109000D01*
X188234D01*
Y109156D01*
X188156D01*
Y109234D01*
X188078D01*
Y109391D01*
X188000D01*
Y109547D01*
X187922D01*
Y109703D01*
X187844D01*
Y109859D01*
X187766D01*
Y110016D01*
X187688D01*
Y110172D01*
X187609D01*
Y110328D01*
X187531D01*
Y110484D01*
X187453D01*
Y110641D01*
X187375D01*
Y110797D01*
X187297D01*
Y110953D01*
X187219D01*
Y111031D01*
X187141D01*
Y111188D01*
X187063D01*
Y111344D01*
X186984D01*
Y111500D01*
X186906D01*
Y111656D01*
X186828D01*
Y111812D01*
X186750D01*
Y111969D01*
X186672D01*
Y112125D01*
X186594D01*
Y112281D01*
X186516D01*
Y112437D01*
X186437D01*
Y112594D01*
X186359D01*
Y112672D01*
X186281D01*
Y112828D01*
X186203D01*
Y112984D01*
X186125D01*
Y113141D01*
X186047D01*
Y113297D01*
X185969D01*
Y113453D01*
X185891D01*
Y113609D01*
X185812D01*
Y113766D01*
X185734D01*
Y113922D01*
X185656D01*
Y114078D01*
X185578D01*
Y114234D01*
X185500D01*
Y114313D01*
X185422D01*
Y114469D01*
X185344D01*
Y114625D01*
X185266D01*
Y114781D01*
X185187D01*
Y114937D01*
X185109D01*
Y115094D01*
X185031D01*
Y115250D01*
X184953D01*
Y115406D01*
X184875D01*
Y115562D01*
X184797D01*
Y115719D01*
X184719D01*
Y115875D01*
X184641D01*
Y115953D01*
X184563D01*
Y116109D01*
X184484D01*
Y116266D01*
X184406D01*
Y116422D01*
X184328D01*
Y116578D01*
X184250D01*
Y116734D01*
X184172D01*
Y116891D01*
X184094D01*
Y117047D01*
X184016D01*
Y117203D01*
X183938D01*
Y117359D01*
X183859D01*
Y117516D01*
X183781D01*
Y117672D01*
X183703D01*
Y117750D01*
X183625D01*
Y117906D01*
X183547D01*
Y118062D01*
X183469D01*
Y118219D01*
X183391D01*
Y118375D01*
X183312D01*
Y118531D01*
X183234D01*
Y118687D01*
X183156D01*
Y118844D01*
X183078D01*
Y119000D01*
X183000D01*
Y119156D01*
X182922D01*
Y119313D01*
X182844D01*
Y119391D01*
X182766D01*
Y119547D01*
X182687D01*
Y119703D01*
X182609D01*
Y119859D01*
X182531D01*
Y120016D01*
X182453D01*
Y120172D01*
X182375D01*
Y120328D01*
X182297D01*
Y120484D01*
X182219D01*
Y120641D01*
X182141D01*
Y120797D01*
X182062D01*
Y120953D01*
X181984D01*
Y121031D01*
X181906D01*
Y121187D01*
X181828D01*
Y121344D01*
X181750D01*
Y121500D01*
X181672D01*
Y121656D01*
X181594D01*
Y121812D01*
X181516D01*
Y121969D01*
X181438D01*
Y122125D01*
X181359D01*
Y122281D01*
X181281D01*
Y122438D01*
X181203D01*
Y122594D01*
X181125D01*
Y122672D01*
X181047D01*
Y122828D01*
X180969D01*
Y122984D01*
X180891D01*
Y123141D01*
X180813D01*
Y123297D01*
X180734D01*
Y123453D01*
X180656D01*
Y123609D01*
X180578D01*
Y123766D01*
D02*
G37*
%LPD*%
G36*
X185031Y109000D02*
X185266D01*
Y108922D01*
X185344D01*
Y108844D01*
X185422D01*
Y108766D01*
X185500D01*
Y108687D01*
X185578D01*
Y108531D01*
X185656D01*
Y107906D01*
X185578D01*
Y107750D01*
X185500D01*
Y107672D01*
X185422D01*
Y107594D01*
X185344D01*
Y107516D01*
X185266D01*
Y107438D01*
X185187D01*
Y107359D01*
X185109D01*
Y107281D01*
X185031D01*
Y107125D01*
X184953D01*
Y107047D01*
X184875D01*
Y106969D01*
X184797D01*
Y106813D01*
X184719D01*
Y106734D01*
X184641D01*
Y106578D01*
X184563D01*
Y106500D01*
X184484D01*
Y106344D01*
X184406D01*
Y106109D01*
X184328D01*
Y105875D01*
X184250D01*
Y104938D01*
X184328D01*
Y104625D01*
X184406D01*
Y104469D01*
X184484D01*
Y104313D01*
X184563D01*
Y104156D01*
X184641D01*
Y104000D01*
X184719D01*
Y103922D01*
X184797D01*
Y103766D01*
X184875D01*
Y103688D01*
X184953D01*
Y103531D01*
X185031D01*
Y103453D01*
X185109D01*
Y103297D01*
X185187D01*
Y103219D01*
X185266D01*
Y103141D01*
X185344D01*
Y102984D01*
X185422D01*
Y102906D01*
X185500D01*
Y102828D01*
X185578D01*
Y102672D01*
X185656D01*
Y102594D01*
X185734D01*
Y102437D01*
X185812D01*
Y102359D01*
X185891D01*
Y102281D01*
X185969D01*
Y102125D01*
X186047D01*
Y102047D01*
X186125D01*
Y101969D01*
X186203D01*
Y101813D01*
X186281D01*
Y101734D01*
X186359D01*
Y101578D01*
X186437D01*
Y101422D01*
X186516D01*
Y101344D01*
X186594D01*
Y101188D01*
X186672D01*
Y101031D01*
X186750D01*
Y100875D01*
X186828D01*
Y100641D01*
X186906D01*
Y100484D01*
X186984D01*
Y100172D01*
X187063D01*
Y99859D01*
X187141D01*
Y98609D01*
X187063D01*
Y98297D01*
X186984D01*
Y97984D01*
X186906D01*
Y97828D01*
X186828D01*
Y97672D01*
X186750D01*
Y97516D01*
X186672D01*
Y97359D01*
X186594D01*
Y97203D01*
X186516D01*
Y97125D01*
X186437D01*
Y96969D01*
X186359D01*
Y96891D01*
X186281D01*
Y96734D01*
X186203D01*
Y96656D01*
X186125D01*
Y96578D01*
X186047D01*
Y96422D01*
X185969D01*
Y96344D01*
X185891D01*
Y96266D01*
X185812D01*
Y96188D01*
X185734D01*
Y96109D01*
X185656D01*
Y96031D01*
X185578D01*
Y95953D01*
X185500D01*
Y95875D01*
X185422D01*
Y95797D01*
X185266D01*
Y95719D01*
X185031D01*
Y95641D01*
X184797D01*
Y95719D01*
X184563D01*
Y95797D01*
X184406D01*
Y95875D01*
X184328D01*
Y95953D01*
X184250D01*
Y96031D01*
X184172D01*
Y96266D01*
X184094D01*
Y96734D01*
X184172D01*
Y96969D01*
X184250D01*
Y97047D01*
X184328D01*
Y97125D01*
X184406D01*
Y97203D01*
X184484D01*
Y97281D01*
X184563D01*
Y97359D01*
X184641D01*
Y97438D01*
X184719D01*
Y97594D01*
X184797D01*
Y97672D01*
X184875D01*
Y97750D01*
X184953D01*
Y97828D01*
X185031D01*
Y97984D01*
X185109D01*
Y98141D01*
X185187D01*
Y98219D01*
X185266D01*
Y98375D01*
X185344D01*
Y98609D01*
X185422D01*
Y98844D01*
X185500D01*
Y99625D01*
X185422D01*
Y99859D01*
X185344D01*
Y100094D01*
X185266D01*
Y100250D01*
X185187D01*
Y100406D01*
X185109D01*
Y100563D01*
X185031D01*
Y100641D01*
X184953D01*
Y100797D01*
X184875D01*
Y100953D01*
X184797D01*
Y101031D01*
X184719D01*
Y101188D01*
X184641D01*
Y101266D01*
X184563D01*
Y101344D01*
X184484D01*
Y101500D01*
X184406D01*
Y101578D01*
X184328D01*
Y101656D01*
X184250D01*
Y101813D01*
X184172D01*
Y101891D01*
X184094D01*
Y101969D01*
X184016D01*
Y102125D01*
X183938D01*
Y102203D01*
X183859D01*
Y102281D01*
X183781D01*
Y102437D01*
X183703D01*
Y102516D01*
X183625D01*
Y102672D01*
X183547D01*
Y102750D01*
X183469D01*
Y102906D01*
X183391D01*
Y102984D01*
X183312D01*
Y103141D01*
X183234D01*
Y103219D01*
X183156D01*
Y103375D01*
X183078D01*
Y103531D01*
X183000D01*
Y103688D01*
X182922D01*
Y103844D01*
X182844D01*
Y104078D01*
X182766D01*
Y104313D01*
X182687D01*
Y104625D01*
X182609D01*
Y105094D01*
X182531D01*
Y105719D01*
X182609D01*
Y106187D01*
X182687D01*
Y106500D01*
X182766D01*
Y106734D01*
X182844D01*
Y106891D01*
X182922D01*
Y107047D01*
X183000D01*
Y107203D01*
X183078D01*
Y107359D01*
X183156D01*
Y107516D01*
X183234D01*
Y107594D01*
X183312D01*
Y107750D01*
X183391D01*
Y107828D01*
X183469D01*
Y107984D01*
X183547D01*
Y108063D01*
X183625D01*
Y108141D01*
X183703D01*
Y108219D01*
X183781D01*
Y108375D01*
X183859D01*
Y108453D01*
X183938D01*
Y108531D01*
X184016D01*
Y108609D01*
X184094D01*
Y108687D01*
X184172D01*
Y108766D01*
X184250D01*
Y108844D01*
X184328D01*
Y108922D01*
X184484D01*
Y109000D01*
X184641D01*
Y109078D01*
X185031D01*
Y109000D01*
D02*
G37*
G36*
X180734D02*
X180891D01*
Y108922D01*
X181047D01*
Y108844D01*
X181125D01*
Y108766D01*
X181203D01*
Y108609D01*
X181281D01*
Y108375D01*
X181359D01*
Y108063D01*
X181281D01*
Y107828D01*
X181203D01*
Y107750D01*
X181125D01*
Y107672D01*
X181047D01*
Y107594D01*
X180969D01*
Y107516D01*
X180891D01*
Y107359D01*
X180813D01*
Y107281D01*
X180734D01*
Y107203D01*
X180656D01*
Y107125D01*
X180578D01*
Y107047D01*
X180500D01*
Y106891D01*
X180422D01*
Y106813D01*
X180344D01*
Y106734D01*
X180266D01*
Y106578D01*
X180187D01*
Y106422D01*
X180109D01*
Y106266D01*
X180031D01*
Y106109D01*
X179953D01*
Y105797D01*
X179875D01*
Y105016D01*
X179953D01*
Y104703D01*
X180031D01*
Y104469D01*
X180109D01*
Y104313D01*
X180187D01*
Y104156D01*
X180266D01*
Y104078D01*
X180344D01*
Y103922D01*
X180422D01*
Y103766D01*
X180500D01*
Y103688D01*
X180578D01*
Y103531D01*
X180656D01*
Y103453D01*
X180734D01*
Y103375D01*
X180813D01*
Y103219D01*
X180891D01*
Y103141D01*
X180969D01*
Y102984D01*
X181047D01*
Y102906D01*
X181125D01*
Y102828D01*
X181203D01*
Y102672D01*
X181281D01*
Y102594D01*
X181359D01*
Y102516D01*
X181438D01*
Y102359D01*
X181516D01*
Y102281D01*
X181594D01*
Y102203D01*
X181672D01*
Y102047D01*
X181750D01*
Y101969D01*
X181828D01*
Y101813D01*
X181906D01*
Y101734D01*
X181984D01*
Y101578D01*
X182062D01*
Y101500D01*
X182141D01*
Y101344D01*
X182219D01*
Y101188D01*
X182297D01*
Y101031D01*
X182375D01*
Y100875D01*
X182453D01*
Y100719D01*
X182531D01*
Y100484D01*
X182609D01*
Y100250D01*
X182687D01*
Y99937D01*
X182766D01*
Y98531D01*
X182687D01*
Y98219D01*
X182609D01*
Y97984D01*
X182531D01*
Y97750D01*
X182453D01*
Y97594D01*
X182375D01*
Y97438D01*
X182297D01*
Y97281D01*
X182219D01*
Y97203D01*
X182141D01*
Y97047D01*
X182062D01*
Y96969D01*
X181984D01*
Y96812D01*
X181906D01*
Y96734D01*
X181828D01*
Y96656D01*
X181750D01*
Y96500D01*
X181672D01*
Y96422D01*
X181594D01*
Y96344D01*
X181516D01*
Y96266D01*
X181438D01*
Y96188D01*
X181359D01*
Y96109D01*
X181281D01*
Y96031D01*
X181203D01*
Y95953D01*
X181125D01*
Y95875D01*
X181047D01*
Y95797D01*
X180969D01*
Y95719D01*
X180734D01*
Y95641D01*
X180422D01*
Y95719D01*
X180187D01*
Y95797D01*
X180031D01*
Y95875D01*
X179953D01*
Y95953D01*
X179875D01*
Y96109D01*
X179797D01*
Y96266D01*
X179719D01*
Y96734D01*
X179797D01*
Y96891D01*
X179875D01*
Y97047D01*
X179953D01*
Y97125D01*
X180031D01*
Y97203D01*
X180109D01*
Y97281D01*
X180187D01*
Y97359D01*
X180266D01*
Y97438D01*
X180344D01*
Y97516D01*
X180422D01*
Y97672D01*
X180500D01*
Y97750D01*
X180578D01*
Y97828D01*
X180656D01*
Y97984D01*
X180734D01*
Y98062D01*
X180813D01*
Y98219D01*
X180891D01*
Y98375D01*
X180969D01*
Y98531D01*
X181047D01*
Y98844D01*
X181125D01*
Y99625D01*
X181047D01*
Y99937D01*
X180969D01*
Y100094D01*
X180891D01*
Y100250D01*
X180813D01*
Y100406D01*
X180734D01*
Y100563D01*
X180656D01*
Y100719D01*
X180578D01*
Y100797D01*
X180500D01*
Y100953D01*
X180422D01*
Y101031D01*
X180344D01*
Y101188D01*
X180266D01*
Y101266D01*
X180187D01*
Y101422D01*
X180109D01*
Y101500D01*
X180031D01*
Y101578D01*
X179953D01*
Y101734D01*
X179875D01*
Y101813D01*
X179797D01*
Y101891D01*
X179719D01*
Y102047D01*
X179641D01*
Y102125D01*
X179562D01*
Y102203D01*
X179484D01*
Y102359D01*
X179406D01*
Y102437D01*
X179328D01*
Y102516D01*
X179250D01*
Y102672D01*
X179172D01*
Y102750D01*
X179094D01*
Y102906D01*
X179016D01*
Y102984D01*
X178937D01*
Y103141D01*
X178859D01*
Y103297D01*
X178781D01*
Y103453D01*
X178703D01*
Y103609D01*
X178625D01*
Y103766D01*
X178547D01*
Y103922D01*
X178469D01*
Y104156D01*
X178391D01*
Y104391D01*
X178313D01*
Y104703D01*
X178234D01*
Y106109D01*
X178313D01*
Y106422D01*
X178391D01*
Y106656D01*
X178469D01*
Y106891D01*
X178547D01*
Y107047D01*
X178625D01*
Y107203D01*
X178703D01*
Y107359D01*
X178781D01*
Y107438D01*
X178859D01*
Y107594D01*
X178937D01*
Y107672D01*
X179016D01*
Y107828D01*
X179094D01*
Y107906D01*
X179172D01*
Y108063D01*
X179250D01*
Y108141D01*
X179328D01*
Y108219D01*
X179406D01*
Y108297D01*
X179484D01*
Y108375D01*
X179562D01*
Y108531D01*
X179641D01*
Y108609D01*
X179719D01*
Y108687D01*
X179797D01*
Y108766D01*
X179875D01*
Y108844D01*
X179953D01*
Y108922D01*
X180109D01*
Y109000D01*
X180266D01*
Y109078D01*
X180734D01*
Y109000D01*
D02*
G37*
G36*
X176359D02*
X176516D01*
Y108922D01*
X176672D01*
Y108844D01*
X176750D01*
Y108766D01*
X176828D01*
Y108609D01*
X176906D01*
Y108375D01*
X176984D01*
Y108063D01*
X176906D01*
Y107828D01*
X176828D01*
Y107750D01*
X176750D01*
Y107672D01*
X176672D01*
Y107594D01*
X176594D01*
Y107438D01*
X176516D01*
Y107359D01*
X176437D01*
Y107281D01*
X176359D01*
Y107203D01*
X176281D01*
Y107125D01*
X176203D01*
Y107047D01*
X176125D01*
Y106891D01*
X176047D01*
Y106813D01*
X175969D01*
Y106656D01*
X175891D01*
Y106578D01*
X175812D01*
Y106422D01*
X175734D01*
Y106266D01*
X175656D01*
Y106031D01*
X175578D01*
Y105797D01*
X175500D01*
Y105016D01*
X175578D01*
Y104703D01*
X175656D01*
Y104547D01*
X175734D01*
Y104391D01*
X175812D01*
Y104234D01*
X175891D01*
Y104078D01*
X175969D01*
Y103922D01*
X176047D01*
Y103844D01*
X176125D01*
Y103688D01*
X176203D01*
Y103609D01*
X176281D01*
Y103453D01*
X176359D01*
Y103375D01*
X176437D01*
Y103219D01*
X176516D01*
Y103141D01*
X176594D01*
Y103062D01*
X176672D01*
Y102906D01*
X176750D01*
Y102828D01*
X176828D01*
Y102750D01*
X176906D01*
Y102594D01*
X176984D01*
Y102516D01*
X177062D01*
Y102437D01*
X177141D01*
Y102281D01*
X177219D01*
Y102203D01*
X177297D01*
Y102125D01*
X177375D01*
Y101969D01*
X177453D01*
Y101891D01*
X177531D01*
Y101734D01*
X177609D01*
Y101656D01*
X177688D01*
Y101500D01*
X177766D01*
Y101344D01*
X177844D01*
Y101188D01*
X177922D01*
Y101109D01*
X178000D01*
Y100875D01*
X178078D01*
Y100719D01*
X178156D01*
Y100563D01*
X178234D01*
Y100328D01*
X178313D01*
Y100016D01*
X178391D01*
Y99547D01*
X178469D01*
Y99469D01*
Y98922D01*
X178391D01*
Y98453D01*
X178313D01*
Y98141D01*
X178234D01*
Y97906D01*
X178156D01*
Y97750D01*
X178078D01*
Y97594D01*
X178000D01*
Y97438D01*
X177922D01*
Y97281D01*
X177844D01*
Y97125D01*
X177766D01*
Y97047D01*
X177688D01*
Y96891D01*
X177609D01*
Y96812D01*
X177531D01*
Y96734D01*
X177453D01*
Y96578D01*
X177375D01*
Y96500D01*
X177297D01*
Y96422D01*
X177219D01*
Y96344D01*
X177141D01*
Y96266D01*
X177062D01*
Y96188D01*
X176984D01*
Y96109D01*
X176906D01*
Y95953D01*
X176828D01*
Y95875D01*
X176672D01*
Y95797D01*
X176594D01*
Y95719D01*
X176359D01*
Y95641D01*
X176047D01*
Y95719D01*
X175812D01*
Y95797D01*
X175734D01*
Y95875D01*
X175578D01*
Y96031D01*
X175500D01*
Y96109D01*
X175422D01*
Y96344D01*
X175344D01*
Y96656D01*
X175422D01*
Y96891D01*
X175500D01*
Y96969D01*
X175578D01*
Y97125D01*
X175656D01*
Y97203D01*
X175734D01*
Y97281D01*
X175812D01*
Y97359D01*
X175891D01*
Y97438D01*
X175969D01*
Y97516D01*
X176047D01*
Y97594D01*
X176125D01*
Y97750D01*
X176203D01*
Y97828D01*
X176281D01*
Y97906D01*
X176359D01*
Y98062D01*
X176437D01*
Y98219D01*
X176516D01*
Y98375D01*
X176594D01*
Y98531D01*
X176672D01*
Y98766D01*
X176750D01*
Y99703D01*
X176672D01*
Y99937D01*
X176594D01*
Y100172D01*
X176516D01*
Y100328D01*
X176437D01*
Y100484D01*
X176359D01*
Y100563D01*
X176281D01*
Y100719D01*
X176203D01*
Y100875D01*
X176125D01*
Y100953D01*
X176047D01*
Y101109D01*
X175969D01*
Y101188D01*
X175891D01*
Y101266D01*
X175812D01*
Y101422D01*
X175734D01*
Y101500D01*
X175656D01*
Y101578D01*
X175578D01*
Y101734D01*
X175500D01*
Y101813D01*
X175422D01*
Y101891D01*
X175344D01*
Y102047D01*
X175266D01*
Y102125D01*
X175188D01*
Y102281D01*
X175109D01*
Y102359D01*
X175031D01*
Y102437D01*
X174953D01*
Y102594D01*
X174875D01*
Y102672D01*
X174797D01*
Y102828D01*
X174719D01*
Y102906D01*
X174641D01*
Y103062D01*
X174563D01*
Y103141D01*
X174484D01*
Y103297D01*
X174406D01*
Y103453D01*
X174328D01*
Y103609D01*
X174250D01*
Y103766D01*
X174172D01*
Y103922D01*
X174094D01*
Y104156D01*
X174016D01*
Y104391D01*
X173937D01*
Y104781D01*
X173859D01*
Y106109D01*
X173937D01*
Y106422D01*
X174016D01*
Y106656D01*
X174094D01*
Y106813D01*
X174172D01*
Y107047D01*
X174250D01*
Y107203D01*
X174328D01*
Y107359D01*
X174406D01*
Y107438D01*
X174484D01*
Y107594D01*
X174563D01*
Y107672D01*
X174641D01*
Y107828D01*
X174719D01*
Y107906D01*
X174797D01*
Y108063D01*
X174875D01*
Y108141D01*
X174953D01*
Y108219D01*
X175031D01*
Y108297D01*
X175109D01*
Y108375D01*
X175188D01*
Y108453D01*
X175266D01*
Y108609D01*
X175344D01*
Y108687D01*
X175422D01*
Y108766D01*
X175500D01*
Y108844D01*
X175578D01*
Y108922D01*
X175734D01*
Y109000D01*
X175891D01*
Y109078D01*
X176359D01*
Y109000D01*
D02*
G37*
G36*
X189875Y93922D02*
X190109D01*
Y93844D01*
X190188D01*
Y93766D01*
X190266D01*
Y93687D01*
X190344D01*
Y93609D01*
X190422D01*
Y93375D01*
X190500D01*
Y92906D01*
X190422D01*
Y92750D01*
X190344D01*
Y92672D01*
X190266D01*
Y92516D01*
X190109D01*
Y92437D01*
X189953D01*
Y92359D01*
X171047D01*
Y92437D01*
X170891D01*
Y92516D01*
X170734D01*
Y92672D01*
X170656D01*
Y92750D01*
X170578D01*
Y92906D01*
X170500D01*
Y93375D01*
X170578D01*
Y93609D01*
X170656D01*
Y93687D01*
X170734D01*
Y93766D01*
X170812D01*
Y93844D01*
X170891D01*
Y93922D01*
X171125D01*
Y94000D01*
X189875D01*
Y93922D01*
D02*
G37*
D16*
X97429Y156567D02*
Y166434D01*
X88571Y156567D02*
Y166434D01*
X43066Y182929D02*
X52934D01*
X43066Y174071D02*
X52934D01*
D17*
X563024Y372843D02*
X594520D01*
X563024Y383042D02*
X594520D01*
Y372843D02*
Y383042D01*
X563024Y372843D02*
Y383042D01*
X578000Y290999D02*
Y296997D01*
X575001D01*
X574001Y295998D01*
Y293998D01*
X575001Y292999D01*
X578000D01*
X571002Y290999D02*
X569003D01*
X568003Y291999D01*
Y293998D01*
X569003Y294998D01*
X571002D01*
X572002Y293998D01*
Y291999D01*
X571002Y290999D01*
X566004Y294998D02*
Y291999D01*
X565004Y290999D01*
X564005Y291999D01*
X563005Y290999D01*
X562005Y291999D01*
Y294998D01*
X557007Y290999D02*
X559006D01*
X560006Y291999D01*
Y293998D01*
X559006Y294998D01*
X557007D01*
X556007Y293998D01*
Y292999D01*
X560006D01*
X554008Y294998D02*
Y290999D01*
Y292999D01*
X553008Y293998D01*
X552008Y294998D01*
X551009D01*
X545011Y290999D02*
X547010D01*
X548010Y291999D01*
Y293998D01*
X547010Y294998D01*
X545011D01*
X544011Y293998D01*
Y292999D01*
X548010D01*
X538013Y296997D02*
Y290999D01*
X541012D01*
X542012Y291999D01*
Y293998D01*
X541012Y294998D01*
X538013D01*
X530016Y296997D02*
Y290999D01*
X527016D01*
X526017Y291999D01*
Y292999D01*
Y293998D01*
X527016Y294998D01*
X530016D01*
X524017D02*
Y291999D01*
X523018Y290999D01*
X520019D01*
Y290000D01*
X521018Y289000D01*
X522018D01*
X520019Y290999D02*
Y294998D01*
X518019D02*
X517020D01*
Y293998D01*
X518019D01*
Y294998D01*
Y291999D02*
X517020D01*
Y290999D01*
X518019D01*
Y291999D01*
X107333Y159334D02*
X107999Y158668D01*
Y157335D01*
X107333Y156668D01*
X104667D01*
X104001Y157335D01*
Y158668D01*
X104667Y159334D01*
X104001Y162666D02*
X107999D01*
X106000Y160667D01*
Y163333D01*
X107999Y167332D02*
X107333Y165999D01*
X106000Y164666D01*
X104667D01*
X104001Y165332D01*
Y166665D01*
X104667Y167332D01*
X105333D01*
X106000Y166665D01*
Y164666D01*
X50666Y165833D02*
X51332Y166499D01*
X52665D01*
X53332Y165833D01*
Y163167D01*
X52665Y162501D01*
X51332D01*
X50666Y163167D01*
X47334Y162501D02*
Y166499D01*
X49333Y164500D01*
X46667D01*
X42668Y166499D02*
X45334D01*
Y164500D01*
X44001Y165166D01*
X43335D01*
X42668Y164500D01*
Y163167D01*
X43335Y162501D01*
X44668D01*
X45334Y163167D01*
X50166Y219833D02*
X50832Y220499D01*
X52165D01*
X52832Y219833D01*
Y217167D01*
X52165Y216501D01*
X50832D01*
X50166Y217167D01*
X46834Y216501D02*
Y220499D01*
X48833Y218500D01*
X46167D01*
X42835Y216501D02*
Y220499D01*
X44834Y218500D01*
X42168D01*
X112666Y225833D02*
X113332Y226499D01*
X114665D01*
X115332Y225833D01*
Y223167D01*
X114665Y222501D01*
X113332D01*
X112666Y223167D01*
X109334Y222501D02*
Y226499D01*
X111333Y224500D01*
X108667D01*
X107334Y225833D02*
X106668Y226499D01*
X105335D01*
X104668Y225833D01*
Y225166D01*
X105335Y224500D01*
X106001D01*
X105335D01*
X104668Y223834D01*
Y223167D01*
X105335Y222501D01*
X106668D01*
X107334Y223167D01*
X50333Y188333D02*
X50999Y188999D01*
X52332D01*
X52998Y188333D01*
Y185667D01*
X52332Y185001D01*
X50999D01*
X50333Y185667D01*
X49000Y185001D02*
X47667D01*
X48333D01*
Y188999D01*
X49000Y188333D01*
X43002Y185001D02*
X45667D01*
X43002Y187666D01*
Y188333D01*
X43668Y188999D01*
X45001D01*
X45667Y188333D01*
X94666Y171833D02*
X95333Y172499D01*
X96666D01*
X97332Y171833D01*
Y169167D01*
X96666Y168501D01*
X95333D01*
X94666Y169167D01*
X93333Y168501D02*
X92000D01*
X92667D01*
Y172499D01*
X93333Y171833D01*
X90001Y168501D02*
X88668D01*
X89334D01*
Y172499D01*
X90001Y171833D01*
X92666Y233833D02*
X93333Y234499D01*
X94666D01*
X95332Y233833D01*
Y231167D01*
X94666Y230501D01*
X93333D01*
X92666Y231167D01*
X91334Y233833D02*
X90667Y234499D01*
X89334D01*
X88668Y233833D01*
Y233166D01*
X89334Y232500D01*
X88668Y231834D01*
Y231167D01*
X89334Y230501D01*
X90667D01*
X91334Y231167D01*
Y231834D01*
X90667Y232500D01*
X91334Y233166D01*
Y233833D01*
X90667Y232500D02*
X89334D01*
X81166Y233833D02*
X81833Y234499D01*
X83166D01*
X83832Y233833D01*
Y231167D01*
X83166Y230501D01*
X81833D01*
X81166Y231167D01*
X79834Y234499D02*
X77168D01*
Y233833D01*
X79834Y231167D01*
Y230501D01*
X69666Y233833D02*
X70333Y234499D01*
X71666D01*
X72332Y233833D01*
Y231167D01*
X71666Y230501D01*
X70333D01*
X69666Y231167D01*
X65668Y234499D02*
X67001Y233833D01*
X68334Y232500D01*
Y231167D01*
X67667Y230501D01*
X66334D01*
X65668Y231167D01*
Y231834D01*
X66334Y232500D01*
X68334D01*
X61166Y233833D02*
X61833Y234499D01*
X63166D01*
X63832Y233833D01*
Y231167D01*
X63166Y230501D01*
X61833D01*
X61166Y231167D01*
X57168Y234499D02*
X59834D01*
Y232500D01*
X58501Y233166D01*
X57834D01*
X57168Y232500D01*
Y231167D01*
X57834Y230501D01*
X59167D01*
X59834Y231167D01*
X302001Y434668D02*
X305999D01*
Y436667D01*
X305333Y437334D01*
X304000D01*
X303334Y436667D01*
Y434668D01*
Y436001D02*
X302001Y437334D01*
Y441332D02*
Y438666D01*
X304666Y441332D01*
X305333D01*
X305999Y440666D01*
Y439333D01*
X305333Y438666D01*
X289333Y436834D02*
X289999Y436167D01*
Y434834D01*
X289333Y434168D01*
X286667D01*
X286001Y434834D01*
Y436167D01*
X286667Y436834D01*
X286001Y440166D02*
X289999D01*
X288000Y438167D01*
Y440832D01*
X297333Y436834D02*
X297999Y436167D01*
Y434834D01*
X297333Y434168D01*
X294667D01*
X294001Y434834D01*
Y436167D01*
X294667Y436834D01*
X297333Y438167D02*
X297999Y438833D01*
Y440166D01*
X297333Y440832D01*
X296666D01*
X296000Y440166D01*
Y439499D01*
Y440166D01*
X295334Y440832D01*
X294667D01*
X294001Y440166D01*
Y438833D01*
X294667Y438167D01*
X488499Y440333D02*
X489165Y440999D01*
X490498D01*
X491164Y440333D01*
Y437667D01*
X490498Y437001D01*
X489165D01*
X488499Y437667D01*
X487166Y437001D02*
X485833D01*
X486499D01*
Y440999D01*
X487166Y440333D01*
X483834Y437001D02*
X482501D01*
X483167D01*
Y440999D01*
X483834Y440333D01*
X477836Y437001D02*
X480501D01*
X477836Y439666D01*
Y440333D01*
X478502Y440999D01*
X479835D01*
X480501Y440333D01*
X498832Y405333D02*
X499498Y405999D01*
X500831D01*
X501498Y405333D01*
Y402667D01*
X500831Y402001D01*
X499498D01*
X498832Y402667D01*
X497499Y402001D02*
X496166D01*
X496833D01*
Y405999D01*
X497499Y405333D01*
X494167D02*
X493500Y405999D01*
X492167D01*
X491501Y405333D01*
Y402667D01*
X492167Y402001D01*
X493500D01*
X494167Y402667D01*
Y405333D01*
X490168Y402667D02*
X489502Y402001D01*
X488169D01*
X487502Y402667D01*
Y405333D01*
X488169Y405999D01*
X489502D01*
X490168Y405333D01*
Y404666D01*
X489502Y404000D01*
X487502D01*
D159*
X532635Y335419D02*
X533801Y336585D01*
X536134D01*
X537300Y335419D01*
Y334252D01*
X536134Y333086D01*
X533801D01*
X532635Y331920D01*
Y330753D01*
X533801Y329587D01*
X536134D01*
X537300Y330753D01*
X530302Y334252D02*
X525637D01*
X530302Y329587D01*
X525637D01*
X523305Y334252D02*
Y330753D01*
X522138Y329587D01*
X518639D01*
Y328421D01*
X519806Y327255D01*
X520972D01*
X518639Y329587D02*
Y334252D01*
X516307Y329587D02*
Y334252D01*
X515140D01*
X513974Y333086D01*
Y329587D01*
Y333086D01*
X512808Y334252D01*
X511642Y333086D01*
Y329587D01*
X508143D02*
X505810D01*
X504644Y330753D01*
Y333086D01*
X505810Y334252D01*
X508143D01*
X509309Y333086D01*
Y330753D01*
X508143Y329587D01*
X502311D02*
Y334252D01*
X498812D01*
X497646Y333086D01*
Y329587D01*
X483651Y336585D02*
X488316D01*
Y333086D01*
X485983D01*
X488316D01*
Y329587D01*
X481318Y334252D02*
Y329587D01*
Y331920D01*
X480152Y333086D01*
X478986Y334252D01*
X477819D01*
X474320D02*
Y330753D01*
X473154Y329587D01*
X469655D01*
Y328421D01*
X470822Y327255D01*
X471988D01*
X469655Y329587D02*
Y334252D01*
X462657D02*
X466156D01*
X467323Y333086D01*
Y330753D01*
X466156Y329587D01*
X462657D01*
X460325Y334252D02*
X455660D01*
X460325Y329587D01*
X455660D01*
X453327D02*
Y336585D01*
Y331920D02*
X449828Y334252D01*
X453327Y331920D02*
X449828Y329587D01*
X445163D02*
X442831D01*
X441664Y330753D01*
Y333086D01*
X442831Y334252D01*
X445163D01*
X446329Y333086D01*
Y330753D01*
X445163Y329587D01*
X439332Y334252D02*
Y330753D01*
X438165Y329587D01*
X436999Y330753D01*
X435833Y329587D01*
X434666Y330753D01*
Y334252D01*
X432334Y329587D02*
X428835D01*
X427669Y330753D01*
X428835Y331920D01*
X431168D01*
X432334Y333086D01*
X431168Y334252D01*
X427669D01*
X425336Y329587D02*
Y336585D01*
Y331920D02*
X421837Y334252D01*
X425336Y331920D02*
X421837Y329587D01*
X418338D02*
X416006D01*
X417172D01*
Y334252D01*
X418338D01*
X537300Y315977D02*
Y322975D01*
X534967Y320642D01*
X532635Y322975D01*
Y315977D01*
X529136Y320642D02*
X526803D01*
X525637Y319476D01*
Y315977D01*
X529136D01*
X530302Y317144D01*
X529136Y318310D01*
X525637D01*
X523305Y315977D02*
X520972D01*
X522138D01*
Y320642D01*
X523305D01*
X517473Y315977D02*
Y320642D01*
X513974D01*
X512808Y319476D01*
Y315977D01*
X510475D02*
Y317144D01*
X509309D01*
Y315977D01*
X510475D01*
X504644D02*
Y322975D01*
X501145D01*
X499979Y321809D01*
Y319476D01*
X501145Y318310D01*
X504644D01*
X492981Y320642D02*
X496480D01*
X497646Y319476D01*
Y317144D01*
X496480Y315977D01*
X492981D01*
X490648Y322975D02*
Y315977D01*
X487149D01*
X485983Y317144D01*
Y318310D01*
Y319476D01*
X487149Y320642D01*
X490648D01*
X483651Y322975D02*
Y315977D01*
X480152D01*
X478986Y317144D01*
Y321809D01*
X480152Y322975D01*
X483651D01*
X475487Y315977D02*
X473154D01*
X471988Y317144D01*
Y319476D01*
X473154Y320642D01*
X475487D01*
X476653Y319476D01*
Y317144D01*
X475487Y315977D01*
X464990Y320642D02*
X468489D01*
X469655Y319476D01*
Y317144D01*
X468489Y315977D01*
X464990D01*
X537300Y311698D02*
Y307033D01*
X534967Y304700D01*
X532635Y307033D01*
Y311698D01*
X530302Y310531D02*
X529136Y311698D01*
X526803D01*
X525637Y310531D01*
Y305866D01*
X526803Y304700D01*
X529136D01*
X530302Y305866D01*
Y310531D01*
X523305Y304700D02*
Y305866D01*
X522138D01*
Y304700D01*
X523305D01*
X517473D02*
X515140D01*
X516307D01*
Y311698D01*
X517473Y310531D01*
X504644D02*
X503478Y311698D01*
X501145D01*
X499979Y310531D01*
Y305866D01*
X501145Y304700D01*
X503478D01*
X504644Y305866D01*
Y310531D01*
X492981Y311698D02*
X495314Y310531D01*
X497646Y308199D01*
Y305866D01*
X496480Y304700D01*
X494147D01*
X492981Y305866D01*
Y307033D01*
X494147Y308199D01*
X497646D01*
X490648Y304700D02*
Y305866D01*
X489482D01*
Y304700D01*
X490648D01*
X484817Y310531D02*
X483651Y311698D01*
X481318D01*
X480152Y310531D01*
Y305866D01*
X481318Y304700D01*
X483651D01*
X484817Y305866D01*
Y310531D01*
X477819D02*
X476653Y311698D01*
X474320D01*
X473154Y310531D01*
Y309365D01*
X474320Y308199D01*
X473154Y307033D01*
Y305866D01*
X474320Y304700D01*
X476653D01*
X477819Y305866D01*
Y307033D01*
X476653Y308199D01*
X477819Y309365D01*
Y310531D01*
X476653Y308199D02*
X474320D01*
X470822Y304700D02*
Y305866D01*
X469655D01*
Y304700D01*
X470822D01*
X460325D02*
X464990D01*
X460325Y309365D01*
Y310531D01*
X461491Y311698D01*
X463824D01*
X464990Y310531D01*
X457992D02*
X456826Y311698D01*
X454493D01*
X453327Y310531D01*
Y305866D01*
X454493Y304700D01*
X456826D01*
X457992Y305866D01*
Y310531D01*
X446329Y304700D02*
X450994D01*
X446329Y309365D01*
Y310531D01*
X447496Y311698D01*
X449828D01*
X450994Y310531D01*
X443997D02*
X442831Y311698D01*
X440498D01*
X439332Y310531D01*
Y309365D01*
X440498Y308199D01*
X441664D01*
X440498D01*
X439332Y307033D01*
Y305866D01*
X440498Y304700D01*
X442831D01*
X443997Y305866D01*
M02*
