G04*
G04 #@! TF.GenerationSoftware,Altium Limited,Altium Designer,23.7.1 (13)*
G04*
G04 Layer_Color=8421504*
%FSLAX25Y25*%
%MOIN*%
G70*
G04*
G04 #@! TF.SameCoordinates,3671DF12-B1F1-4326-BA21-4D3E62DEF6AE*
G04*
G04*
G04 #@! TF.FilePolarity,Positive*
G04*
G01*
G75*
%ADD18R,0.00984X0.06102*%
%ADD19R,0.00984X0.06102*%
%ADD20R,0.06102X0.00984*%
%ADD21R,0.06102X0.00984*%
%ADD22O,0.01181X0.03937*%
%ADD23O,0.03937X0.01181*%
%ADD24R,0.06457X0.07087*%
%ADD25O,0.08661X0.01575*%
%ADD26O,0.01575X0.08661*%
%ADD27R,0.03543X0.02953*%
%ADD28R,0.04134X0.03543*%
%ADD29R,0.03543X0.04134*%
%ADD30R,0.02953X0.03150*%
%ADD31R,0.03740X0.03937*%
%ADD32R,0.03681X0.03788*%
%ADD33R,0.02953X0.03543*%
%ADD34R,0.02985X0.03197*%
G04:AMPARAMS|DCode=35|XSize=26.38mil|YSize=11.81mil|CornerRadius=1.95mil|HoleSize=0mil|Usage=FLASHONLY|Rotation=270.000|XOffset=0mil|YOffset=0mil|HoleType=Round|Shape=RoundedRectangle|*
%AMROUNDEDRECTD35*
21,1,0.02638,0.00791,0,0,270.0*
21,1,0.02248,0.01181,0,0,270.0*
1,1,0.00390,-0.00396,-0.01124*
1,1,0.00390,-0.00396,0.01124*
1,1,0.00390,0.00396,0.01124*
1,1,0.00390,0.00396,-0.01124*
%
%ADD35ROUNDEDRECTD35*%
%ADD36R,0.05924X0.07505*%
%ADD37R,0.04369X0.03985*%
%ADD38R,0.03581X0.03591*%
%ADD39R,0.04560X0.03985*%
%ADD40R,0.08661X0.19685*%
%ADD41R,0.15551X0.16142*%
%ADD42R,0.06299X0.12598*%
%ADD43R,0.05118X0.01968*%
%ADD44R,0.03197X0.02985*%
%ADD45R,0.03400X0.03788*%
%ADD46R,0.05118X0.05118*%
%ADD47R,0.05118X0.05118*%
%ADD48R,0.09055X0.03543*%
%ADD49R,0.02953X0.04528*%
%ADD50R,0.04331X0.04134*%
%ADD51R,0.04134X0.04331*%
%ADD52R,0.03740X0.03347*%
%ADD53O,0.09055X0.02756*%
%ADD54R,0.03591X0.03772*%
%ADD55R,0.03394X0.02894*%
%ADD56R,0.04331X0.03937*%
%ADD57R,0.07480X0.04331*%
%ADD58R,0.08465X0.21457*%
%ADD59O,0.01378X0.06496*%
%ADD60O,0.06496X0.01378*%
%ADD61R,0.08661X0.22441*%
%ADD62R,0.03788X0.03400*%
%ADD63R,0.04528X0.02953*%
%ADD64R,0.22047X0.08268*%
%ADD65R,0.15433X0.04528*%
%ADD66R,0.29843X0.34055*%
%ADD67R,0.04528X0.04724*%
G04:AMPARAMS|DCode=68|XSize=59.26mil|YSize=22.43mil|CornerRadius=11.22mil|HoleSize=0mil|Usage=FLASHONLY|Rotation=90.000|XOffset=0mil|YOffset=0mil|HoleType=Round|Shape=RoundedRectangle|*
%AMROUNDEDRECTD68*
21,1,0.05926,0.00000,0,0,90.0*
21,1,0.03683,0.02243,0,0,90.0*
1,1,0.02243,0.00000,0.01841*
1,1,0.02243,0.00000,-0.01841*
1,1,0.02243,0.00000,-0.01841*
1,1,0.02243,0.00000,0.01841*
%
%ADD68ROUNDEDRECTD68*%
%ADD69R,0.02243X0.05926*%
%ADD70R,0.02165X0.05906*%
%ADD71R,0.07835X0.06575*%
%ADD72R,0.02275X0.06001*%
G04:AMPARAMS|DCode=73|XSize=60.01mil|YSize=22.75mil|CornerRadius=11.38mil|HoleSize=0mil|Usage=FLASHONLY|Rotation=270.000|XOffset=0mil|YOffset=0mil|HoleType=Round|Shape=RoundedRectangle|*
%AMROUNDEDRECTD73*
21,1,0.06001,0.00000,0,0,270.0*
21,1,0.03725,0.02275,0,0,270.0*
1,1,0.02275,0.00000,-0.01863*
1,1,0.02275,0.00000,0.01863*
1,1,0.02275,0.00000,0.01863*
1,1,0.02275,0.00000,-0.01863*
%
%ADD73ROUNDEDRECTD73*%
%ADD74R,0.04724X0.04134*%
%ADD75R,0.04724X0.03937*%
%ADD76R,0.21457X0.08465*%
G04:AMPARAMS|DCode=77|XSize=29.53mil|YSize=68.9mil|CornerRadius=3.89mil|HoleSize=0mil|Usage=FLASHONLY|Rotation=90.000|XOffset=0mil|YOffset=0mil|HoleType=Round|Shape=RoundedRectangle|*
%AMROUNDEDRECTD77*
21,1,0.02953,0.06112,0,0,90.0*
21,1,0.02175,0.06890,0,0,90.0*
1,1,0.00778,0.03056,0.01088*
1,1,0.00778,0.03056,-0.01088*
1,1,0.00778,-0.03056,-0.01088*
1,1,0.00778,-0.03056,0.01088*
%
%ADD77ROUNDEDRECTD77*%
%ADD78R,0.05709X0.07874*%
%ADD79R,0.06693X0.03740*%
%ADD80R,0.05727X0.06127*%
%ADD81R,0.08894X0.11193*%
%ADD82R,0.05906X0.13780*%
%ADD83O,0.02756X0.09055*%
%ADD84R,0.05140X0.06922*%
%ADD85R,0.04724X0.04528*%
%ADD86R,0.03788X0.03596*%
%ADD87R,0.12631X0.04547*%
%ADD88R,0.07505X0.05924*%
%ADD89R,0.14252X0.14252*%
%ADD90R,0.05118X0.02559*%
%ADD91R,0.03937X0.03740*%
%ADD92R,0.05118X0.04134*%
G36*
X221523Y322993D02*
X221560Y322982D01*
X221594Y322964D01*
X221624Y322939D01*
X221649Y322909D01*
X221667Y322875D01*
X221678Y322838D01*
X221682Y322799D01*
Y320831D01*
X221678Y320792D01*
X221667Y320755D01*
X221649Y320721D01*
X221624Y320691D01*
X221594Y320666D01*
X221560Y320648D01*
X221523Y320637D01*
X221484Y320633D01*
X218925D01*
X218917Y320634D01*
X218908Y320634D01*
X218898Y320636D01*
X218887Y320637D01*
X218879Y320639D01*
X218870Y320641D01*
X218860Y320645D01*
X218849Y320648D01*
X218842Y320652D01*
X218834Y320655D01*
X218825Y320661D01*
X218815Y320666D01*
X218809Y320672D01*
X218802Y320676D01*
X218794Y320684D01*
X218785Y320691D01*
X218780Y320697D01*
X218774Y320703D01*
X218768Y320712D01*
X218761Y320721D01*
X218759Y320724D01*
X218745Y320707D01*
X218737Y320699D01*
X218730Y320691D01*
X218724Y320685D01*
X218718Y320679D01*
X218709Y320673D01*
X218700Y320666D01*
X218693Y320662D01*
X218686Y320657D01*
X218676Y320653D01*
X218666Y320648D01*
X218658Y320645D01*
X218650Y320642D01*
X218640Y320640D01*
X218629Y320637D01*
X218621Y320636D01*
X218612Y320634D01*
X218601Y320634D01*
X218590Y320633D01*
X217016D01*
X216977Y320637D01*
X216940Y320648D01*
X216906Y320666D01*
X216876Y320691D01*
X216851Y320721D01*
X216833Y320755D01*
X216822Y320792D01*
X216818Y320831D01*
Y322799D01*
X216822Y322838D01*
X216833Y322875D01*
X216851Y322909D01*
X216876Y322939D01*
X216906Y322964D01*
X216940Y322982D01*
X216977Y322993D01*
X217016Y322997D01*
X218590D01*
X218601Y322996D01*
X218612Y322996D01*
X218621Y322994D01*
X218629Y322993D01*
X218640Y322990D01*
X218650Y322988D01*
X218658Y322984D01*
X218666Y322982D01*
X218676Y322977D01*
X218686Y322972D01*
X218693Y322968D01*
X218700Y322964D01*
X218709Y322957D01*
X218718Y322951D01*
X218724Y322944D01*
X218730Y322939D01*
X218737Y322931D01*
X218745Y322923D01*
X218759Y322905D01*
X218761Y322909D01*
X218768Y322918D01*
X218774Y322927D01*
X218780Y322933D01*
X218785Y322939D01*
X218794Y322946D01*
X218802Y322954D01*
X218809Y322958D01*
X218815Y322964D01*
X218825Y322969D01*
X218834Y322975D01*
X218842Y322978D01*
X218849Y322982D01*
X218860Y322985D01*
X218870Y322989D01*
X218879Y322991D01*
X218887Y322993D01*
X218898Y322994D01*
X218908Y322996D01*
X218917Y322996D01*
X218925Y322997D01*
X221484D01*
X221523Y322993D01*
D02*
G37*
G36*
X222430Y319493D02*
X222467Y319482D01*
X222502Y319464D01*
X222532Y319439D01*
X222556Y319409D01*
X222574Y319375D01*
X222586Y319338D01*
X222589Y319299D01*
Y317331D01*
X222586Y317292D01*
X222574Y317255D01*
X222556Y317221D01*
X222532Y317191D01*
X222502Y317166D01*
X222467Y317148D01*
X222430Y317137D01*
X222392Y317133D01*
X219833D01*
X219824Y317134D01*
X219816Y317134D01*
X219805Y317136D01*
X219794Y317137D01*
X219786Y317139D01*
X219778Y317141D01*
X219767Y317145D01*
X219757Y317148D01*
X219750Y317152D01*
X219742Y317155D01*
X219732Y317161D01*
X219723Y317166D01*
X219716Y317172D01*
X219709Y317176D01*
X219701Y317184D01*
X219693Y317191D01*
X219687Y317197D01*
X219681Y317203D01*
X219675Y317212D01*
X219668Y317221D01*
X219666Y317224D01*
X219653Y317207D01*
X219645Y317199D01*
X219638Y317191D01*
X219631Y317185D01*
X219625Y317179D01*
X219616Y317173D01*
X219608Y317166D01*
X219601Y317162D01*
X219593Y317158D01*
X219583Y317153D01*
X219574Y317148D01*
X219566Y317145D01*
X219558Y317142D01*
X219547Y317140D01*
X219537Y317137D01*
X219528Y317136D01*
X219520Y317134D01*
X219509Y317134D01*
X219498Y317133D01*
X217923D01*
X217885Y317137D01*
X217847Y317148D01*
X217813Y317166D01*
X217783Y317191D01*
X217759Y317221D01*
X217741Y317255D01*
X217729Y317292D01*
X217725Y317331D01*
Y319299D01*
X217729Y319338D01*
X217741Y319375D01*
X217759Y319409D01*
X217783Y319439D01*
X217813Y319464D01*
X217847Y319482D01*
X217885Y319493D01*
X217923Y319497D01*
X219498D01*
X219509Y319496D01*
X219520Y319496D01*
X219528Y319494D01*
X219537Y319493D01*
X219547Y319490D01*
X219558Y319488D01*
X219566Y319484D01*
X219574Y319482D01*
X219583Y319477D01*
X219593Y319473D01*
X219601Y319468D01*
X219608Y319464D01*
X219616Y319457D01*
X219625Y319450D01*
X219631Y319444D01*
X219638Y319439D01*
X219645Y319431D01*
X219653Y319423D01*
X219666Y319406D01*
X219668Y319409D01*
X219675Y319418D01*
X219681Y319427D01*
X219688Y319433D01*
X219693Y319439D01*
X219701Y319446D01*
X219709Y319454D01*
X219716Y319458D01*
X219723Y319464D01*
X219732Y319469D01*
X219742Y319475D01*
X219750Y319478D01*
X219757Y319482D01*
X219767Y319485D01*
X219778Y319489D01*
X219786Y319491D01*
X219794Y319493D01*
X219805Y319494D01*
X219816Y319496D01*
X219824Y319496D01*
X219833Y319497D01*
X222392D01*
X222430Y319493D01*
D02*
G37*
G36*
X221523Y315993D02*
X221560Y315982D01*
X221594Y315964D01*
X221624Y315939D01*
X221649Y315909D01*
X221667Y315875D01*
X221678Y315838D01*
X221682Y315799D01*
Y313831D01*
X221678Y313792D01*
X221667Y313755D01*
X221649Y313721D01*
X221624Y313691D01*
X221594Y313666D01*
X221560Y313648D01*
X221523Y313637D01*
X221484Y313633D01*
X218925D01*
X218917Y313634D01*
X218908Y313634D01*
X218898Y313636D01*
X218887Y313637D01*
X218879Y313639D01*
X218870Y313641D01*
X218860Y313645D01*
X218849Y313648D01*
X218842Y313652D01*
X218834Y313655D01*
X218825Y313661D01*
X218815Y313666D01*
X218809Y313672D01*
X218802Y313676D01*
X218794Y313684D01*
X218785Y313691D01*
X218780Y313697D01*
X218774Y313703D01*
X218768Y313712D01*
X218761Y313721D01*
X218759Y313724D01*
X218745Y313707D01*
X218737Y313699D01*
X218730Y313691D01*
X218724Y313685D01*
X218718Y313679D01*
X218709Y313673D01*
X218700Y313666D01*
X218693Y313662D01*
X218686Y313657D01*
X218676Y313653D01*
X218666Y313648D01*
X218658Y313646D01*
X218650Y313642D01*
X218640Y313640D01*
X218629Y313637D01*
X218621Y313636D01*
X218612Y313634D01*
X218601Y313634D01*
X218590Y313633D01*
X217016D01*
X216977Y313637D01*
X216940Y313648D01*
X216906Y313666D01*
X216876Y313691D01*
X216851Y313721D01*
X216833Y313755D01*
X216822Y313792D01*
X216818Y313831D01*
Y315799D01*
X216822Y315838D01*
X216833Y315875D01*
X216851Y315909D01*
X216876Y315939D01*
X216906Y315964D01*
X216940Y315982D01*
X216977Y315993D01*
X217016Y315997D01*
X218590D01*
X218601Y315996D01*
X218612Y315996D01*
X218621Y315994D01*
X218629Y315993D01*
X218640Y315990D01*
X218650Y315988D01*
X218658Y315984D01*
X218666Y315982D01*
X218676Y315977D01*
X218686Y315972D01*
X218693Y315968D01*
X218700Y315964D01*
X218709Y315957D01*
X218718Y315950D01*
X218724Y315945D01*
X218730Y315939D01*
X218737Y315931D01*
X218745Y315923D01*
X218759Y315905D01*
X218761Y315909D01*
X218768Y315917D01*
X218774Y315927D01*
X218780Y315933D01*
X218785Y315939D01*
X218794Y315946D01*
X218802Y315954D01*
X218809Y315958D01*
X218815Y315964D01*
X218825Y315969D01*
X218834Y315975D01*
X218842Y315978D01*
X218849Y315982D01*
X218860Y315985D01*
X218870Y315989D01*
X218879Y315991D01*
X218887Y315993D01*
X218898Y315994D01*
X218908Y315996D01*
X218917Y315996D01*
X218925Y315997D01*
X221484D01*
X221523Y315993D01*
D02*
G37*
G36*
X75023Y302678D02*
X75060Y302667D01*
X75094Y302649D01*
X75124Y302624D01*
X75149Y302594D01*
X75167Y302560D01*
X75178Y302523D01*
X75182Y302484D01*
Y301500D01*
Y299925D01*
X75181Y299917D01*
X75181Y299908D01*
X75179Y299898D01*
X75178Y299887D01*
X75176Y299879D01*
X75174Y299870D01*
X75170Y299860D01*
X75167Y299850D01*
X75163Y299842D01*
X75160Y299834D01*
X75154Y299825D01*
X75149Y299815D01*
X75143Y299809D01*
X75139Y299802D01*
X75131Y299794D01*
X75124Y299785D01*
X75117Y299780D01*
X75112Y299774D01*
X75103Y299768D01*
X75094Y299761D01*
X75090Y299759D01*
X75108Y299745D01*
X75116Y299737D01*
X75124Y299730D01*
X75129Y299724D01*
X75136Y299718D01*
X75142Y299709D01*
X75149Y299700D01*
X75153Y299693D01*
X75157Y299686D01*
X75162Y299676D01*
X75167Y299666D01*
X75169Y299658D01*
X75173Y299650D01*
X75175Y299640D01*
X75178Y299629D01*
X75179Y299621D01*
X75181Y299612D01*
X75181Y299601D01*
X75182Y299590D01*
Y298016D01*
X75178Y297977D01*
X75167Y297940D01*
X75149Y297906D01*
X75124Y297876D01*
X75094Y297851D01*
X75060Y297833D01*
X75023Y297822D01*
X74984Y297818D01*
X73016D01*
X72977Y297822D01*
X72940Y297833D01*
X72906Y297851D01*
X72876Y297876D01*
X72851Y297906D01*
X72833Y297940D01*
X72822Y297977D01*
X72818Y298016D01*
Y299590D01*
X72819Y299601D01*
X72819Y299612D01*
X72821Y299621D01*
X72822Y299629D01*
X72825Y299640D01*
X72827Y299650D01*
X72831Y299658D01*
X72833Y299666D01*
X72838Y299676D01*
X72843Y299686D01*
X72847Y299693D01*
X72851Y299700D01*
X72858Y299709D01*
X72864Y299718D01*
X72870Y299724D01*
X72876Y299730D01*
X72884Y299737D01*
X72892Y299745D01*
X72909Y299759D01*
X72906Y299761D01*
X72897Y299768D01*
X72888Y299774D01*
X72882Y299780D01*
X72876Y299785D01*
X72869Y299794D01*
X72861Y299802D01*
X72857Y299809D01*
X72851Y299815D01*
X72846Y299825D01*
X72840Y299834D01*
X72837Y299842D01*
X72833Y299850D01*
X72830Y299860D01*
X72826Y299870D01*
X72824Y299879D01*
X72822Y299887D01*
X72821Y299898D01*
X72819Y299908D01*
X72819Y299917D01*
X72818Y299925D01*
Y301500D01*
Y302484D01*
X72822Y302523D01*
X72833Y302560D01*
X72851Y302594D01*
X72876Y302624D01*
X72906Y302649D01*
X72940Y302667D01*
X72977Y302678D01*
X73016Y302682D01*
X74984D01*
X75023Y302678D01*
D02*
G37*
G36*
X71023D02*
X71060Y302667D01*
X71094Y302649D01*
X71124Y302624D01*
X71149Y302594D01*
X71167Y302560D01*
X71178Y302523D01*
X71182Y302484D01*
Y301500D01*
Y299925D01*
X71181Y299917D01*
X71181Y299908D01*
X71179Y299898D01*
X71178Y299887D01*
X71176Y299879D01*
X71174Y299870D01*
X71170Y299860D01*
X71167Y299850D01*
X71163Y299842D01*
X71160Y299834D01*
X71154Y299825D01*
X71149Y299815D01*
X71143Y299809D01*
X71139Y299802D01*
X71131Y299794D01*
X71124Y299785D01*
X71118Y299780D01*
X71112Y299774D01*
X71103Y299768D01*
X71094Y299761D01*
X71091Y299759D01*
X71108Y299745D01*
X71116Y299737D01*
X71124Y299730D01*
X71130Y299724D01*
X71136Y299718D01*
X71142Y299709D01*
X71149Y299700D01*
X71153Y299693D01*
X71157Y299686D01*
X71162Y299676D01*
X71167Y299666D01*
X71169Y299658D01*
X71173Y299650D01*
X71175Y299640D01*
X71178Y299629D01*
X71179Y299621D01*
X71181Y299612D01*
X71181Y299601D01*
X71182Y299590D01*
Y298016D01*
X71178Y297977D01*
X71167Y297940D01*
X71149Y297906D01*
X71124Y297876D01*
X71094Y297851D01*
X71060Y297833D01*
X71023Y297822D01*
X70984Y297818D01*
X69016D01*
X68977Y297822D01*
X68940Y297833D01*
X68906Y297851D01*
X68876Y297876D01*
X68851Y297906D01*
X68833Y297940D01*
X68822Y297977D01*
X68818Y298016D01*
Y299590D01*
X68819Y299601D01*
X68819Y299612D01*
X68821Y299621D01*
X68822Y299629D01*
X68825Y299640D01*
X68827Y299650D01*
X68831Y299658D01*
X68833Y299666D01*
X68838Y299676D01*
X68843Y299686D01*
X68847Y299693D01*
X68851Y299700D01*
X68858Y299709D01*
X68864Y299718D01*
X68871Y299724D01*
X68876Y299730D01*
X68884Y299737D01*
X68892Y299745D01*
X68910Y299759D01*
X68906Y299761D01*
X68897Y299768D01*
X68888Y299774D01*
X68882Y299780D01*
X68876Y299785D01*
X68869Y299794D01*
X68861Y299802D01*
X68857Y299809D01*
X68851Y299815D01*
X68846Y299825D01*
X68840Y299834D01*
X68837Y299842D01*
X68833Y299850D01*
X68830Y299860D01*
X68826Y299870D01*
X68824Y299879D01*
X68822Y299887D01*
X68821Y299898D01*
X68819Y299908D01*
X68819Y299917D01*
X68818Y299925D01*
Y301500D01*
Y302484D01*
X68822Y302523D01*
X68833Y302560D01*
X68851Y302594D01*
X68876Y302624D01*
X68906Y302649D01*
X68940Y302667D01*
X68977Y302678D01*
X69016Y302682D01*
X70984D01*
X71023Y302678D01*
D02*
G37*
G36*
X67023D02*
X67060Y302667D01*
X67094Y302649D01*
X67124Y302624D01*
X67149Y302594D01*
X67167Y302560D01*
X67178Y302523D01*
X67182Y302484D01*
Y301500D01*
Y299925D01*
X67181Y299917D01*
X67181Y299908D01*
X67179Y299898D01*
X67178Y299887D01*
X67176Y299879D01*
X67174Y299870D01*
X67170Y299860D01*
X67167Y299850D01*
X67163Y299842D01*
X67160Y299834D01*
X67154Y299825D01*
X67149Y299815D01*
X67143Y299809D01*
X67139Y299802D01*
X67131Y299794D01*
X67124Y299785D01*
X67118Y299780D01*
X67112Y299774D01*
X67103Y299768D01*
X67094Y299761D01*
X67090Y299759D01*
X67108Y299745D01*
X67116Y299737D01*
X67124Y299730D01*
X67129Y299724D01*
X67136Y299718D01*
X67142Y299709D01*
X67149Y299700D01*
X67153Y299693D01*
X67158Y299686D01*
X67162Y299676D01*
X67167Y299666D01*
X67169Y299658D01*
X67173Y299650D01*
X67175Y299640D01*
X67178Y299629D01*
X67179Y299621D01*
X67181Y299612D01*
X67181Y299601D01*
X67182Y299590D01*
Y298016D01*
X67178Y297977D01*
X67167Y297940D01*
X67149Y297906D01*
X67124Y297876D01*
X67094Y297851D01*
X67060Y297833D01*
X67023Y297822D01*
X66984Y297818D01*
X65016D01*
X64977Y297822D01*
X64940Y297833D01*
X64906Y297851D01*
X64876Y297876D01*
X64851Y297906D01*
X64833Y297940D01*
X64822Y297977D01*
X64818Y298016D01*
Y299590D01*
X64819Y299601D01*
X64819Y299612D01*
X64821Y299621D01*
X64822Y299629D01*
X64825Y299640D01*
X64827Y299650D01*
X64831Y299658D01*
X64833Y299666D01*
X64838Y299676D01*
X64842Y299686D01*
X64847Y299693D01*
X64851Y299700D01*
X64858Y299709D01*
X64864Y299718D01*
X64871Y299724D01*
X64876Y299730D01*
X64884Y299737D01*
X64892Y299745D01*
X64909Y299759D01*
X64906Y299761D01*
X64898Y299768D01*
X64888Y299774D01*
X64882Y299780D01*
X64876Y299785D01*
X64869Y299794D01*
X64861Y299802D01*
X64857Y299809D01*
X64851Y299815D01*
X64846Y299825D01*
X64840Y299834D01*
X64837Y299842D01*
X64833Y299850D01*
X64830Y299860D01*
X64826Y299870D01*
X64824Y299879D01*
X64822Y299887D01*
X64821Y299898D01*
X64819Y299908D01*
X64819Y299917D01*
X64818Y299925D01*
Y301500D01*
Y302484D01*
X64822Y302523D01*
X64833Y302560D01*
X64851Y302594D01*
X64876Y302624D01*
X64906Y302649D01*
X64940Y302667D01*
X64977Y302678D01*
X65016Y302682D01*
X66984D01*
X67023Y302678D01*
D02*
G37*
G36*
X236523Y172178D02*
X236560Y172167D01*
X236594Y172149D01*
X236624Y172124D01*
X236649Y172094D01*
X236667Y172060D01*
X236678Y172023D01*
X236682Y171984D01*
Y171000D01*
Y169425D01*
X236681Y169417D01*
X236681Y169408D01*
X236679Y169398D01*
X236678Y169387D01*
X236676Y169378D01*
X236674Y169370D01*
X236670Y169360D01*
X236667Y169350D01*
X236663Y169342D01*
X236660Y169334D01*
X236654Y169325D01*
X236649Y169315D01*
X236643Y169309D01*
X236639Y169302D01*
X236631Y169294D01*
X236624Y169285D01*
X236617Y169280D01*
X236612Y169274D01*
X236603Y169268D01*
X236594Y169261D01*
X236591Y169259D01*
X236608Y169245D01*
X236616Y169237D01*
X236624Y169230D01*
X236630Y169224D01*
X236636Y169218D01*
X236642Y169209D01*
X236649Y169200D01*
X236653Y169193D01*
X236658Y169186D01*
X236662Y169176D01*
X236667Y169166D01*
X236669Y169158D01*
X236673Y169150D01*
X236675Y169140D01*
X236678Y169129D01*
X236679Y169121D01*
X236681Y169112D01*
X236681Y169101D01*
X236682Y169091D01*
Y167516D01*
X236678Y167477D01*
X236667Y167440D01*
X236649Y167406D01*
X236624Y167376D01*
X236594Y167351D01*
X236560Y167333D01*
X236523Y167322D01*
X236484Y167318D01*
X234516D01*
X234477Y167322D01*
X234440Y167333D01*
X234406Y167351D01*
X234376Y167376D01*
X234351Y167406D01*
X234333Y167440D01*
X234322Y167477D01*
X234318Y167516D01*
Y169091D01*
X234319Y169101D01*
X234319Y169112D01*
X234321Y169121D01*
X234322Y169129D01*
X234325Y169140D01*
X234327Y169150D01*
X234331Y169158D01*
X234333Y169166D01*
X234338Y169176D01*
X234343Y169186D01*
X234347Y169193D01*
X234351Y169200D01*
X234358Y169209D01*
X234364Y169218D01*
X234370Y169224D01*
X234376Y169230D01*
X234384Y169237D01*
X234392Y169245D01*
X234409Y169259D01*
X234406Y169261D01*
X234398Y169268D01*
X234388Y169274D01*
X234382Y169280D01*
X234376Y169285D01*
X234369Y169294D01*
X234361Y169302D01*
X234357Y169309D01*
X234351Y169315D01*
X234346Y169325D01*
X234340Y169334D01*
X234337Y169342D01*
X234333Y169350D01*
X234330Y169360D01*
X234326Y169370D01*
X234324Y169378D01*
X234322Y169387D01*
X234321Y169398D01*
X234319Y169408D01*
X234319Y169417D01*
X234318Y169425D01*
Y171000D01*
Y171984D01*
X234322Y172023D01*
X234333Y172060D01*
X234351Y172094D01*
X234376Y172124D01*
X234406Y172149D01*
X234440Y172167D01*
X234477Y172178D01*
X234516Y172182D01*
X236484D01*
X236523Y172178D01*
D02*
G37*
G36*
X35153Y114767D02*
X35190Y114756D01*
X35224Y114738D01*
X35254Y114713D01*
X35279Y114683D01*
X35297Y114649D01*
X35308Y114612D01*
X35312Y114573D01*
Y112998D01*
X35311Y112988D01*
X35311Y112977D01*
X35309Y112968D01*
X35308Y112960D01*
X35305Y112950D01*
X35303Y112939D01*
X35299Y112931D01*
X35297Y112923D01*
X35292Y112913D01*
X35287Y112903D01*
X35283Y112896D01*
X35279Y112889D01*
X35272Y112880D01*
X35265Y112871D01*
X35259Y112865D01*
X35254Y112859D01*
X35245Y112852D01*
X35238Y112844D01*
X35221Y112830D01*
X35224Y112828D01*
X35232Y112821D01*
X35242Y112815D01*
X35247Y112809D01*
X35254Y112804D01*
X35261Y112795D01*
X35269Y112787D01*
X35273Y112780D01*
X35279Y112774D01*
X35284Y112764D01*
X35290Y112755D01*
X35293Y112747D01*
X35297Y112740D01*
X35300Y112729D01*
X35304Y112719D01*
X35306Y112711D01*
X35308Y112702D01*
X35309Y112691D01*
X35311Y112681D01*
X35311Y112672D01*
X35312Y112664D01*
Y111089D01*
Y110105D01*
X35308Y110066D01*
X35297Y110029D01*
X35279Y109995D01*
X35254Y109965D01*
X35224Y109940D01*
X35190Y109922D01*
X35153Y109911D01*
X35114Y109907D01*
X33146D01*
X33107Y109911D01*
X33070Y109922D01*
X33036Y109940D01*
X33006Y109965D01*
X32981Y109995D01*
X32963Y110029D01*
X32952Y110066D01*
X32948Y110105D01*
Y111089D01*
Y112664D01*
X32949Y112672D01*
X32949Y112681D01*
X32951Y112691D01*
X32952Y112702D01*
X32954Y112711D01*
X32956Y112719D01*
X32960Y112729D01*
X32963Y112740D01*
X32967Y112747D01*
X32970Y112755D01*
X32976Y112764D01*
X32981Y112774D01*
X32987Y112780D01*
X32991Y112787D01*
X32999Y112795D01*
X33006Y112804D01*
X33012Y112809D01*
X33018Y112815D01*
X33027Y112821D01*
X33036Y112828D01*
X33039Y112830D01*
X33022Y112844D01*
X33014Y112852D01*
X33006Y112859D01*
X33000Y112865D01*
X32994Y112871D01*
X32988Y112880D01*
X32981Y112889D01*
X32977Y112896D01*
X32972Y112903D01*
X32968Y112913D01*
X32963Y112923D01*
X32961Y112931D01*
X32957Y112939D01*
X32955Y112950D01*
X32952Y112960D01*
X32951Y112968D01*
X32949Y112977D01*
X32949Y112988D01*
X32948Y112998D01*
Y114573D01*
X32952Y114612D01*
X32963Y114649D01*
X32981Y114683D01*
X33006Y114713D01*
X33036Y114738D01*
X33070Y114756D01*
X33107Y114767D01*
X33146Y114771D01*
X35114D01*
X35153Y114767D01*
D02*
G37*
G36*
X57653Y112267D02*
X57690Y112256D01*
X57724Y112238D01*
X57754Y112213D01*
X57779Y112183D01*
X57797Y112149D01*
X57808Y112112D01*
X57812Y112073D01*
Y110498D01*
X57811Y110488D01*
X57811Y110477D01*
X57809Y110468D01*
X57808Y110460D01*
X57805Y110450D01*
X57803Y110439D01*
X57799Y110431D01*
X57797Y110423D01*
X57792Y110413D01*
X57787Y110403D01*
X57783Y110396D01*
X57779Y110389D01*
X57772Y110380D01*
X57766Y110371D01*
X57759Y110365D01*
X57754Y110359D01*
X57746Y110352D01*
X57738Y110344D01*
X57721Y110330D01*
X57724Y110328D01*
X57732Y110321D01*
X57742Y110315D01*
X57748Y110309D01*
X57754Y110304D01*
X57761Y110295D01*
X57769Y110287D01*
X57773Y110280D01*
X57779Y110274D01*
X57784Y110264D01*
X57790Y110255D01*
X57793Y110247D01*
X57797Y110240D01*
X57800Y110229D01*
X57804Y110219D01*
X57806Y110211D01*
X57808Y110202D01*
X57809Y110192D01*
X57811Y110181D01*
X57811Y110172D01*
X57812Y110164D01*
Y108589D01*
Y107605D01*
X57808Y107566D01*
X57797Y107529D01*
X57779Y107495D01*
X57754Y107465D01*
X57724Y107440D01*
X57690Y107422D01*
X57653Y107411D01*
X57614Y107407D01*
X55646D01*
X55607Y107411D01*
X55570Y107422D01*
X55536Y107440D01*
X55506Y107465D01*
X55481Y107495D01*
X55463Y107529D01*
X55452Y107566D01*
X55448Y107605D01*
Y108589D01*
Y110164D01*
X55449Y110172D01*
X55449Y110181D01*
X55451Y110192D01*
X55452Y110202D01*
X55454Y110211D01*
X55456Y110219D01*
X55460Y110229D01*
X55463Y110240D01*
X55467Y110247D01*
X55470Y110255D01*
X55476Y110264D01*
X55481Y110274D01*
X55487Y110280D01*
X55491Y110287D01*
X55499Y110295D01*
X55506Y110304D01*
X55512Y110309D01*
X55518Y110315D01*
X55527Y110321D01*
X55536Y110328D01*
X55539Y110330D01*
X55522Y110344D01*
X55514Y110352D01*
X55506Y110359D01*
X55500Y110365D01*
X55494Y110371D01*
X55488Y110380D01*
X55481Y110389D01*
X55477Y110396D01*
X55472Y110403D01*
X55468Y110413D01*
X55463Y110423D01*
X55461Y110431D01*
X55457Y110439D01*
X55455Y110450D01*
X55452Y110460D01*
X55451Y110468D01*
X55449Y110477D01*
X55449Y110488D01*
X55448Y110498D01*
Y112073D01*
X55452Y112112D01*
X55463Y112149D01*
X55481Y112183D01*
X55506Y112213D01*
X55536Y112238D01*
X55570Y112256D01*
X55607Y112267D01*
X55646Y112271D01*
X57614D01*
X57653Y112267D01*
D02*
G37*
G36*
X53153D02*
X53190Y112256D01*
X53224Y112238D01*
X53254Y112213D01*
X53279Y112183D01*
X53297Y112149D01*
X53308Y112112D01*
X53312Y112073D01*
Y111089D01*
Y109514D01*
X53311Y109506D01*
X53311Y109497D01*
X53309Y109487D01*
X53308Y109476D01*
X53306Y109467D01*
X53304Y109459D01*
X53300Y109449D01*
X53297Y109439D01*
X53293Y109431D01*
X53290Y109423D01*
X53284Y109414D01*
X53279Y109404D01*
X53273Y109398D01*
X53269Y109391D01*
X53261Y109383D01*
X53254Y109374D01*
X53247Y109369D01*
X53241Y109363D01*
X53233Y109357D01*
X53224Y109350D01*
X53220Y109348D01*
X53238Y109334D01*
X53246Y109326D01*
X53254Y109319D01*
X53259Y109313D01*
X53266Y109307D01*
X53272Y109298D01*
X53279Y109290D01*
X53283Y109282D01*
X53287Y109275D01*
X53292Y109265D01*
X53297Y109255D01*
X53299Y109247D01*
X53303Y109239D01*
X53305Y109229D01*
X53308Y109218D01*
X53309Y109210D01*
X53311Y109201D01*
X53311Y109190D01*
X53312Y109180D01*
Y107605D01*
X53308Y107566D01*
X53297Y107529D01*
X53279Y107495D01*
X53254Y107465D01*
X53224Y107440D01*
X53190Y107422D01*
X53153Y107411D01*
X53114Y107407D01*
X51146D01*
X51107Y107411D01*
X51070Y107422D01*
X51036Y107440D01*
X51006Y107465D01*
X50981Y107495D01*
X50963Y107529D01*
X50952Y107566D01*
X50948Y107605D01*
Y109180D01*
X50949Y109190D01*
X50949Y109201D01*
X50951Y109210D01*
X50952Y109218D01*
X50955Y109229D01*
X50957Y109239D01*
X50960Y109247D01*
X50963Y109255D01*
X50968Y109265D01*
X50972Y109275D01*
X50977Y109282D01*
X50981Y109290D01*
X50988Y109298D01*
X50994Y109307D01*
X51000Y109313D01*
X51006Y109319D01*
X51014Y109326D01*
X51022Y109334D01*
X51039Y109348D01*
X51036Y109350D01*
X51027Y109357D01*
X51018Y109363D01*
X51012Y109369D01*
X51006Y109374D01*
X50999Y109383D01*
X50991Y109391D01*
X50986Y109398D01*
X50981Y109404D01*
X50976Y109414D01*
X50970Y109423D01*
X50967Y109431D01*
X50963Y109439D01*
X50960Y109449D01*
X50956Y109459D01*
X50954Y109467D01*
X50952Y109476D01*
X50951Y109487D01*
X50949Y109497D01*
X50949Y109506D01*
X50948Y109514D01*
Y111089D01*
Y112073D01*
X50952Y112112D01*
X50963Y112149D01*
X50981Y112183D01*
X51006Y112213D01*
X51036Y112238D01*
X51070Y112256D01*
X51107Y112267D01*
X51146Y112271D01*
X53114D01*
X53153Y112267D01*
D02*
G37*
D18*
X496827Y396358D02*
D03*
X494858D02*
D03*
X492890D02*
D03*
X488953D02*
D03*
X486984D02*
D03*
X485016D02*
D03*
X483047D02*
D03*
X479110D02*
D03*
X477142D02*
D03*
X475173D02*
D03*
Y428642D02*
D03*
X477142D02*
D03*
X479110D02*
D03*
X483047D02*
D03*
X485016D02*
D03*
X486984D02*
D03*
X488953D02*
D03*
X492890D02*
D03*
X494858D02*
D03*
X496827D02*
D03*
D19*
X490921Y396358D02*
D03*
X481079D02*
D03*
Y428642D02*
D03*
X490921D02*
D03*
D20*
X469858Y401673D02*
D03*
Y403642D02*
D03*
Y405610D02*
D03*
Y409547D02*
D03*
Y411516D02*
D03*
Y413484D02*
D03*
Y415453D02*
D03*
Y419390D02*
D03*
Y421358D02*
D03*
Y423327D02*
D03*
X502142D02*
D03*
Y421358D02*
D03*
Y419390D02*
D03*
Y415453D02*
D03*
Y413484D02*
D03*
Y411516D02*
D03*
Y409547D02*
D03*
Y405610D02*
D03*
Y403642D02*
D03*
Y401673D02*
D03*
D21*
X469858Y407579D02*
D03*
Y417421D02*
D03*
X502142D02*
D03*
Y407579D02*
D03*
D22*
X210437Y325740D02*
D03*
X208862D02*
D03*
X207287D02*
D03*
X205713D02*
D03*
X204138D02*
D03*
X202563D02*
D03*
Y312890D02*
D03*
X204138D02*
D03*
X205713D02*
D03*
X207287D02*
D03*
X208862D02*
D03*
X210437D02*
D03*
D23*
X200075Y323252D02*
D03*
Y321677D02*
D03*
Y320102D02*
D03*
Y318528D02*
D03*
Y316953D02*
D03*
Y315378D02*
D03*
X212925D02*
D03*
Y316953D02*
D03*
Y318528D02*
D03*
Y320102D02*
D03*
Y321677D02*
D03*
Y323252D02*
D03*
D24*
X206500Y319315D02*
D03*
D25*
X108421Y216622D02*
D03*
Y214653D02*
D03*
Y212685D02*
D03*
Y210717D02*
D03*
Y208748D02*
D03*
Y206780D02*
D03*
Y204811D02*
D03*
Y202842D02*
D03*
Y200874D02*
D03*
Y198906D02*
D03*
Y196937D02*
D03*
Y194968D02*
D03*
Y193000D02*
D03*
Y191032D02*
D03*
Y189063D02*
D03*
Y187094D02*
D03*
Y185126D02*
D03*
Y183158D02*
D03*
Y181189D02*
D03*
Y179220D02*
D03*
Y177252D02*
D03*
Y175284D02*
D03*
Y173315D02*
D03*
Y171346D02*
D03*
Y169378D02*
D03*
X48579D02*
D03*
Y171346D02*
D03*
Y173315D02*
D03*
Y175284D02*
D03*
Y177252D02*
D03*
Y179220D02*
D03*
Y181189D02*
D03*
Y183158D02*
D03*
Y185126D02*
D03*
Y187094D02*
D03*
Y189063D02*
D03*
Y191032D02*
D03*
Y193000D02*
D03*
Y194968D02*
D03*
Y196937D02*
D03*
Y198906D02*
D03*
Y200874D02*
D03*
Y202842D02*
D03*
Y204811D02*
D03*
Y206780D02*
D03*
Y208748D02*
D03*
Y210717D02*
D03*
Y212685D02*
D03*
Y214653D02*
D03*
Y216622D02*
D03*
D26*
X102122Y163079D02*
D03*
X100154D02*
D03*
X98185D02*
D03*
X96216D02*
D03*
X94248D02*
D03*
X92279D02*
D03*
X90311D02*
D03*
X88342D02*
D03*
X86374D02*
D03*
X84405D02*
D03*
X82437D02*
D03*
X80468D02*
D03*
X78500D02*
D03*
X76531D02*
D03*
X74563D02*
D03*
X72594D02*
D03*
X70626D02*
D03*
X68657D02*
D03*
X66689D02*
D03*
X64720D02*
D03*
X62752D02*
D03*
X60783D02*
D03*
X58815D02*
D03*
X56846D02*
D03*
X54878D02*
D03*
Y222921D02*
D03*
X56846D02*
D03*
X58815D02*
D03*
X60783D02*
D03*
X62752D02*
D03*
X64720D02*
D03*
X66689D02*
D03*
X68657D02*
D03*
X70626D02*
D03*
X72594D02*
D03*
X74563D02*
D03*
X76531D02*
D03*
X78500D02*
D03*
X80468D02*
D03*
X82437D02*
D03*
X84405D02*
D03*
X86374D02*
D03*
X88342D02*
D03*
X90311D02*
D03*
X92279D02*
D03*
X94248D02*
D03*
X96216D02*
D03*
X98185D02*
D03*
X100154D02*
D03*
X102122D02*
D03*
D27*
X47630Y90227D02*
D03*
Y94951D02*
D03*
Y78727D02*
D03*
Y83451D02*
D03*
X40130Y90258D02*
D03*
Y94983D02*
D03*
X34130Y105589D02*
D03*
Y100865D02*
D03*
X10500Y323138D02*
D03*
Y327862D02*
D03*
X10512Y360362D02*
D03*
Y355638D02*
D03*
D28*
X55130Y95050D02*
D03*
Y90128D02*
D03*
Y83550D02*
D03*
Y78628D02*
D03*
X40130D02*
D03*
Y83550D02*
D03*
D29*
X41169Y102589D02*
D03*
X46091D02*
D03*
D30*
X113862Y103315D02*
D03*
Y97409D02*
D03*
X83000Y102953D02*
D03*
Y97047D02*
D03*
D31*
X116500Y88862D02*
D03*
X121224D02*
D03*
X118224Y109362D02*
D03*
X113500D02*
D03*
X85638Y88500D02*
D03*
X90362D02*
D03*
X87362Y109000D02*
D03*
X82638D02*
D03*
D32*
X130546Y88264D02*
D03*
X136179D02*
D03*
D33*
X132000Y94862D02*
D03*
X136724D02*
D03*
X101138Y94500D02*
D03*
X105862D02*
D03*
D34*
X136831Y100362D02*
D03*
X131894D02*
D03*
X105968Y100000D02*
D03*
X101031D02*
D03*
X11468Y168500D02*
D03*
X6532D02*
D03*
X11468Y176500D02*
D03*
X6532D02*
D03*
X23531Y380000D02*
D03*
X28468D02*
D03*
X337937Y177656D02*
D03*
X333000D02*
D03*
X325437D02*
D03*
X320500D02*
D03*
X312937D02*
D03*
X308000D02*
D03*
X340437Y157656D02*
D03*
X335500D02*
D03*
X327937D02*
D03*
X323000D02*
D03*
X315437D02*
D03*
X310500D02*
D03*
X300437Y177656D02*
D03*
X295500D02*
D03*
X302937Y157656D02*
D03*
X298000D02*
D03*
X287937Y177656D02*
D03*
X283000D02*
D03*
X290437Y157656D02*
D03*
X285500D02*
D03*
X336766Y363000D02*
D03*
X331829D02*
D03*
X313266D02*
D03*
X308329D02*
D03*
X289766D02*
D03*
X284829D02*
D03*
X266766D02*
D03*
X261829D02*
D03*
D35*
X125815Y94449D02*
D03*
X123846D02*
D03*
X121878D02*
D03*
X119909D02*
D03*
Y100276D02*
D03*
X121878D02*
D03*
X123846D02*
D03*
X125815D02*
D03*
X94953Y94087D02*
D03*
X92984D02*
D03*
X91016D02*
D03*
X89047D02*
D03*
Y99913D02*
D03*
X91016D02*
D03*
X92984D02*
D03*
X94953D02*
D03*
D36*
X116954Y119862D02*
D03*
X128771D02*
D03*
X86091Y119500D02*
D03*
X97909D02*
D03*
X555409Y447500D02*
D03*
X543591D02*
D03*
D37*
X128011Y107862D02*
D03*
X134714D02*
D03*
D38*
X99542Y88000D02*
D03*
X105458D02*
D03*
D39*
X97244Y107500D02*
D03*
X103756D02*
D03*
X219256Y154500D02*
D03*
X212744D02*
D03*
X219256Y186500D02*
D03*
X212744D02*
D03*
X98744Y238000D02*
D03*
X105256D02*
D03*
X98744Y246500D02*
D03*
X105256D02*
D03*
D40*
X101193Y72500D02*
D03*
X87807D02*
D03*
D41*
X145980Y63362D02*
D03*
X115862D02*
D03*
D42*
X137500Y33843D02*
D03*
Y14157D02*
D03*
X105500Y33342D02*
D03*
Y13657D02*
D03*
D43*
X590299Y392059D02*
D03*
Y389500D02*
D03*
Y386941D02*
D03*
X597780D02*
D03*
Y392059D02*
D03*
D44*
X33500Y214531D02*
D03*
Y219468D02*
D03*
X38500Y246468D02*
D03*
Y241531D02*
D03*
X63500Y365032D02*
D03*
Y369969D02*
D03*
X45000Y365032D02*
D03*
Y369969D02*
D03*
X206378Y261469D02*
D03*
Y256532D02*
D03*
X294969D02*
D03*
Y261469D02*
D03*
Y194973D02*
D03*
Y199909D02*
D03*
X220443Y199968D02*
D03*
Y195031D02*
D03*
X533000Y412532D02*
D03*
Y417469D02*
D03*
D45*
X33128Y207500D02*
D03*
X38872D02*
D03*
X203872Y186500D02*
D03*
X198128D02*
D03*
X181372Y339250D02*
D03*
X175628D02*
D03*
X155872Y339000D02*
D03*
X150128D02*
D03*
X130872D02*
D03*
X125128D02*
D03*
X446628Y387500D02*
D03*
X452372D02*
D03*
X446500Y394500D02*
D03*
X452243D02*
D03*
D46*
X29000Y250634D02*
D03*
Y242366D02*
D03*
X33500Y406866D02*
D03*
Y415134D02*
D03*
D47*
X21500Y242366D02*
D03*
Y250634D02*
D03*
X68500Y406866D02*
D03*
Y415134D02*
D03*
D48*
X23031Y278602D02*
D03*
Y266398D02*
D03*
X35032Y278602D02*
D03*
Y266398D02*
D03*
X57500Y417102D02*
D03*
Y404898D02*
D03*
X44000Y417102D02*
D03*
Y404898D02*
D03*
X228890Y99898D02*
D03*
Y112102D02*
D03*
X241390Y99898D02*
D03*
Y112102D02*
D03*
D49*
X16732Y233669D02*
D03*
Y217331D02*
D03*
X8268Y233669D02*
D03*
Y217331D02*
D03*
X6201Y188831D02*
D03*
Y205169D02*
D03*
X14665Y188831D02*
D03*
Y205169D02*
D03*
D50*
X193500Y316118D02*
D03*
Y311000D02*
D03*
X45500Y247059D02*
D03*
Y241941D02*
D03*
X57500Y241941D02*
D03*
Y247059D02*
D03*
X57000Y370059D02*
D03*
Y364941D02*
D03*
X51000D02*
D03*
Y370059D02*
D03*
X49500Y308941D02*
D03*
Y314059D02*
D03*
X43500Y308941D02*
D03*
Y314059D02*
D03*
X79000Y310441D02*
D03*
Y315559D02*
D03*
X224390Y118941D02*
D03*
Y124059D02*
D03*
X288000Y376441D02*
D03*
Y381559D02*
D03*
X510000Y432059D02*
D03*
Y426941D02*
D03*
X497000Y443059D02*
D03*
Y437941D02*
D03*
X477000Y443559D02*
D03*
Y438441D02*
D03*
X500500Y384941D02*
D03*
Y390059D02*
D03*
X382803Y398941D02*
D03*
Y404059D02*
D03*
D51*
X204441Y307000D02*
D03*
X209559D02*
D03*
X203559Y154500D02*
D03*
X198441D02*
D03*
X98118Y354000D02*
D03*
X93000D02*
D03*
X514559Y397500D02*
D03*
X509441D02*
D03*
X517059Y412000D02*
D03*
X511941D02*
D03*
X465941Y389000D02*
D03*
X471059D02*
D03*
X455441Y402500D02*
D03*
X460559D02*
D03*
X455441Y408500D02*
D03*
X460559D02*
D03*
X455441Y414500D02*
D03*
X460559D02*
D03*
X455000Y425500D02*
D03*
X460118D02*
D03*
X492559Y388500D02*
D03*
X487441D02*
D03*
D52*
X206500Y329539D02*
D03*
Y334461D02*
D03*
D53*
X191551Y178000D02*
D03*
Y173000D02*
D03*
Y168000D02*
D03*
Y163000D02*
D03*
X210449Y178000D02*
D03*
Y173000D02*
D03*
Y168000D02*
D03*
Y163000D02*
D03*
D54*
X229000Y167638D02*
D03*
Y173362D02*
D03*
X64500Y241638D02*
D03*
Y247362D02*
D03*
X72500D02*
D03*
Y241638D02*
D03*
X533000Y432362D02*
D03*
Y426638D02*
D03*
D55*
X221000Y163077D02*
D03*
Y167923D02*
D03*
Y177923D02*
D03*
Y173077D02*
D03*
X95000Y329077D02*
D03*
Y333923D02*
D03*
D56*
X51500Y247650D02*
D03*
Y241350D02*
D03*
D57*
X86500Y235079D02*
D03*
Y244921D02*
D03*
D58*
X72748Y373500D02*
D03*
X91252D02*
D03*
X583248Y409500D02*
D03*
X601752D02*
D03*
D59*
X57173Y356347D02*
D03*
X59142D02*
D03*
X61110D02*
D03*
X63079D02*
D03*
X65047D02*
D03*
X67016D02*
D03*
X68984D02*
D03*
X70953D02*
D03*
X72921D02*
D03*
X74890D02*
D03*
X76858D02*
D03*
X78827D02*
D03*
Y324654D02*
D03*
X76858D02*
D03*
X74890D02*
D03*
X72921D02*
D03*
X70953D02*
D03*
X68984D02*
D03*
X67016D02*
D03*
X65047D02*
D03*
X63079D02*
D03*
X61110D02*
D03*
X59142D02*
D03*
X57173D02*
D03*
D60*
X83846Y351327D02*
D03*
Y349358D02*
D03*
Y347390D02*
D03*
Y345421D02*
D03*
Y343453D02*
D03*
Y341484D02*
D03*
Y339516D02*
D03*
Y337547D02*
D03*
Y335579D02*
D03*
Y333610D02*
D03*
Y331642D02*
D03*
Y329673D02*
D03*
X52153D02*
D03*
Y331642D02*
D03*
Y333610D02*
D03*
Y335579D02*
D03*
Y337547D02*
D03*
Y339516D02*
D03*
Y341484D02*
D03*
Y343453D02*
D03*
Y345421D02*
D03*
Y347390D02*
D03*
Y349358D02*
D03*
Y351327D02*
D03*
D61*
X27000Y322799D02*
D03*
Y360201D02*
D03*
D62*
X56000Y314372D02*
D03*
Y308628D02*
D03*
X192000Y347378D02*
D03*
Y353122D02*
D03*
X166500Y347128D02*
D03*
Y352872D02*
D03*
X192000Y359878D02*
D03*
Y365622D02*
D03*
X166500Y359628D02*
D03*
Y365372D02*
D03*
X141500Y347128D02*
D03*
Y352872D02*
D03*
Y359628D02*
D03*
Y365372D02*
D03*
X521500Y392628D02*
D03*
Y398372D02*
D03*
X543000D02*
D03*
Y392628D02*
D03*
X528500Y398372D02*
D03*
Y392628D02*
D03*
X536000D02*
D03*
Y398372D02*
D03*
X484000Y443872D02*
D03*
Y438128D02*
D03*
D63*
X73831Y291732D02*
D03*
X90169D02*
D03*
X73831Y283268D02*
D03*
X90169D02*
D03*
D64*
X93701Y266000D02*
D03*
X56299D02*
D03*
D65*
X210551Y96500D02*
D03*
Y116500D02*
D03*
D66*
X170000Y106500D02*
D03*
D67*
X218134Y131000D02*
D03*
X223646D02*
D03*
D68*
X231150Y128833D02*
D03*
X234890D02*
D03*
X238630D02*
D03*
Y120167D02*
D03*
X234890D02*
D03*
D69*
X231150D02*
D03*
D70*
X175661Y347089D02*
D03*
X178220D02*
D03*
X180780D02*
D03*
X183339D02*
D03*
Y364411D02*
D03*
X180780D02*
D03*
X178220D02*
D03*
X175661D02*
D03*
X150161Y346839D02*
D03*
X152720D02*
D03*
X155280D02*
D03*
X157839D02*
D03*
Y364161D02*
D03*
X155280D02*
D03*
X152720D02*
D03*
X150161D02*
D03*
X125161Y346839D02*
D03*
X127720D02*
D03*
X130280D02*
D03*
X132839D02*
D03*
Y364161D02*
D03*
X130280D02*
D03*
X127720D02*
D03*
X125161D02*
D03*
D71*
X179500Y355750D02*
D03*
X154000Y355500D02*
D03*
X129000D02*
D03*
D72*
X339209Y171239D02*
D03*
X326709D02*
D03*
X314209D02*
D03*
X301709D02*
D03*
X289209D02*
D03*
D73*
X331728D02*
D03*
X335469Y164073D02*
D03*
X319228Y171239D02*
D03*
X322969Y164073D02*
D03*
X306728Y171239D02*
D03*
X310469Y164073D02*
D03*
X294228Y171239D02*
D03*
X297969Y164073D02*
D03*
X281728Y171239D02*
D03*
X285469Y164073D02*
D03*
D74*
X296098Y376146D02*
D03*
Y381854D02*
D03*
X374500Y398646D02*
D03*
Y404354D02*
D03*
D75*
X304000Y381953D02*
D03*
Y376047D02*
D03*
X391500Y404598D02*
D03*
Y398693D02*
D03*
D76*
X15000Y140752D02*
D03*
Y122248D02*
D03*
X566500Y406752D02*
D03*
Y388248D02*
D03*
D77*
X217756Y299500D02*
D03*
Y294500D02*
D03*
Y289500D02*
D03*
Y284500D02*
D03*
Y279500D02*
D03*
Y274500D02*
D03*
Y269500D02*
D03*
X240000Y299500D02*
D03*
Y294500D02*
D03*
Y289500D02*
D03*
Y284500D02*
D03*
Y279500D02*
D03*
Y274500D02*
D03*
Y269500D02*
D03*
X328591D02*
D03*
Y274500D02*
D03*
Y279500D02*
D03*
Y284500D02*
D03*
Y289500D02*
D03*
Y294500D02*
D03*
Y299500D02*
D03*
X306347Y269500D02*
D03*
Y274500D02*
D03*
Y279500D02*
D03*
Y284500D02*
D03*
Y289500D02*
D03*
Y294500D02*
D03*
Y299500D02*
D03*
X328591Y207941D02*
D03*
Y212941D02*
D03*
Y217941D02*
D03*
Y222941D02*
D03*
Y227941D02*
D03*
Y232941D02*
D03*
Y237941D02*
D03*
X306347Y207941D02*
D03*
Y212941D02*
D03*
Y217941D02*
D03*
Y222941D02*
D03*
Y227941D02*
D03*
Y232941D02*
D03*
Y237941D02*
D03*
X231821Y238000D02*
D03*
Y233000D02*
D03*
Y228000D02*
D03*
Y223000D02*
D03*
Y218000D02*
D03*
Y213000D02*
D03*
Y208000D02*
D03*
X254065Y238000D02*
D03*
Y233000D02*
D03*
Y228000D02*
D03*
Y223000D02*
D03*
Y218000D02*
D03*
Y213000D02*
D03*
Y208000D02*
D03*
D78*
X194079Y298000D02*
D03*
X181677D02*
D03*
X270268Y298000D02*
D03*
X282669D02*
D03*
X270268Y236441D02*
D03*
X282669D02*
D03*
X208144Y236500D02*
D03*
X195742D02*
D03*
D79*
X206378Y289988D02*
D03*
Y301012D02*
D03*
X294969Y301012D02*
D03*
Y289988D02*
D03*
Y239453D02*
D03*
Y228429D02*
D03*
X220443Y228488D02*
D03*
Y239512D02*
D03*
D80*
X225233Y259500D02*
D03*
X232523D02*
D03*
X321113D02*
D03*
X313824D02*
D03*
X321113Y197941D02*
D03*
X313824D02*
D03*
X239298Y198000D02*
D03*
X246588D02*
D03*
D81*
X196579Y262500D02*
D03*
X179177D02*
D03*
X267768D02*
D03*
X285169D02*
D03*
X267768Y200941D02*
D03*
X285169D02*
D03*
X210644Y201000D02*
D03*
X193242D02*
D03*
D82*
X195949Y281500D02*
D03*
X179807D02*
D03*
X268398D02*
D03*
X284539D02*
D03*
X268398Y219941D02*
D03*
X284539D02*
D03*
X210014Y220000D02*
D03*
X193872D02*
D03*
D83*
X279000Y327051D02*
D03*
X284000D02*
D03*
X289000D02*
D03*
X294000D02*
D03*
X279000Y345949D02*
D03*
X284000D02*
D03*
X289000D02*
D03*
X294000D02*
D03*
X326000Y327051D02*
D03*
X331000D02*
D03*
X336000D02*
D03*
X341000D02*
D03*
X326000Y345949D02*
D03*
X331000D02*
D03*
X336000D02*
D03*
X341000D02*
D03*
X302500Y327051D02*
D03*
X307500D02*
D03*
X312500D02*
D03*
X317500D02*
D03*
X302500Y345949D02*
D03*
X307500D02*
D03*
X312500D02*
D03*
X317500D02*
D03*
X256000Y327051D02*
D03*
X261000D02*
D03*
X266000D02*
D03*
X271000D02*
D03*
X256000Y345949D02*
D03*
X261000D02*
D03*
X266000D02*
D03*
X271000D02*
D03*
D84*
X339716Y355500D02*
D03*
X328878D02*
D03*
X316216D02*
D03*
X305379D02*
D03*
X292716D02*
D03*
X281878D02*
D03*
X269716D02*
D03*
X258878D02*
D03*
D85*
X582539Y386744D02*
D03*
Y392256D02*
D03*
X550500Y392744D02*
D03*
Y398256D02*
D03*
X517000Y432256D02*
D03*
Y426744D02*
D03*
D86*
X524500Y432274D02*
D03*
Y426726D02*
D03*
D87*
X466500Y458625D02*
D03*
Y436375D02*
D03*
D88*
X546000Y428409D02*
D03*
Y416591D02*
D03*
D89*
X486000Y412500D02*
D03*
D90*
X452921Y442740D02*
D03*
Y439000D02*
D03*
Y435260D02*
D03*
X443079D02*
D03*
Y439000D02*
D03*
Y442740D02*
D03*
D91*
X462000Y381362D02*
D03*
Y376638D02*
D03*
X489500Y376638D02*
D03*
Y381362D02*
D03*
D92*
X471472Y381945D02*
D03*
X480528D02*
D03*
Y375055D02*
D03*
X471472D02*
D03*
M02*
