G04*
G04 #@! TF.GenerationSoftware,Altium Limited,Altium Designer,23.7.1 (13)*
G04*
G04 Layer_Color=128*
%FSLAX25Y25*%
%MOIN*%
G70*
G04*
G04 #@! TF.SameCoordinates,3671DF12-B1F1-4326-BA21-4D3E62DEF6AE*
G04*
G04*
G04 #@! TF.FilePolarity,Positive*
G04*
G01*
G75*
%ADD50R,0.04331X0.04134*%
%ADD51R,0.04134X0.04331*%
%ADD74R,0.04724X0.04134*%
%ADD75R,0.04724X0.03937*%
%ADD183R,0.05339X0.04152*%
%ADD184R,0.04152X0.05339*%
%ADD186R,0.04331X0.08268*%
D50*
X288000Y430559D02*
D03*
Y425441D02*
D03*
X100500Y159441D02*
D03*
Y164559D02*
D03*
X110500Y213941D02*
D03*
Y219059D02*
D03*
X92000Y221441D02*
D03*
Y226559D02*
D03*
X61000Y221441D02*
D03*
Y226559D02*
D03*
X81000Y226559D02*
D03*
Y221441D02*
D03*
X68500Y221441D02*
D03*
Y226559D02*
D03*
X494500Y393441D02*
D03*
Y398559D02*
D03*
X484500Y433559D02*
D03*
Y428441D02*
D03*
D51*
X44941Y171000D02*
D03*
X50059D02*
D03*
X44941Y213000D02*
D03*
X50059D02*
D03*
D74*
X296098Y430854D02*
D03*
Y425146D02*
D03*
D75*
X304000Y425047D02*
D03*
Y430953D02*
D03*
D183*
X93000Y164357D02*
D03*
Y158643D02*
D03*
D184*
X45143Y178500D02*
D03*
X50857D02*
D03*
D186*
X590748Y377842D02*
D03*
X582874D02*
D03*
X575000D02*
D03*
X567126D02*
D03*
M02*
