M48
;Layer_Color=9474304
;FILE_FORMAT=2:4
INCH,TZ
;TYPE=PLATED
T01F00S00C0.0118
T02F00S00C0.0130
T03F00S00C0.0157
T04F00S00C0.0236
T05F00S00C0.0280
T06F00S00C0.0362
T07F00S00C0.0409
T08F00S00C0.0433
T09F00S00C0.0472
T10F00S00C0.0472
T11F00S00C0.0531
T12F00S00C0.1260
T13F00S00C0.1378
T14F00S00C0.1575
T15F00S00C0.1890
%
T01
X33950Y21583
X33940Y22000
X21750Y31200
X21267Y31136
X6850Y30400
X6303Y30042
X7018Y29349
X6741Y29037
X6976Y28692
X7400Y29600
X5450Y28328
X5150Y25052
X4383Y25063
X3300Y25050
X4740Y23700
X5265
X6150Y23050
X6926Y23000
X7466Y22866
X7753Y21741
X8216Y21670
X8740Y21740
X7550Y21370
X7124Y21391
X6862Y21745
X6400Y21650
X6598Y21175
X6165Y21112
X5374Y21416
X5250Y21961
X4197Y21725
X4182Y21300
X2283Y19350
X2031Y18946
X1824Y19672
X1574Y20022
X4139Y17100
X5408Y17824
X10053Y16827
X10254Y15789
X9677Y15734
X10274Y20727
X9366Y22953
X7539Y25025
X6374Y25056
X6173Y25422
X6400Y35105
X6939Y34611
X19850Y32750
X19648Y31968
X20650Y31916
X21599Y31960
X21570Y32446
X21628Y32859
T02
X48206Y40856
Y41250
X48600
X48994
Y41644
X48600
X48206
X48600Y40856
X48994
T03
X13380Y14770
X13414Y15569
X12957Y15610
X13860Y15473
X14300Y15350
X18407Y13113
X19400Y13100
X21482Y8199
X21936Y8150
X24373Y9027
X25249Y8206
X25750Y8150
X33500Y10250
X34288Y10662
X35260Y9881
X35280Y9370
X35650Y7950
X34367Y14717
Y15174
X37594Y15159
X37852Y14783
X37700Y17250
X36405
X36400Y16750
X34323Y15766
X34843Y22207
X34000Y23800
Y24257
X32100Y24094
X31300
X32250Y23150
X32200Y20744
X32686Y25814
X32197Y26900
X32100Y30250
X31300
X36800Y26300
X36281Y25633
X36700Y23350
X24647Y24100
X23847
X23341Y26900
X23241Y30250
X22441
X17497Y23897
X17150Y23600
X16647Y23520
X17400Y23200
X24747Y20750
X29077Y17547
X14702Y17538
X11500Y17200
X11728Y16525
X11466Y16117
X11181Y15760
X12150Y16000
X10130Y17392
X10165Y17847
X10150Y18304
X8850Y18650
X8573Y19022
X8210Y19300
X5451Y20030
X5656Y20452
X5601Y20905
X5150Y22550
X4950Y23150
X2900Y23500
X4150Y19150
X11450Y20550
X11903Y20686
X11888Y21142
X12336Y21001
X12510Y20579
X12471Y20124
X12617Y22024
X12517Y22469
X12075Y22585
X11911Y23011
X10980Y23150
X10950Y24254
X11050Y21906
X11570Y21470
X13018Y21798
X13401Y22123
X13155Y22522
X13511Y21501
X13870Y21800
X14120Y21216
X7585Y31050
X6720Y31400
X7022Y32919
X5700Y33900
X4650Y34800
X6047Y36111
X5700Y37323
X5650Y38000
X4500
X3126
X7000
X8133Y37933
X8147Y35884
X8178Y35428
X8902Y35107
X8900Y34650
X9295Y34332
X7908Y34483
X7628Y34844
X4813Y31711
X1100Y33150
Y35200
X5850Y40150
X12650Y37650
X13262Y37583
X13403Y38032
X14149Y37755
X14605
X14750Y36870
X12300Y36900
X17293Y36843
X18089Y36912
X18391Y37254
X21650Y37350
X21878Y37745
X21725Y38175
X21694Y38694
X22017Y39017
X22041Y37113
X21693Y36703
X21965Y36332
X22706Y34826
X22058Y34020
X21650Y33800
X21280Y33532
X21085Y33119
X22159Y32153
X22501Y32492
X19220Y32056
X19661Y34816
X26100Y33350
X28400
X30750Y33393
X29686Y35550
X27400
X27050Y39250
X27850
X26150
X25350
Y41900
X26150
X27050Y41850
X27850
X24371Y43005
X23069Y42431
X32050Y35550
X34400
X34231Y37601
X34717Y37508
X35173Y37500
X35050Y38100
X35400Y38450
X36199Y38105
X36250Y37624
Y37167
X36200Y36650
X37300Y37700
Y38550
X33891Y37292
X33100Y33400
X39100Y43400
X43449Y43450
X43450Y42757
X45097Y42963
X45150Y40850
X46400Y41350
X45444Y38330
X45767Y37933
X46650Y45478
X47250Y44243
X48819Y44661
X49357Y44700
X50250Y43350
X51000Y42350
X48706Y42376
X48777Y40260
X48266Y40231
X49285Y40200
X49923Y39533
X50550Y39750
X49602Y38494
X55050Y40500
X54612Y44000
X52250Y44450
T04
X9550Y3100
X10800Y10830
X11672Y11414
X10400Y11900
X8586Y11378
X4663Y10859
X3963
X1050Y11624
X1090Y14900
X14003Y14272
X14800Y14700
X14600Y11300
X13887Y10866
X13550Y11950
X17729Y14694
X18156Y14272
X19960Y14113
X22312Y14112
X22851Y14525
X21587Y11200
X21094
X20600
X19347Y10250
X18800Y9150
X20600Y950
X21100
X21000Y450
X21500
X33900Y5400
X34300Y17150
X41650Y17350
X42150
X42100Y22550
X42600
X43100
X27850Y20050
X27848Y17813
X26162Y19397
X23447Y19850
X22700Y18803
X22647Y17760
X19750Y17300
X19400Y15850
X18652Y19850
X19500Y20500
X20400Y19950
X18600Y25350
X19036Y26250
X24422Y25628
X27850Y26250
X14147Y17527
X7520Y17112
X5697Y17126
X700Y16150
X1851Y27486
X9949Y37859
X11050Y38500
X15709Y39239
X20400Y38450
Y36768
Y35250
X20574Y32998
X18169Y33419
X18803Y31300
X25700Y32050
X26596Y32046
X27585Y34347
X20408Y40948
X44200Y39100
X47098Y38194
X51750Y41100
T05
X19650Y3450
X20250
X19650Y4050
X19050
X23500Y4250
X24200
Y3550
X23500
Y2850
X24200
X25050Y4300
X25650
Y4950
X25050
X47550Y1250
Y650
X46950
X34643Y22797
Y23497
X34650Y24650
Y25350
X36400Y41250
Y41850
Y42450
T06
X38455Y41859
Y42646
Y43433
Y44221
T07
X1050Y24650
Y25650
Y26650
Y27650
Y28650
Y29650
X4200Y29900
X5200
X5400Y39350
X6400
X4400
X3400
X2400
X1400
T08
X17835Y5709
X19213
X20591
X21811
X22992
X24173
X25354
X26535
X27717
X28898
X30079
Y7480
X28898
X27717
X26535
X25354
X24173
X22992
X21811
X20591
X19213
X17835
X31299
X32657
X32677Y5709
X31299
X35020
X36201
X37382
X38563
X39744
X40925
X42106
X43287
Y7480
X42106
X40925
X39744
X38563
X37382
X36201
X35020
T09
X37795Y18425
X38780
X39764
X40748
Y19882
X39764
X38780
X37795
Y21260
Y22244
Y23228
Y24213
Y25197
Y26181
X38780
X39764
Y25197
X38780
Y24213
X39764
X40748
Y25197
Y26181
Y23228
X39764
X38780
Y22244
X39764
X40748
Y21260
X39764
X38780
T10
X9528Y39567
Y41142
X10709
X11575
X12441
X13307
X14173
X15039
Y39961
X14173
X13307
X12441
X11575
X10709
X15906
X16772
X17638
X18504
Y41142
X17638
X16772
X15906
X19685
Y39567
X24094
Y41142
X25276
X26142
X27008
X27874
X28740
X29606
X30472
Y39961
X29606
X28740
X27874
X27008
X26142
X25276
X31339
X32205
X33071
Y41142
X32205
X31339
X34252
Y39567
X56713Y36800
X57500
X58287
X59075
T11
X37378Y41752
X39532
Y44508
X37378
T12
X8740Y43701
X20472
X23307
X35039
T13
X17579Y3465
X33898
X43445
T14
X39626Y14272
Y30335
T15
X2165Y45512
X58858
M30
